<svg width="256" height="300" viewBox="0 0 256 300" fill="none" xmlns="http://www.w3.org/2000/svg">
<path d="M222.125 75.3487C192.347 49.3272 152.038 75.3487 112.876 130.107C73.7139 184.866 55.0923 161.821 21.8011 185.956C-11.4901 210.091 -20.3943 308.956 96.8973 299.344C214.189 289.733 299.97 143.281 222.125 75.3487Z" fill="#F0F0F0"/>
<path d="M203.268 237.438C190.705 228.664 187.859 212.376 188.355 197.731C188.436 195.291 188.168 192.705 189.33 190.567C190.493 188.428 193.209 186.956 195.397 187.981C197.21 188.835 197.999 190.949 199.015 192.697C200.372 195.026 202.359 196.923 204.748 198.17C206.301 198.983 208.228 199.471 209.765 198.625C211.88 197.462 212.124 194.559 212.107 192.12C212.107 187.582 212.08 183.05 212.026 178.524C211.88 176.093 212.127 173.655 212.758 171.303C213.514 168.993 215.197 166.855 217.499 166.204C219.8 165.554 222.67 166.895 223.191 169.27C223.28 170.276 223.305 171.286 223.264 172.295C223.329 173.311 223.801 174.425 224.752 174.734C225.703 175.043 226.696 174.336 227.427 173.62C229.932 171.181 231.64 168.001 233.225 164.862C234.811 161.724 236.364 158.495 238.641 155.82C240.918 153.145 244.065 151.022 247.586 150.819C251.107 150.616 254.774 152.779 255.653 156.194C256.531 159.609 254.538 163.098 252.4 165.871C249.173 169.987 245.368 173.616 241.105 176.645C240.273 177.1 239.608 177.81 239.21 178.67C238.682 180.296 240.219 181.923 241.821 182.435C243.634 183.037 245.602 182.85 247.513 183.077C249.424 183.305 251.457 184.135 252.18 185.924C253.172 188.412 251.091 191.014 249.05 192.722C244.951 196.137 240.297 198.824 235.291 200.666C233.502 201.317 231.623 201.894 230.176 203.147C228.728 204.399 227.867 206.586 228.737 208.302C229.607 210.018 231.843 210.563 233.721 210.213C235.6 209.863 237.267 208.855 239.056 208.18C242.398 206.92 246.708 207.147 248.814 210.034C249.466 211.028 249.879 212.161 250.02 213.342C250.161 214.523 250.027 215.72 249.627 216.84C248.813 219.069 247.561 221.113 245.943 222.85C240.617 229.213 233.697 234.048 225.891 236.861C218.141 239.544 210.961 240.276 203.26 237.454" fill="#FFD037"/>
<path d="M252.074 152.828C252.074 152.828 252.001 152.909 251.839 153.055L251.115 153.698C250.481 154.267 249.545 155.096 248.366 156.194C245.023 159.298 241.919 162.65 239.08 166.22C237.267 168.473 235.388 171.026 233.388 173.799C231.387 176.572 229.322 179.565 227.273 182.744C225.088 186.097 223.087 189.566 221.28 193.136C220.336 194.999 219.507 196.942 218.653 198.926L216.132 204.984C212.809 212.615 209.915 220.426 207.464 228.379C205.489 234.887 204.128 241.565 203.398 248.326C202.925 252.889 202.849 257.484 203.17 262.061C203.3 263.687 203.422 264.931 203.536 265.777C203.585 266.183 203.618 266.509 203.65 266.744V267.078C203.615 266.972 203.591 266.863 203.577 266.753C203.536 266.517 203.487 266.2 203.422 265.793C203.276 264.98 203.122 263.695 202.975 262.069C202.583 257.484 202.61 252.873 203.056 248.294C203.741 241.503 205.073 234.794 207.033 228.257C209.464 220.281 212.35 212.451 215.677 204.805L218.263 198.772C219.117 196.796 219.954 194.836 220.906 192.966C222.726 189.385 224.743 185.907 226.947 182.549C229.029 179.296 231.127 176.353 233.103 173.604C235.079 170.856 236.99 168.286 238.795 166.042C241.663 162.48 244.809 159.152 248.204 156.088C249.407 155.007 250.367 154.194 251.017 153.649L251.773 153.039C251.866 152.958 251.967 152.887 252.074 152.828Z" fill="black"/>
<path d="M221.011 192.949C220.897 192.614 220.818 192.268 220.776 191.917C220.646 191.242 220.499 190.29 220.328 189.054C219.979 186.615 219.621 183.273 219.239 179.573C218.857 175.873 218.426 172.522 218.068 170.107C217.881 168.904 217.718 167.936 217.604 167.261C217.515 166.916 217.469 166.561 217.466 166.204C217.606 166.53 217.707 166.871 217.767 167.221C217.946 167.887 218.149 168.847 218.377 170.059C218.84 172.498 219.296 175.816 219.678 179.524C220.06 183.232 220.385 186.485 220.637 189.014C220.759 190.152 220.865 191.12 220.946 191.892C221.01 192.241 221.031 192.596 221.011 192.949Z" fill="black"/>
<path d="M252.302 187.111C251.906 187.197 251.503 187.246 251.098 187.257C250.285 187.33 249.131 187.428 247.699 187.591C244.837 187.9 240.901 188.469 236.583 189.282C232.265 190.095 228.387 191.014 225.597 191.721C224.207 192.079 223.085 192.405 222.345 192.624C221.95 192.764 221.541 192.863 221.125 192.917C221.501 192.728 221.893 192.573 222.296 192.453C223.06 192.185 224.166 191.811 225.549 191.412C228.322 190.599 232.2 189.632 236.535 188.802C240.206 188.1 243.911 187.584 247.634 187.257C249.074 187.135 250.236 187.086 251.05 187.07C251.467 187.042 251.887 187.055 252.302 187.111Z" fill="black"/>
<path d="M207.432 227.688C207.345 227.57 207.274 227.442 207.22 227.306L206.683 226.175C206.22 225.191 205.594 223.736 204.846 221.955C203.333 218.377 201.406 213.368 199.357 207.806C197.308 202.244 195.421 197.235 193.99 193.616C193.291 191.86 192.713 190.42 192.282 189.347L191.827 188.184C191.764 188.05 191.72 187.908 191.697 187.761C191.783 187.879 191.855 188.007 191.908 188.143L192.445 189.274C192.9 190.258 193.535 191.713 194.283 193.494C195.795 197.072 197.722 202.081 199.772 207.643C201.821 213.205 203.707 218.214 205.138 221.833C205.838 223.59 206.415 225.029 206.838 226.102C207.025 226.566 207.18 226.915 207.302 227.265C207.365 227.399 207.408 227.542 207.432 227.688Z" fill="black"/>
<path d="M248.968 214.295C248.838 214.37 248.699 214.427 248.553 214.466L247.35 214.872L242.902 216.312C239.145 217.531 233.957 219.271 228.265 221.191C222.573 223.11 217.36 224.817 213.579 225.956C211.692 226.533 210.156 226.972 209.09 227.265L207.862 227.582C207.72 227.627 207.572 227.657 207.423 227.672C207.554 227.597 207.693 227.539 207.838 227.501L209.042 227.094L213.49 225.655C217.246 224.435 222.434 222.695 228.127 220.776C233.819 218.857 239.023 217.149 242.804 216.011C244.699 215.433 246.228 214.994 247.301 214.701L248.529 214.384C248.672 214.339 248.819 214.309 248.968 214.295Z" fill="black"/>
<path d="M232.022 17.0445L227.834 18.5407L226.037 13.0681C222.735 2.97663 212.213 -2.38216 202.544 1.02502C192.876 4.4322 187.728 15.4994 191.03 25.5909L192.827 31.0635L188.623 32.5679C187.02 33.1897 185.718 34.4053 184.988 35.9621C184.258 37.519 184.156 39.2972 184.703 40.9273L196.356 76.5359C196.598 77.3429 197 78.093 197.537 78.7416C198.075 79.3903 198.737 79.9243 199.485 80.3119C200.233 80.6995 201.051 80.9328 201.891 80.998C202.731 81.0632 203.575 80.9588 204.374 80.6912L247.773 65.1678C249.397 64.5471 250.717 63.3207 251.456 61.7465C252.194 60.1723 252.294 58.3731 251.733 56.7271L240.072 21.1184C239.824 20.3138 239.416 19.5673 238.873 18.9237C238.33 18.28 237.663 17.7524 236.912 17.3721C236.161 16.9919 235.34 16.7669 234.5 16.7106C233.66 16.6543 232.817 16.7679 232.022 17.0445ZM198.942 22.7367C198.052 20.1127 198.212 17.2461 199.388 14.7374C200.564 12.2287 202.666 10.2725 205.252 9.2787C206.529 8.84172 207.881 8.66649 209.228 8.76346C210.574 8.86043 211.887 9.22761 213.089 9.84309C214.29 10.4586 215.355 11.3097 216.22 12.3458C217.085 13.3819 217.733 14.5817 218.125 15.8735L219.914 21.3461L200.731 28.2093L198.942 22.7367ZM223.337 54.3364L226.313 63.4277C226.368 63.6099 226.35 63.8063 226.264 63.9759C226.178 64.1455 226.029 64.2753 225.85 64.3384L221.678 65.8265C221.512 65.8725 221.335 65.8525 221.183 65.7707C221.032 65.6888 220.918 65.5515 220.865 65.3874L217.864 56.3368C216.21 56.2467 214.622 55.6532 213.314 54.6359C212.006 53.6186 211.04 52.2261 210.546 50.6446C209.839 48.5539 209.968 46.2707 210.906 44.2729C211.844 42.2752 213.519 40.7179 215.579 39.9271C216.597 39.5795 217.674 39.4402 218.746 39.5177C219.818 39.5951 220.864 39.8877 221.821 40.3779C222.778 40.8681 223.626 41.5459 224.316 42.3709C225.005 43.196 225.521 44.1514 225.833 45.1801C226.357 46.7866 226.4 48.5108 225.958 50.1414C225.516 51.7721 224.608 53.2384 223.345 54.3608L223.337 54.3364Z" fill="#FFD037"/>
<path d="M227.647 18.4431C227.647 18.5569 219.881 21.4762 210.221 24.9484C200.56 28.4207 192.68 31.2098 192.64 31.1285C192.599 31.0472 200.406 28.1035 210.074 24.6232C219.743 21.1428 227.606 18.3374 227.647 18.4431Z" fill="black"/>
<path d="M236.868 19.9393C236.904 20.0098 236.934 20.0833 236.958 20.1588C237.023 20.3215 237.096 20.5329 237.194 20.7931C237.405 21.3867 237.698 22.208 238.064 23.2326L241.186 32.3238C242.487 36.1783 244.04 40.7483 245.764 45.8225C246.578 48.3677 247.537 51.0186 248.432 53.8078C248.91 55.2451 249.117 56.759 249.041 58.2721C248.972 59.059 248.749 59.8245 248.383 60.5246C247.992 61.2223 247.47 61.838 246.846 62.3379C245.59 63.255 244.195 63.966 242.715 64.444L238.527 65.9484L230.599 68.7864L217.173 73.5678L208.106 76.7554L205.667 77.5686L205.016 77.78C204.947 77.811 204.873 77.8302 204.797 77.8369C204.797 77.8369 204.862 77.8369 205 77.7394L205.634 77.4873L208.074 76.5684L217.092 73.2507L230.493 68.3717L238.405 65.5093L242.593 63.9968C244.031 63.5381 245.385 62.8488 246.602 61.9557C247.183 61.4919 247.669 60.9203 248.033 60.2725C248.377 59.625 248.585 58.9137 248.643 58.1826C248.718 56.7248 248.519 55.2658 248.058 53.881C247.179 51.1162 246.252 48.4409 245.415 45.8956C243.723 40.8133 242.162 36.2271 240.926 32.3726C239.69 28.5182 238.649 25.42 237.934 23.2407C237.592 22.1755 237.332 21.3461 237.12 20.7443L236.925 20.0938C236.901 20.0445 236.882 19.9927 236.868 19.9393Z" fill="black"/>
<path d="M213.969 8.72566C213.969 8.72566 213.538 8.51424 212.742 8.18897C211.606 7.75252 210.404 7.5106 209.188 7.47338C207.385 7.41156 205.591 7.75039 203.935 8.46545C201.921 9.35584 200.199 10.796 198.966 12.6207C197.726 14.4402 197.06 16.5904 197.056 18.7927C197.072 20.5977 197.346 22.3911 197.869 24.119C198.292 25.5989 198.731 26.778 199.023 27.5993C199.196 28.0165 199.337 28.446 199.446 28.8841C199.215 28.4941 199.022 28.083 198.869 27.6563C198.535 26.8431 198.056 25.6884 197.584 24.2003C197.005 22.4543 196.69 20.6317 196.649 18.7927C196.627 16.5072 197.309 14.2703 198.601 12.3849C199.876 10.4936 201.668 9.00884 203.764 8.10765C205.472 7.38867 207.322 7.07152 209.172 7.18064C210.414 7.24397 211.635 7.53331 212.774 8.03447C213.079 8.17495 213.372 8.33804 213.652 8.52237C213.768 8.57319 213.875 8.64178 213.969 8.72566Z" fill="black"/>
<path d="M214.343 40.5451C214.473 40.4664 214.609 40.3984 214.75 40.3418C215.157 40.1581 215.579 40.0085 216.01 39.8945C216.696 39.6922 217.403 39.5721 218.116 39.5367C219.087 39.4845 220.059 39.6312 220.971 39.9677C223.052 40.6996 224.963 42.8219 225.907 45.6599C226.359 47.1829 226.359 48.8045 225.907 50.3275C225.405 51.9805 224.506 53.4853 223.288 54.7105L223.337 54.4909C224.418 57.459 225.598 60.6791 226.817 64.0375L226.891 64.2408L226.687 64.314L224.825 64.932L220.759 66.29L220.556 66.3551L220.491 66.1518C219.377 62.7852 218.157 59.6464 217.238 56.5645L217.417 56.7027C215.827 56.5707 214.312 55.974 213.058 54.9869C211.925 54.1137 210.995 53.0037 210.334 51.7343C209.738 50.6085 209.441 49.3485 209.472 48.075C209.51 46.7735 209.835 45.4964 210.424 44.3352C211.013 43.174 211.852 42.1574 212.88 41.3582C213.303 41.0147 213.778 40.7403 214.286 40.5451C213.827 40.8176 213.382 41.1134 212.953 41.4314C211.824 42.3868 210.958 43.6159 210.44 45.0012C209.995 46.0459 209.787 47.176 209.831 48.3106C209.874 49.4452 210.168 50.5561 210.692 51.5635C211.342 52.7847 212.249 53.8501 213.351 54.6861C214.547 55.6243 215.992 56.1899 217.507 56.3124H217.645L217.685 56.4344C218.58 59.4594 219.808 62.6226 220.938 66.0054L220.67 65.8753L224.736 64.5173L226.59 63.8912L226.46 64.1676C225.248 60.8092 224.077 57.581 223.004 54.6129V54.4909L223.101 54.3933C224.283 53.219 225.165 51.7769 225.671 50.1892C226.102 48.7324 226.102 47.1818 225.671 45.7249C224.784 42.9927 222.955 40.9191 220.971 40.1873C220.092 39.8486 219.155 39.6909 218.214 39.7237C217.512 39.7398 216.813 39.8353 216.132 40.0084C214.921 40.3092 214.351 40.5857 214.343 40.5451Z" fill="black"/>
<path d="M189.209 275.34L107.981 274.966C103.29 274.94 98.8014 273.053 95.5005 269.72C92.1995 266.387 90.3564 261.881 90.3759 257.19L91.2378 53.5639C91.2474 51.2399 91.7149 48.9405 92.6137 46.7973C93.5124 44.6541 94.8247 42.709 96.4755 41.0733C98.1264 39.4375 100.083 38.1432 102.235 37.2642C104.386 36.3852 106.69 35.9388 109.014 35.9506L190.233 36.3247C194.924 36.3483 199.414 38.2328 202.716 41.5642C206.018 44.8956 207.864 49.4016 207.846 54.0924L206.984 257.71C206.975 260.035 206.507 262.335 205.609 264.479C204.71 266.623 203.398 268.569 201.748 270.206C200.097 271.843 198.14 273.139 195.989 274.02C193.837 274.901 191.533 275.349 189.209 275.34Z" fill="black"/>
<path d="M190.111 43.3262H174.368C173.854 43.3357 173.348 43.4463 172.877 43.6517C172.406 43.8571 171.98 44.1533 171.624 44.5233C171.267 44.8933 170.987 45.3299 170.799 45.8082C170.612 46.2865 170.52 46.797 170.53 47.3107V50.1649C170.54 50.6782 170.448 51.1883 170.26 51.6661C170.072 52.1439 169.792 52.58 169.436 52.9494C169.079 53.3187 168.653 53.6142 168.182 53.8187C167.712 54.0232 167.205 54.1329 166.692 54.1413L136.003 54.0031C134.965 53.9754 133.98 53.5368 133.265 52.7836C132.55 52.0304 132.163 51.0243 132.189 49.986V47.1318C132.215 46.0949 131.829 45.0899 131.116 44.337C130.403 43.584 129.42 43.1445 128.383 43.1147H122.846L109.062 43.0497C105.784 43.0302 102.631 44.3105 100.295 46.6103C97.9586 48.9102 96.6287 52.0421 96.5965 55.3204L95.7833 254.075C95.7758 255.702 96.0888 257.314 96.7042 258.819C97.3197 260.325 98.2257 261.694 99.3704 262.849C100.515 264.005 101.876 264.923 103.376 265.552C104.876 266.182 106.485 266.509 108.111 266.517L189.168 266.891C190.795 266.898 192.408 266.585 193.915 265.969C195.421 265.354 196.791 264.447 197.947 263.301C199.103 262.156 200.023 260.794 200.652 259.293C201.282 257.793 201.61 256.183 201.617 254.555L202.431 55.8002C202.45 52.5127 201.163 49.3519 198.853 47.0128C196.543 44.6737 193.399 43.3477 190.111 43.3262Z" fill="white"/>
<path d="M179.206 240.373L118.934 240.113C118.308 240.113 117.804 239.43 117.812 238.601L117.877 222.833C117.877 222.02 118.389 221.321 119.016 221.321L179.288 221.597C179.635 221.657 179.945 221.849 180.154 222.132C180.363 222.416 180.455 222.769 180.41 223.118L180.353 238.869C180.353 239.707 179.833 240.382 179.206 240.373Z" fill="#FFD037"/>
<path d="M137.747 234.054C137.331 234.054 136.932 233.987 136.549 233.854C136.171 233.716 135.878 233.54 135.67 233.327L135.902 232.872C136.099 233.063 136.363 233.226 136.693 233.359C137.028 233.487 137.379 233.551 137.747 233.551C138.098 233.551 138.383 233.508 138.601 233.423C138.825 233.332 138.987 233.212 139.088 233.063C139.195 232.914 139.248 232.749 139.248 232.568C139.248 232.35 139.184 232.174 139.056 232.041C138.934 231.908 138.772 231.804 138.569 231.73C138.367 231.65 138.143 231.581 137.898 231.522C137.654 231.464 137.409 231.402 137.164 231.339C136.919 231.269 136.693 231.179 136.485 231.067C136.283 230.955 136.118 230.809 135.99 230.628C135.867 230.441 135.806 230.199 135.806 229.901C135.806 229.624 135.878 229.371 136.022 229.142C136.171 228.908 136.397 228.722 136.701 228.584C137.004 228.44 137.393 228.368 137.867 228.368C138.181 228.368 138.492 228.413 138.801 228.504C139.11 228.589 139.376 228.709 139.599 228.863L139.4 229.334C139.16 229.174 138.905 229.057 138.633 228.983C138.367 228.908 138.109 228.871 137.859 228.871C137.523 228.871 137.246 228.916 137.028 229.007C136.81 229.097 136.647 229.22 136.541 229.374C136.44 229.523 136.389 229.693 136.389 229.885C136.389 230.103 136.45 230.279 136.573 230.412C136.701 230.545 136.866 230.649 137.068 230.724C137.276 230.798 137.502 230.865 137.747 230.923C137.992 230.982 138.234 231.046 138.473 231.115C138.718 231.184 138.942 231.275 139.144 231.386C139.352 231.493 139.517 231.637 139.639 231.818C139.767 231.999 139.831 232.236 139.831 232.528C139.831 232.8 139.756 233.053 139.607 233.287C139.458 233.516 139.229 233.702 138.921 233.846C138.617 233.984 138.226 234.054 137.747 234.054ZM141.119 234.006V228.416H141.709V234.006H141.119ZM143.528 234.006V228.416H144.015L147.872 233.271H147.617V228.416H148.2V234.006H147.713L143.864 229.15H144.119V234.006H143.528ZM152.476 234.054C152.05 234.054 151.656 233.984 151.294 233.846C150.937 233.702 150.626 233.503 150.36 233.247C150.099 232.992 149.894 232.691 149.745 232.345C149.601 231.999 149.529 231.621 149.529 231.211C149.529 230.801 149.601 230.423 149.745 230.077C149.894 229.731 150.102 229.43 150.368 229.174C150.634 228.919 150.945 228.722 151.302 228.584C151.664 228.44 152.058 228.368 152.484 228.368C152.91 228.368 153.298 228.434 153.65 228.568C154.006 228.701 154.31 228.903 154.56 229.174L154.193 229.55C153.959 229.316 153.7 229.148 153.418 229.047C153.136 228.946 152.833 228.895 152.508 228.895C152.162 228.895 151.842 228.953 151.55 229.071C151.262 229.182 151.009 229.345 150.791 229.558C150.578 229.765 150.41 230.01 150.288 230.292C150.171 230.569 150.112 230.875 150.112 231.211C150.112 231.541 150.171 231.847 150.288 232.129C150.41 232.411 150.578 232.659 150.791 232.872C151.009 233.079 151.262 233.242 151.55 233.359C151.842 233.471 152.159 233.527 152.5 233.527C152.819 233.527 153.12 233.479 153.402 233.383C153.69 233.287 153.953 233.125 154.193 232.896L154.528 233.343C154.262 233.577 153.951 233.755 153.594 233.878C153.237 233.995 152.865 234.054 152.476 234.054ZM153.961 233.271V231.211H154.528V233.343L153.961 233.271ZM160.543 234.054C159.829 234.054 159.268 233.849 158.858 233.439C158.448 233.029 158.243 232.422 158.243 231.618V228.416H158.834V231.594C158.834 232.254 158.983 232.741 159.281 233.055C159.579 233.37 160 233.527 160.543 233.527C161.091 233.527 161.514 233.37 161.812 233.055C162.11 232.741 162.259 232.254 162.259 231.594V228.416H162.834V231.618C162.834 232.422 162.629 233.029 162.22 233.439C161.815 233.849 161.256 234.054 160.543 234.054ZM164.615 234.006V228.416H166.707C167.181 228.416 167.588 228.493 167.929 228.647C168.27 228.796 168.531 229.015 168.712 229.302C168.898 229.584 168.991 229.928 168.991 230.332C168.991 230.726 168.898 231.067 168.712 231.354C168.531 231.637 168.27 231.855 167.929 232.009C167.588 232.164 167.181 232.241 166.707 232.241H164.943L165.206 231.961V234.006H164.615ZM165.206 232.009L164.943 231.722H166.691C167.25 231.722 167.674 231.602 167.961 231.362C168.254 231.118 168.4 230.774 168.4 230.332C168.4 229.885 168.254 229.539 167.961 229.294C167.674 229.049 167.25 228.927 166.691 228.927H164.943L165.206 228.647V232.009Z" fill="#E8E8E3"/>
<path d="M130.956 101.753L110.042 101.658L110.024 105.496L130.939 105.591L130.956 101.753Z" fill="#FFD037"/>
<path opacity="0.1" d="M130.956 101.753L110.042 101.658L110.024 105.496L130.939 105.591L130.956 101.753Z" fill="black"/>
<path d="M192.266 125.318C192.43 125.301 192.592 125.263 192.746 125.204C192.971 125.116 193.167 124.967 193.31 124.772C193.454 124.578 193.54 124.347 193.559 124.106C193.559 122.813 193.559 120.927 193.559 118.504C193.559 117.292 193.559 115.934 193.559 114.438C193.559 114.072 193.559 113.69 193.559 113.308C193.612 112.937 193.531 112.559 193.331 112.242C193.219 112.09 193.074 111.967 192.906 111.88C192.738 111.794 192.552 111.748 192.364 111.746H191.095H179.345L111.331 111.494C111.157 111.491 110.985 111.53 110.829 111.608C110.673 111.686 110.539 111.8 110.437 111.941C110.24 112.259 110.165 112.638 110.225 113.007C110.225 113.82 110.225 114.633 110.225 115.446C110.225 117.072 110.225 118.699 110.225 120.325C110.225 121.138 110.225 121.952 110.225 122.765C110.192 123.143 110.192 123.524 110.225 123.903C110.268 124.065 110.347 124.216 110.457 124.343C110.567 124.47 110.705 124.57 110.86 124.635C111.02 124.699 111.191 124.729 111.364 124.724H115.503L133.563 124.822L164.138 125.009L184.752 125.172L190.355 125.237H191.811C192.144 125.237 192.307 125.237 192.307 125.237H191.811H190.355H184.752H164.138L133.563 125.139L115.503 125.066H111.364C111.136 125.075 110.909 125.036 110.697 124.952C110.483 124.861 110.292 124.722 110.14 124.545C109.988 124.369 109.878 124.161 109.819 123.936C109.772 123.722 109.755 123.503 109.77 123.285V122.683C109.77 121.87 109.77 121.057 109.77 120.244C109.77 118.618 109.77 116.991 109.77 115.365C109.77 114.552 109.77 113.738 109.77 112.925C109.754 112.709 109.754 112.491 109.77 112.275C109.8 112.036 109.893 111.809 110.038 111.616C110.179 111.42 110.364 111.26 110.579 111.151C110.795 111.042 111.033 110.987 111.274 110.99L179.288 111.364L191.038 111.445H192.307C192.53 111.446 192.75 111.5 192.948 111.603C193.147 111.706 193.317 111.856 193.445 112.039C193.674 112.393 193.767 112.817 193.705 113.234C193.705 113.617 193.705 113.999 193.705 114.365C193.705 115.845 193.705 117.203 193.705 118.43C193.705 120.87 193.648 122.74 193.632 124.041C193.612 124.292 193.521 124.531 193.37 124.731C193.219 124.931 193.013 125.084 192.778 125.172C192.624 125.267 192.447 125.318 192.266 125.318Z" fill="#E0E0E0"/>
<path d="M154.576 115.576H116.324V119.162H154.576V115.576Z" fill="#FFD037"/>
<path opacity="0.2" d="M154.576 115.576H116.324V119.162H154.576V115.576Z" fill="white"/>
<path d="M130.814 136.767L109.899 136.672L109.882 140.51L130.796 140.605L130.814 136.767Z" fill="#FFD037"/>
<path opacity="0.1" d="M130.814 136.767L109.899 136.672L109.882 140.51L130.796 140.605L130.814 136.767Z" fill="black"/>
<path d="M191.737 160.333C191.902 160.313 192.065 160.283 192.225 160.244C192.452 160.171 192.661 160.051 192.838 159.891C193.015 159.731 193.155 159.535 193.25 159.317C193.378 158.988 193.428 158.635 193.396 158.284C193.396 157.894 193.396 157.471 193.396 156.999C193.396 156.056 193.396 154.982 193.396 153.746V148.583C193.435 148.209 193.352 147.833 193.16 147.509C192.96 147.178 192.644 146.932 192.274 146.818C191.869 146.746 191.457 146.724 191.046 146.753H179.345L111.567 146.501C111.202 146.502 110.851 146.635 110.577 146.876C110.303 147.117 110.126 147.449 110.079 147.81C110.079 148.583 110.079 149.437 110.079 150.25C110.079 151.876 110.079 153.502 110.079 155.129C110.079 155.942 110.079 156.755 110.079 157.568C110.049 157.948 110.065 158.331 110.128 158.707C110.229 159.037 110.438 159.323 110.721 159.52C111.022 159.711 111.375 159.802 111.73 159.78H112.86H115.21L133.205 159.87L163.675 160.057L184.216 160.219L189.802 160.284H191.258H191.746H191.258H189.802H184.216H163.675L133.189 160.252L115.194 160.187H111.656C111.217 160.213 110.78 160.096 110.412 159.853C110.042 159.597 109.772 159.221 109.648 158.788C109.575 158.375 109.553 157.954 109.583 157.536C109.583 156.723 109.583 155.909 109.583 155.096C109.583 153.47 109.583 151.844 109.583 150.217C109.583 149.404 109.583 148.591 109.583 147.778C109.642 147.313 109.869 146.885 110.221 146.576C110.572 146.266 111.025 146.095 111.494 146.095L179.272 146.469L190.973 146.558C191.409 146.531 191.846 146.561 192.274 146.647C192.697 146.786 193.053 147.075 193.274 147.461C193.485 147.819 193.576 148.235 193.535 148.648C193.535 149.03 193.535 149.404 193.535 149.778C193.535 151.25 193.535 152.6 193.535 153.844C193.535 155.088 193.535 156.137 193.535 157.097C193.535 157.56 193.535 157.991 193.535 158.39C193.564 158.753 193.506 159.119 193.364 159.455C193.258 159.679 193.106 159.878 192.916 160.038C192.727 160.198 192.505 160.315 192.266 160.382C192.088 160.397 191.909 160.38 191.737 160.333Z" fill="#E0E0E0"/>
<path d="M130.656 173.301L109.742 173.206L109.724 177.045L130.639 177.139L130.656 173.301Z" fill="#FFD037"/>
<path opacity="0.1" d="M130.656 173.301L109.742 173.206L109.724 177.045L130.639 177.139L130.656 173.301Z" fill="black"/>
<path d="M191.575 196.853C191.739 196.833 191.902 196.803 192.063 196.763C192.289 196.691 192.497 196.572 192.674 196.414C192.85 196.255 192.991 196.061 193.087 195.844C193.215 195.516 193.265 195.162 193.234 194.812C193.234 194.413 193.234 193.998 193.234 193.519C193.234 192.583 193.234 191.502 193.234 190.266V185.102C193.273 184.728 193.19 184.352 192.998 184.029C192.793 183.704 192.479 183.462 192.112 183.346C191.707 183.271 191.294 183.246 190.884 183.273H179.182L111.404 183.021C111.04 183.021 110.688 183.155 110.414 183.395C110.141 183.636 109.964 183.968 109.916 184.33C109.916 185.143 109.916 185.956 109.916 186.769C109.916 188.396 109.916 190.022 109.916 191.648C109.916 192.461 109.916 193.275 109.916 194.088C109.886 194.465 109.902 194.845 109.965 195.218C110.063 195.55 110.272 195.837 110.559 196.031C110.857 196.226 111.212 196.318 111.567 196.292H115.104L133.1 196.389L163.569 196.576L184.11 196.739L189.696 196.804H191.152C191.477 196.804 191.64 196.804 191.64 196.804C191.64 196.804 191.477 196.804 191.152 196.804H189.696H184.11H163.569L133.1 196.714L115.104 196.641H111.567C111.127 196.671 110.689 196.554 110.323 196.308C109.953 196.051 109.683 195.675 109.559 195.243C109.486 194.829 109.464 194.409 109.494 193.99C109.494 193.177 109.494 192.364 109.494 191.551C109.494 189.924 109.494 188.298 109.494 186.672C109.494 185.859 109.494 185.045 109.494 184.192C109.551 183.727 109.776 183.3 110.127 182.99C110.477 182.68 110.929 182.509 111.396 182.508L179.174 182.882L190.876 182.972C191.311 182.945 191.749 182.975 192.177 183.061C192.599 183.199 192.955 183.489 193.177 183.874C193.387 184.233 193.478 184.648 193.437 185.062C193.437 185.444 193.437 185.826 193.437 186.192C193.437 187.664 193.437 189.014 193.437 190.258C193.437 191.502 193.437 192.551 193.437 193.51C193.437 193.974 193.437 194.405 193.437 194.803C193.468 195.167 193.41 195.533 193.266 195.869C193.161 196.093 193.008 196.292 192.819 196.452C192.629 196.612 192.407 196.729 192.169 196.796C191.978 196.861 191.774 196.88 191.575 196.853Z" fill="#E0E0E0"/>
<path d="M153.759 151.605L115.508 151.432L115.492 155.018L153.743 155.191L153.759 151.605Z" fill="#FFD037"/>
<path opacity="0.2" d="M153.759 151.605L115.508 151.432L115.492 155.018L153.743 155.191L153.759 151.605Z" fill="white"/>
<path d="M118.967 190.217C118.943 190.544 118.823 190.857 118.623 191.117C118.423 191.377 118.151 191.572 117.841 191.679C117.531 191.785 117.196 191.799 116.878 191.717C116.561 191.635 116.274 191.462 116.054 191.219C115.834 190.975 115.69 190.673 115.641 190.349C115.591 190.025 115.637 189.693 115.774 189.395C115.911 189.097 116.133 188.846 116.411 188.672C116.689 188.499 117.013 188.411 117.341 188.42C117.794 188.445 118.218 188.648 118.523 188.985C118.827 189.321 118.987 189.764 118.967 190.217Z" fill="#FFD037"/>
<path d="M124.146 190.242C124.162 190.471 124.131 190.701 124.054 190.918C123.978 191.134 123.857 191.333 123.7 191.501C123.544 191.669 123.354 191.803 123.143 191.894C122.933 191.986 122.705 192.033 122.475 192.033C122.246 192.033 122.018 191.986 121.808 191.894C121.597 191.803 121.407 191.669 121.25 191.501C121.094 191.333 120.973 191.134 120.896 190.918C120.82 190.701 120.788 190.471 120.804 190.242C120.788 190.012 120.82 189.782 120.896 189.566C120.973 189.349 121.094 189.15 121.25 188.982C121.407 188.814 121.597 188.68 121.808 188.589C122.018 188.497 122.246 188.45 122.475 188.45C122.705 188.45 122.933 188.497 123.143 188.589C123.354 188.68 123.544 188.814 123.7 188.982C123.857 189.15 123.978 189.349 124.054 189.566C124.131 189.782 124.162 190.012 124.146 190.242Z" fill="#FFD037"/>
<path d="M129.335 190.266C129.311 190.593 129.191 190.906 128.991 191.166C128.791 191.426 128.519 191.621 128.209 191.728C127.899 191.834 127.564 191.847 127.246 191.766C126.929 191.684 126.642 191.511 126.422 191.267C126.202 191.024 126.058 190.722 126.008 190.398C125.959 190.073 126.005 189.742 126.142 189.444C126.279 189.146 126.501 188.895 126.779 188.721C127.057 188.548 127.381 188.46 127.708 188.469C128.161 188.496 128.584 188.7 128.888 189.036C129.192 189.372 129.353 189.813 129.335 190.266Z" fill="#FFD037"/>
<path d="M134.515 190.29C134.491 190.618 134.371 190.93 134.171 191.19C133.971 191.45 133.699 191.645 133.389 191.752C133.079 191.859 132.744 191.872 132.426 191.79C132.109 191.708 131.822 191.535 131.602 191.292C131.382 191.049 131.238 190.746 131.188 190.422C131.139 190.098 131.185 189.766 131.322 189.468C131.459 189.17 131.68 188.919 131.959 188.746C132.237 188.572 132.561 188.485 132.888 188.493C133.341 188.521 133.764 188.724 134.068 189.06C134.372 189.396 134.533 189.838 134.515 190.29Z" fill="#FFD037"/>
<path d="M139.694 190.307C139.672 190.634 139.554 190.948 139.355 191.209C139.155 191.47 138.884 191.667 138.574 191.774C138.263 191.882 137.928 191.897 137.61 191.816C137.292 191.735 137.005 191.562 136.784 191.319C136.563 191.076 136.418 190.774 136.368 190.449C136.318 190.125 136.364 189.793 136.501 189.494C136.637 189.196 136.859 188.944 137.138 188.77C137.416 188.597 137.74 188.509 138.068 188.518C138.519 188.545 138.941 188.747 139.245 189.082C139.549 189.416 139.71 189.855 139.694 190.307Z" fill="#FFD037"/>
<path d="M144.883 190.331C144.86 190.657 144.743 190.969 144.546 191.229C144.349 191.49 144.079 191.686 143.772 191.796C143.464 191.905 143.131 191.922 142.813 191.844C142.496 191.767 142.208 191.598 141.986 191.359C141.763 191.12 141.615 190.821 141.56 190.499C141.505 190.177 141.545 189.846 141.676 189.547C141.807 189.248 142.022 188.993 142.296 188.814C142.569 188.636 142.889 188.541 143.216 188.542C143.674 188.559 144.106 188.757 144.419 189.092C144.731 189.427 144.898 189.873 144.883 190.331Z" fill="#FFD037"/>
<path d="M150.062 190.355C150.078 190.585 150.047 190.815 149.97 191.031C149.894 191.248 149.773 191.446 149.616 191.614C149.46 191.783 149.27 191.917 149.059 192.008C148.849 192.1 148.621 192.147 148.391 192.147C148.162 192.147 147.934 192.1 147.724 192.008C147.513 191.917 147.323 191.783 147.166 191.614C147.01 191.446 146.889 191.248 146.812 191.031C146.736 190.815 146.704 190.585 146.72 190.355C146.704 190.126 146.736 189.896 146.812 189.679C146.889 189.463 147.01 189.264 147.166 189.096C147.323 188.928 147.513 188.794 147.724 188.702C147.934 188.611 148.162 188.564 148.391 188.564C148.621 188.564 148.849 188.611 149.059 188.702C149.27 188.794 149.46 188.928 149.616 189.096C149.773 189.264 149.894 189.463 149.97 189.679C150.047 189.896 150.078 190.126 150.062 190.355Z" fill="#FFD037"/>
<path d="M155.242 190.38C155.22 190.706 155.103 191.018 154.906 191.278C154.708 191.538 154.439 191.735 154.131 191.845C153.823 191.954 153.49 191.971 153.173 191.893C152.856 191.816 152.568 191.647 152.345 191.408C152.123 191.169 151.975 190.87 151.92 190.548C151.865 190.226 151.905 189.895 152.036 189.596C152.166 189.296 152.382 189.042 152.655 188.863C152.929 188.685 153.249 188.59 153.575 188.591C154.033 188.608 154.466 188.806 154.778 189.141C155.091 189.476 155.258 189.922 155.242 190.38Z" fill="#FFD037"/>
<path d="M160.422 190.404C160.4 190.732 160.282 191.045 160.082 191.306C159.883 191.567 159.611 191.764 159.301 191.872C158.991 191.98 158.656 191.994 158.338 191.913C158.02 191.832 157.732 191.659 157.512 191.417C157.291 191.174 157.146 190.871 157.096 190.547C157.045 190.222 157.092 189.89 157.228 189.592C157.365 189.293 157.587 189.041 157.865 188.868C158.144 188.694 158.468 188.606 158.796 188.615C159.247 188.642 159.669 188.845 159.973 189.179C160.277 189.513 160.438 189.953 160.422 190.404Z" fill="#FFD037"/>
<g opacity="0.2">
<path opacity="0.2" d="M118.967 190.217C118.943 190.544 118.823 190.857 118.623 191.117C118.423 191.377 118.151 191.572 117.841 191.679C117.531 191.785 117.196 191.799 116.878 191.717C116.561 191.635 116.274 191.462 116.054 191.219C115.834 190.975 115.69 190.673 115.641 190.349C115.591 190.025 115.637 189.693 115.774 189.395C115.911 189.097 116.133 188.846 116.411 188.672C116.689 188.499 117.013 188.411 117.341 188.42C117.794 188.445 118.218 188.648 118.523 188.985C118.827 189.321 118.987 189.764 118.967 190.217Z" fill="white"/>
<path opacity="0.2" d="M124.146 190.241C124.162 190.471 124.131 190.701 124.054 190.917C123.978 191.134 123.857 191.333 123.7 191.501C123.544 191.669 123.354 191.803 123.143 191.894C122.933 191.986 122.705 192.033 122.475 192.033C122.246 192.033 122.018 191.986 121.808 191.894C121.597 191.803 121.407 191.669 121.25 191.501C121.094 191.333 120.973 191.134 120.896 190.917C120.82 190.701 120.788 190.471 120.804 190.241C120.788 190.012 120.82 189.782 120.896 189.566C120.973 189.349 121.094 189.15 121.25 188.982C121.407 188.814 121.597 188.68 121.808 188.589C122.018 188.497 122.246 188.45 122.475 188.45C122.705 188.45 122.933 188.497 123.143 188.589C123.354 188.68 123.544 188.814 123.7 188.982C123.857 189.15 123.978 189.349 124.054 189.566C124.131 189.782 124.162 190.012 124.146 190.241Z" fill="white"/>
<path opacity="0.2" d="M129.335 190.266C129.311 190.593 129.191 190.906 128.991 191.166C128.791 191.425 128.519 191.621 128.209 191.727C127.899 191.834 127.564 191.847 127.246 191.766C126.929 191.684 126.642 191.511 126.422 191.267C126.202 191.024 126.058 190.722 126.008 190.398C125.959 190.073 126.005 189.742 126.142 189.444C126.279 189.146 126.501 188.894 126.779 188.721C127.057 188.548 127.381 188.46 127.708 188.469C128.161 188.496 128.584 188.7 128.888 189.035C129.192 189.371 129.353 189.813 129.335 190.266Z" fill="white"/>
<path opacity="0.2" d="M134.515 190.29C134.491 190.617 134.371 190.93 134.171 191.19C133.971 191.45 133.699 191.645 133.389 191.752C133.079 191.858 132.744 191.872 132.426 191.79C132.109 191.708 131.822 191.535 131.602 191.292C131.382 191.049 131.238 190.746 131.188 190.422C131.139 190.098 131.185 189.766 131.322 189.468C131.459 189.17 131.68 188.919 131.959 188.746C132.237 188.572 132.561 188.484 132.888 188.493C133.341 188.52 133.764 188.724 134.068 189.06C134.372 189.396 134.533 189.838 134.515 190.29Z" fill="white"/>
<path opacity="0.2" d="M139.694 190.306C139.672 190.634 139.554 190.948 139.354 191.209C139.155 191.47 138.883 191.666 138.573 191.774C138.263 191.882 137.928 191.896 137.61 191.815C137.292 191.734 137.004 191.562 136.784 191.319C136.563 191.076 136.418 190.773 136.368 190.449C136.317 190.124 136.363 189.792 136.5 189.494C136.637 189.195 136.859 188.944 137.137 188.77C137.416 188.597 137.74 188.509 138.068 188.517C138.519 188.545 138.941 188.747 139.245 189.081C139.549 189.415 139.71 189.855 139.694 190.306Z" fill="white"/>
<path opacity="0.2" d="M144.883 190.331C144.86 190.657 144.743 190.969 144.546 191.229C144.349 191.489 144.079 191.686 143.772 191.796C143.464 191.905 143.131 191.922 142.813 191.844C142.496 191.767 142.208 191.598 141.986 191.359C141.763 191.12 141.615 190.821 141.56 190.499C141.505 190.177 141.545 189.846 141.676 189.547C141.807 189.247 142.022 188.993 142.296 188.814C142.569 188.636 142.889 188.541 143.216 188.542C143.674 188.559 144.106 188.757 144.419 189.092C144.731 189.427 144.898 189.873 144.883 190.331Z" fill="white"/>
<path opacity="0.2" d="M150.062 190.355C150.078 190.584 150.047 190.815 149.97 191.031C149.894 191.248 149.773 191.446 149.616 191.614C149.46 191.782 149.27 191.916 149.059 192.008C148.849 192.1 148.621 192.147 148.391 192.147C148.162 192.147 147.934 192.1 147.724 192.008C147.513 191.916 147.323 191.782 147.166 191.614C147.01 191.446 146.889 191.248 146.812 191.031C146.736 190.815 146.704 190.584 146.72 190.355C146.704 190.126 146.736 189.896 146.812 189.679C146.889 189.463 147.01 189.264 147.166 189.096C147.323 188.928 147.513 188.794 147.724 188.702C147.934 188.611 148.162 188.563 148.391 188.563C148.621 188.563 148.849 188.611 149.059 188.702C149.27 188.794 149.46 188.928 149.616 189.096C149.773 189.264 149.894 189.463 149.97 189.679C150.047 189.896 150.078 190.126 150.062 190.355Z" fill="white"/>
<path opacity="0.2" d="M155.242 190.38C155.22 190.706 155.103 191.018 154.906 191.278C154.708 191.538 154.439 191.735 154.131 191.844C153.823 191.954 153.49 191.971 153.173 191.893C152.856 191.815 152.568 191.647 152.345 191.408C152.123 191.169 151.975 190.87 151.92 190.548C151.865 190.226 151.905 189.895 152.036 189.596C152.166 189.296 152.382 189.042 152.655 188.863C152.929 188.685 153.249 188.59 153.575 188.591C154.033 188.608 154.466 188.805 154.778 189.141C155.091 189.476 155.258 189.922 155.242 190.38Z" fill="white"/>
<path opacity="0.2" d="M160.422 190.404C160.4 190.732 160.282 191.045 160.082 191.306C159.883 191.567 159.611 191.764 159.301 191.872C158.991 191.98 158.656 191.994 158.338 191.913C158.02 191.832 157.732 191.659 157.512 191.416C157.291 191.173 157.146 190.871 157.096 190.546C157.045 190.222 157.092 189.89 157.228 189.591C157.365 189.293 157.587 189.041 157.865 188.868C158.144 188.694 158.468 188.606 158.796 188.615C159.247 188.642 159.669 188.845 159.973 189.179C160.277 189.513 160.438 189.953 160.422 190.404Z" fill="white"/>
</g>
<path d="M153.063 73.0151C153.628 72.7664 154.107 72.357 154.441 71.8379C154.775 71.3189 154.949 70.713 154.941 70.0959C154.963 69.6946 154.902 69.2934 154.763 68.9164C154.624 68.5395 154.409 68.1948 154.133 67.9033C153.856 67.6119 153.523 67.3798 153.154 67.2212C152.785 67.0626 152.387 66.9808 151.986 66.9808C151.584 66.9808 151.186 67.0626 150.817 67.2212C150.448 67.3798 150.115 67.6119 149.838 67.9033C149.562 68.1948 149.348 68.5395 149.209 68.9164C149.07 69.2934 149.009 69.6946 149.03 70.0959C149.017 70.7192 149.19 71.3323 149.526 71.8577C149.861 72.383 150.345 72.7971 150.916 73.0477C146.363 73.7307 146.566 78.6748 146.566 78.6748L157.332 78.7236C157.332 78.7236 157.584 73.6901 153.063 73.0151Z" fill="#FFD037"/>
<path opacity="0.1" d="M153.063 73.0151C153.628 72.7664 154.107 72.357 154.441 71.8379C154.775 71.3189 154.949 70.713 154.941 70.0959C154.963 69.6946 154.902 69.2934 154.763 68.9164C154.624 68.5395 154.409 68.1948 154.133 67.9033C153.856 67.6119 153.523 67.3798 153.154 67.2212C152.785 67.0626 152.387 66.9808 151.986 66.9808C151.584 66.9808 151.186 67.0626 150.817 67.2212C150.448 67.3798 150.115 67.6119 149.838 67.9033C149.562 68.1948 149.348 68.5395 149.209 68.9164C149.07 69.2934 149.009 69.6946 149.03 70.0959C149.017 70.7192 149.19 71.3323 149.526 71.8577C149.861 72.383 150.345 72.7971 150.916 73.0477C146.363 73.7307 146.566 78.6748 146.566 78.6748L157.332 78.7236C157.332 78.7236 157.584 73.6901 153.063 73.0151Z" fill="black"/>
<path d="M170.558 81.9123L132.185 81.7382L132.164 86.3244L170.537 86.4985L170.558 81.9123Z" fill="#FFD037"/>
<path opacity="0.2" d="M170.558 81.9123L132.185 81.7382L132.164 86.3244L170.537 86.4985L170.558 81.9123Z" fill="white"/>
<path d="M29.4855 105.68H29.1033L27.9974 105.761C27.3989 105.797 26.8038 105.876 26.2166 105.997C25.8362 106.051 25.459 106.124 25.0863 106.217L23.8259 106.566C21.6806 107.224 19.6565 108.227 17.8328 109.534C15.4233 111.283 13.4113 113.523 11.9292 116.105C11.0581 117.593 10.3648 119.179 9.86374 120.829C9.33721 122.623 9.03405 124.475 8.96113 126.343C8.91267 127.324 8.92896 128.307 9.00992 129.286C9.00992 129.782 9.14816 130.278 9.21321 130.783C9.26793 131.291 9.3631 131.794 9.49782 132.287C10.229 135.55 11.7127 138.597 13.8305 141.185C15.9482 143.773 18.6415 145.83 21.6954 147.192C23.9056 148.146 26.2747 148.678 28.6805 148.762C31.1653 148.898 33.6526 148.542 35.999 147.713L36.7146 147.444H36.8122L36.8935 147.493L47.1476 152.697L46.8467 152.958C45.7489 149.559 44.6918 146.265 43.6672 143.102V142.98L43.7567 142.891C46.2441 140.385 48.0907 137.317 49.1398 133.946C50.09 130.864 50.3674 127.614 49.953 124.415C49.5845 121.573 48.6705 118.828 47.2614 116.332C46.0468 114.188 44.4799 112.264 42.6264 110.64C41.0972 109.355 39.4046 108.278 37.5928 107.436C36.2219 106.845 34.7942 106.396 33.3318 106.095L31.7055 105.826L30.5264 105.737L29.8108 105.688H29.5668C29.6479 105.679 29.7297 105.679 29.8108 105.688H30.5345L31.7136 105.737L33.34 105.973C34.8205 106.252 36.2677 106.685 37.6579 107.266C39.5008 108.097 41.2239 109.172 42.7809 110.461C44.6684 112.078 46.2686 114.003 47.5135 116.154C48.9626 118.676 49.9046 121.458 50.2864 124.342C50.7351 127.59 50.4772 130.896 49.5302 134.035C48.4742 137.476 46.5991 140.61 44.0657 143.167L44.1145 142.956C45.1391 146.119 46.2043 149.412 47.3102 152.803L47.4647 153.299L47.0012 153.063L36.7471 147.867H36.926L36.1942 148.136C33.8026 148.977 31.2693 149.342 28.7374 149.209C26.2798 149.115 23.8612 148.564 21.6059 147.583C17.304 145.74 13.7249 142.538 11.4169 138.467C10.3548 136.587 9.5792 134.559 9.11563 132.45C8.98868 131.944 8.89363 131.43 8.83102 130.913C8.76597 130.4 8.66026 129.896 8.63586 129.392C8.41578 126.499 8.72159 123.589 9.53848 120.805C10.052 119.132 10.7646 117.527 11.6609 116.023C13.1783 113.418 15.2322 111.164 17.6864 109.412C19.5402 108.102 21.5982 107.107 23.7771 106.469L25.0538 106.143C25.4295 106.056 25.8095 105.988 26.1922 105.94C26.7855 105.83 27.3862 105.765 27.9893 105.745L29.1033 105.704C29.23 105.687 29.3577 105.679 29.4855 105.68Z" fill="#FFD037"/>
<path d="M34.1205 124.643H32.6162L29.3635 120.073V117.073C29.3635 117.073 27.0378 116.926 27.3143 120.854C27.5908 124.781 27.3143 123.781 27.3143 123.781C27.3143 123.781 22.3784 123.781 21.9718 124.228C21.5652 124.676 21.5408 129.441 21.4839 132.1C21.4527 132.741 21.6366 133.374 22.0064 133.898C22.3762 134.423 22.9107 134.809 23.5249 134.995C23.6971 135.042 23.8748 135.067 24.0535 135.068C25.2895 135.068 31.5753 134.068 31.5753 134.068H34.1693L34.1205 124.643Z" fill="#FFD037"/>
<path d="M38.4222 123.838L37.4952 134.116H34.9255V124.049L38.4222 123.838Z" fill="#FFD037"/>
</svg>
