<svg width="18" height="17" viewBox="0 0 18 17" fill="none" xmlns="http://www.w3.org/2000/svg">
<path d="M6.48413 11.586C6.48413 8.68551 6.48413 5.79733 6.48413 2.89279C6.65595 2.86824 6.82368 2.8437 6.9914 2.82325C7.8014 2.73325 8.52958 2.37325 9.2864 2.11552C10.9759 1.54279 12.6532 0.941428 14.3387 0.356429C14.9809 0.131429 15.5128 0.511883 15.5128 1.19916C15.5128 2.25052 15.5169 3.29779 15.5087 4.34915C15.5087 4.47597 15.5373 4.53324 15.6723 4.57006C17.0387 4.9587 17.9959 6.23506 18 7.6587C18.0041 9.09051 17.0468 10.371 15.6641 10.7637C15.5414 10.8005 15.5046 10.8496 15.5046 10.9723C15.5087 11.7373 15.5087 12.4982 15.5087 13.2632C15.5087 13.9832 14.9769 14.3514 14.2937 14.1101C12.0846 13.3369 9.87549 12.5637 7.66231 11.7987C7.38822 11.7046 7.08958 11.6841 6.80322 11.631C6.70095 11.6146 6.59459 11.6023 6.48413 11.586ZM15.525 6.30052C15.525 7.24961 15.525 8.15779 15.525 9.0987C16.0241 8.75097 16.3596 8.32961 16.3596 7.72824C16.3596 7.11461 16.065 6.64824 15.525 6.30052Z" fill="#FFD037"/>
<path d="M4.89681 11.3937C4.38136 11.3323 3.88227 11.2792 3.38318 11.2178C2.96182 11.1687 2.54454 11.1155 2.12727 11.0664C0.944999 10.9232 0.0286363 9.93324 0.0122727 8.7387C-0.00409091 7.74461 -0.00409091 6.74643 0.0122727 5.75234C0.0286363 4.55779 0.940908 3.5637 2.12318 3.41643C3.02318 3.30597 3.92318 3.19961 4.82318 3.09325C4.84363 3.08916 4.86409 3.09325 4.90091 3.09734C4.89681 5.85461 4.89681 8.60779 4.89681 11.3937Z" fill="#FFD037"/>
<path d="M7.20005 13.3655C7.32687 14.1264 7.45369 14.8751 7.57642 15.6278C7.60096 15.775 7.62142 15.9305 7.59687 16.0737C7.53142 16.4419 7.21642 16.6955 6.8196 16.6996C6.07505 16.7078 5.3346 16.716 4.59006 16.6955C3.89051 16.675 3.26869 16.1719 3.08869 15.4805C2.85551 14.5928 2.65097 13.6969 2.42188 12.7682C4.02142 12.9687 5.6046 13.1691 7.20005 13.3655Z" fill="#FFD037"/>
</svg>
