<svg width="18" height="19" viewBox="0 0 18 19" fill="none" xmlns="http://www.w3.org/2000/svg">
<path d="M14.375 9.74125V8.125H13.125V10C13.125 10.1657 13.1909 10.3247 13.3081 10.4419L15 12.1337V13.125H1.25V12.1337L2.94187 10.4419C3.05909 10.3247 3.12496 10.1657 3.125 10V7.5C3.12326 6.62175 3.35331 5.75858 3.79193 4.9977C4.23055 4.23681 4.86219 3.60515 5.62306 3.1665C6.38393 2.72786 7.24709 2.49778 8.12534 2.49949C9.00359 2.5012 9.86584 2.73465 10.625 3.17625V1.77937C10.0301 1.51595 9.39728 1.34805 8.75 1.28188V0H7.5V1.28125C5.95911 1.43808 4.5311 2.1607 3.49211 3.30936C2.45311 4.45803 1.87694 5.95115 1.875 7.5V9.74125L0.183125 11.4331C0.0659066 11.5503 3.53984e-05 11.7093 0 11.875V13.75C0 13.9158 0.065848 14.0747 0.183058 14.1919C0.300268 14.3092 0.45924 14.375 0.625 14.375H5V15C5 15.8288 5.32924 16.6237 5.91529 17.2097C6.50134 17.7958 7.2962 18.125 8.125 18.125C8.9538 18.125 9.74866 17.7958 10.3347 17.2097C10.9208 16.6237 11.25 15.8288 11.25 15V14.375H15.625C15.7908 14.375 15.9497 14.3092 16.0669 14.1919C16.1842 14.0747 16.25 13.9158 16.25 13.75V11.875C16.25 11.7093 16.1841 11.5503 16.0669 11.4331L14.375 9.74125ZM10 15C10 15.4973 9.80246 15.9742 9.45083 16.3258C9.09919 16.6775 8.62228 16.875 8.125 16.875C7.62772 16.875 7.15081 16.6775 6.79917 16.3258C6.44754 15.9742 6.25 15.4973 6.25 15V14.375H10V15Z" fill="black"/>
<path d="M14.75 6.875C16.1307 6.875 17.25 5.75571 17.25 4.375C17.25 2.99429 16.1307 1.875 14.75 1.875C13.3693 1.875 12.25 2.99429 12.25 4.375C12.25 5.75571 13.3693 6.875 14.75 6.875Z" fill="black"/>
</svg>
