<svg width="169" height="91" viewBox="0 0 169 91" fill="none" xmlns="http://www.w3.org/2000/svg">
<path d="M37.646 33.727C38.33 33.727 38.921 33.856 39.419 34.114C39.923 34.366 40.307 34.729 40.571 35.203C40.841 35.677 40.976 36.235 40.976 36.877C40.976 37.519 40.841 38.077 40.571 38.551C40.307 39.019 39.923 39.379 39.419 39.631C38.921 39.877 38.33 40 37.646 40H35.693V33.727H37.646ZM37.646 39.325C38.456 39.325 39.074 39.112 39.5 38.686C39.926 38.254 40.139 37.651 40.139 36.877C40.139 36.097 39.923 35.488 39.491 35.05C39.065 34.612 38.45 34.393 37.646 34.393H36.512V39.325H37.646ZM45.8453 34.393V36.49H48.1313V37.165H45.8453V39.325H48.4013V40H45.0263V33.718H48.4013V34.393H45.8453ZM54.5995 40.063C54.1855 40.063 53.8135 39.991 53.4835 39.847C53.1595 39.697 52.9045 39.493 52.7185 39.235C52.5325 38.971 52.4365 38.668 52.4305 38.326H53.3035C53.3335 38.62 53.4535 38.869 53.6635 39.073C53.8795 39.271 54.1915 39.37 54.5995 39.37C54.9895 39.37 55.2955 39.274 55.5175 39.082C55.7455 38.884 55.8595 38.632 55.8595 38.326C55.8595 38.086 55.7935 37.891 55.6615 37.741C55.5295 37.591 55.3645 37.477 55.1665 37.399C54.9685 37.321 54.7015 37.237 54.3655 37.147C53.9515 37.039 53.6185 36.931 53.3665 36.823C53.1205 36.715 52.9075 36.547 52.7275 36.319C52.5535 36.085 52.4665 35.773 52.4665 35.383C52.4665 35.041 52.5535 34.738 52.7275 34.474C52.9015 34.21 53.1445 34.006 53.4565 33.862C53.7745 33.718 54.1375 33.646 54.5455 33.646C55.1335 33.646 55.6135 33.793 55.9855 34.087C56.3635 34.381 56.5765 34.771 56.6245 35.257H55.7245C55.6945 35.017 55.5685 34.807 55.3465 34.627C55.1245 34.441 54.8305 34.348 54.4645 34.348C54.1225 34.348 53.8435 34.438 53.6275 34.618C53.4115 34.792 53.3035 35.038 53.3035 35.356C53.3035 35.584 53.3665 35.77 53.4925 35.914C53.6245 36.058 53.7835 36.169 53.9695 36.247C54.1615 36.319 54.4285 36.403 54.7705 36.499C55.1845 36.613 55.5175 36.727 55.7695 36.841C56.0215 36.949 56.2375 37.12 56.4175 37.354C56.5975 37.582 56.6875 37.894 56.6875 38.29C56.6875 38.596 56.6065 38.884 56.4445 39.154C56.2825 39.424 56.0425 39.643 55.7245 39.811C55.4065 39.979 55.0315 40.063 54.5995 40.063ZM64.7238 33.727V34.393H63.0138V40H62.1948V34.393H60.4758V33.727H64.7238ZM69.5029 33.727V37.696C69.5029 38.254 69.6379 38.668 69.9079 38.938C70.1839 39.208 70.5649 39.343 71.0509 39.343C71.5309 39.343 71.9059 39.208 72.1759 38.938C72.4519 38.668 72.5899 38.254 72.5899 37.696V33.727H73.4089V37.687C73.4089 38.209 73.3039 38.65 73.0939 39.01C72.8839 39.364 72.5989 39.628 72.2389 39.802C71.8849 39.976 71.4859 40.063 71.0419 40.063C70.5979 40.063 70.1959 39.976 69.8359 39.802C69.4819 39.628 69.1999 39.364 68.9899 39.01C68.7859 38.65 68.6839 38.209 68.6839 37.687V33.727H69.5029ZM80.8861 36.769C81.1141 36.805 81.3211 36.898 81.5071 37.048C81.6991 37.198 81.8491 37.384 81.9571 37.606C82.0711 37.828 82.1281 38.065 82.1281 38.317C82.1281 38.635 82.0471 38.923 81.8851 39.181C81.7231 39.433 81.4861 39.634 81.1741 39.784C80.8681 39.928 80.5051 40 80.0851 40H77.7451V33.727H79.9951C80.4211 33.727 80.7841 33.799 81.0841 33.943C81.3841 34.081 81.6091 34.27 81.7591 34.51C81.9091 34.75 81.9841 35.02 81.9841 35.32C81.9841 35.692 81.8821 36.001 81.6781 36.247C81.4801 36.487 81.2161 36.661 80.8861 36.769ZM78.5641 36.436H79.9411C80.3251 36.436 80.6221 36.346 80.8321 36.166C81.0421 35.986 81.1471 35.737 81.1471 35.419C81.1471 35.101 81.0421 34.852 80.8321 34.672C80.6221 34.492 80.3191 34.402 79.9231 34.402H78.5641V36.436ZM80.0131 39.325C80.4211 39.325 80.7391 39.229 80.9671 39.037C81.1951 38.845 81.3091 38.578 81.3091 38.236C81.3091 37.888 81.1891 37.615 80.9491 37.417C80.7091 37.213 80.3881 37.111 79.9861 37.111H78.5641V39.325H80.0131ZM90.0957 33.727V34.393H88.3857V40H87.5667V34.393H85.8477V33.727H90.0957ZM97.7818 38.605H95.0458L94.5418 40H93.6778L95.9458 33.763H96.8908L99.1498 40H98.2858L97.7818 38.605ZM97.5478 37.939L96.4138 34.771L95.2798 37.939H97.5478ZM106.411 40L104.917 37.435H103.927V40H103.108V33.727H105.133C105.607 33.727 106.006 33.808 106.33 33.97C106.66 34.132 106.906 34.351 107.068 34.627C107.23 34.903 107.311 35.218 107.311 35.572C107.311 36.004 107.185 36.385 106.933 36.715C106.687 37.045 106.315 37.264 105.817 37.372L107.392 40H106.411ZM103.927 36.778H105.133C105.577 36.778 105.91 36.67 106.132 36.454C106.354 36.232 106.465 35.938 106.465 35.572C106.465 35.2 106.354 34.912 106.132 34.708C105.916 34.504 105.583 34.402 105.133 34.402H103.927V36.778ZM120.631 38.605H117.895L117.391 40H116.527L118.795 33.763H119.74L121.999 40H121.135L120.631 38.605ZM120.397 37.939L119.263 34.771L118.129 37.939H120.397ZM130.152 35.563C130.152 36.085 129.972 36.52 129.612 36.868C129.258 37.21 128.715 37.381 127.983 37.381H126.777V40H125.958V33.727H127.983C128.691 33.727 129.228 33.898 129.594 34.24C129.966 34.582 130.152 35.023 130.152 35.563ZM127.983 36.706C128.439 36.706 128.775 36.607 128.991 36.409C129.207 36.211 129.315 35.929 129.315 35.563C129.315 34.789 128.871 34.402 127.983 34.402H126.777V36.706H127.983ZM138.334 35.563C138.334 36.085 138.154 36.52 137.794 36.868C137.44 37.21 136.897 37.381 136.165 37.381H134.959V40H134.14V33.727H136.165C136.873 33.727 137.41 33.898 137.776 34.24C138.148 34.582 138.334 35.023 138.334 35.563ZM136.165 36.706C136.621 36.706 136.957 36.607 137.173 36.409C137.389 36.211 137.497 35.929 137.497 35.563C137.497 34.789 137.053 34.402 136.165 34.402H134.959V36.706H136.165Z" fill="#333333"/>
<path d="M14.8743 67.3388L25.6481 35.9442C26.266 34.2451 26.6521 33.3956 26.8066 33.3956C27.1155 33.3956 27.6561 34.4575 28.4284 36.5814L40.9978 69.9454C41.4226 71.1811 42.388 71.7989 43.894 71.7989C44.7822 71.7989 45.4386 71.4514 45.8634 70.7563C46.0179 70.486 46.1723 70.2157 46.3268 69.9454C46.4813 69.6364 46.5971 69.482 46.6744 69.482C47.0219 69.482 47.1957 69.7137 47.1957 70.177C47.1957 70.6404 46.5971 71.4707 45.4 72.6678C44.2029 73.8648 42.5425 74.4634 40.4186 74.4634C37.7541 74.4634 35.9778 73.2856 35.0896 70.9301L31.5563 61.4885H18.0601L15.6853 68.3814C14.8743 70.737 13.8703 72.3781 12.6732 73.3049C11.5148 74.1931 10.0667 74.6372 8.32897 74.6372C6.01202 74.6372 4.15847 73.7683 2.76831 72.0306C1.37814 70.2929 0.683058 68.42 0.683058 66.412C0.683058 64.3654 1.20437 62.7242 2.24699 61.4885C3.251 60.2528 4.56394 59.635 6.1858 59.635C6.95811 59.635 7.76904 59.8667 8.61858 60.33C9.8929 61.0251 10.5301 61.7588 10.5301 62.5311C10.5301 62.8401 10.4335 62.9945 10.2404 62.9945C10.086 62.9945 9.81567 62.8014 9.42951 62.4153C8.30966 61.2954 7.13188 60.7355 5.89618 60.7355C4.66047 60.7355 3.67577 61.2761 2.94208 62.3574C2.20838 63.4386 1.84153 64.8674 1.84153 66.6437C1.84153 68.3814 2.498 69.9647 3.81093 71.3934C5.12386 72.8222 6.61057 73.5366 8.27104 73.5366C9.93152 73.5366 11.2251 73.1118 12.1519 72.2623C13.1173 71.3741 14.0248 69.733 14.8743 67.3388ZM24.5476 42.6054L18.4077 60.388H31.1508L24.5476 42.6054ZM60.7914 74.5792C58.0111 74.5792 55.5397 73.8069 53.3772 72.2623C51.2533 70.6791 50.1914 68.4973 50.1914 65.7169C50.1914 64.0951 50.5776 62.6856 51.3499 61.4885C52.1608 60.2914 53.1841 59.4033 54.4198 58.824C56.6981 57.6656 58.9185 57.0863 61.081 57.0863C63.2435 57.0863 65.6956 57.6656 68.4373 58.824C68.3987 54.3446 67.8388 51.3712 66.7575 49.9038C65.7149 48.3978 64.093 47.6448 61.892 47.6448C59.6909 47.6448 57.7794 48.0503 56.1575 48.8612C54.5743 49.6721 53.7827 50.7534 53.7827 52.1049C53.7827 52.5683 53.5703 52.8 53.1455 52.8C52.7593 52.8 52.5663 52.5876 52.5663 52.1628C52.5663 50.541 53.4544 49.2087 55.2307 48.1661C57.0457 47.0849 59.7102 46.5442 63.2242 46.5442C70.5612 46.5442 74.2297 50.8692 74.2297 59.5191V74H68.4373V69.424C68.167 70.9301 67.2981 72.1658 65.8308 73.1311C64.3634 74.0965 62.6836 74.5792 60.7914 74.5792ZM65.8887 63.7475C67.2788 64.7129 68.1284 66.0452 68.4373 67.7443V59.8667C65.657 58.7468 63.3787 58.1869 61.6023 58.1869C59.8646 58.1869 58.4938 58.9206 57.4898 60.388C56.4858 61.8554 55.9837 63.651 55.9837 65.7749C55.9837 67.8987 56.3892 69.7137 57.2001 71.2197C58.0497 72.6871 59.3047 73.4208 60.9652 73.4208C62.6643 73.4208 64.151 72.996 65.4253 72.1464C66.6996 71.2583 67.3368 70.2157 67.3368 69.0186C67.3368 66.9333 66.6417 65.5045 65.2515 64.7322C64.6723 64.3847 64.3827 64.0565 64.3827 63.7475C64.3827 63.4386 64.5178 63.2841 64.7881 63.2841C65.0584 63.2841 65.4253 63.4386 65.8887 63.7475ZM99.2001 74.1738C95.4158 74.1738 92.7127 72.8029 91.0908 70.0612C90.2027 68.5938 89.6814 67.2229 89.5269 65.9486C89.3338 64.404 89.2373 62.0871 89.2373 58.9978C89.2373 55.8699 89.0635 53.2441 88.716 51.1202C88.4071 48.9577 87.5961 47.8765 86.2832 47.8765C84.6613 47.8765 83.387 48.4943 82.4602 49.73C81.5721 50.9271 81.128 52.1435 81.128 53.3792C81.128 56.314 82.2479 57.7814 84.4876 57.7814C85.0668 57.7814 85.6074 57.6463 86.1094 57.3759C86.6114 57.1056 86.8817 56.9705 86.9204 56.9705C87.1907 56.9705 87.3258 57.2022 87.3258 57.6656C87.3258 58.0903 86.9397 58.4186 86.1673 58.6503C85.4336 58.8433 84.7386 58.9399 84.0821 58.9399C82.885 58.9399 81.9003 58.4186 81.128 57.3759C80.3557 56.2947 79.9695 55.0976 79.9695 53.7847C79.9695 51.6608 80.7032 49.9424 82.1706 48.6295C83.638 47.2779 85.6074 46.6022 88.0788 46.6022C89.3145 46.6022 90.3571 46.9497 91.2067 47.6448C92.0949 48.3399 92.7513 49.1701 93.1761 50.1355C93.6395 51.0623 94.0063 52.298 94.2766 53.8426C94.5856 55.812 94.74 58.631 94.74 62.2994C94.74 65.9679 95.0296 68.671 95.6089 70.4087C96.1881 72.1464 97.5204 73.0153 99.6056 73.0153C103.081 73.0153 105.919 71.3934 108.12 68.1497C110.36 64.8674 111.48 61.083 111.48 56.7967C111.48 54.1708 110.997 52.0084 110.032 50.3093C109.105 48.6102 107.657 47.7606 105.688 47.7606C104.336 47.7606 103.235 48.2433 102.386 49.2087C101.536 50.1741 101.112 51.2554 101.112 52.4524C101.112 53.6495 101.382 54.6149 101.923 55.3486C102.502 56.0437 103.216 56.3912 104.066 56.3912C104.413 56.3912 104.838 56.314 105.34 56.1595C105.881 56.0051 106.19 55.9279 106.267 55.9279C106.576 55.9279 106.73 56.1016 106.73 56.4492C106.73 57.1056 106.132 57.4725 104.935 57.5497H104.297C102.907 57.5497 101.826 57.0863 101.054 56.1595C100.32 55.1942 99.9531 53.9005 99.9531 52.2787C99.9531 50.6568 100.532 49.3246 101.691 48.2819C102.849 47.2007 104.239 46.6601 105.861 46.6601C107.483 46.6601 108.758 47.0269 109.684 47.7606C110.611 48.4943 111.287 49.5563 111.712 50.9464C112.445 53.3406 112.812 56.4105 112.812 60.1563V78.6339C112.812 81.7618 111.634 84.1752 109.279 85.8743C106.923 87.612 104.124 88.4809 100.88 88.4809C97.6362 88.4809 94.8945 87.7279 92.6548 86.2219C90.4537 84.7545 89.3531 82.7271 89.3531 80.1399C89.3531 78.7111 89.5848 77.6878 90.0482 77.0699C90.2027 76.8383 90.4344 76.7224 90.7433 76.7224C91.0522 76.7224 91.2067 76.9155 91.2067 77.3016C91.2067 77.4175 91.0908 77.7071 90.8592 78.1705C90.6275 78.6339 90.5116 79.271 90.5116 80.082C90.5116 82.0514 91.4191 83.7312 93.234 85.1213C95.049 86.5501 97.057 87.2645 99.2581 87.2645C101.459 87.2645 103.293 86.4149 104.761 84.7159C106.267 83.0168 107.02 81.0281 107.02 78.7497V71.741C104.935 73.3628 102.328 74.1738 99.2001 74.1738ZM138.224 65.3694C138.224 64.4426 137.973 63.5545 137.471 62.7049C137.008 61.8167 136.332 61.3727 135.444 61.3727C134.594 61.3727 133.919 61.4885 133.417 61.7202C132.953 61.9133 132.683 62.0098 132.606 62.0098C132.374 62.0098 132.258 61.8554 132.258 61.5464C132.258 61.2375 132.471 60.9479 132.895 60.6776C133.359 60.3687 134.15 60.2142 135.27 60.2142C136.429 60.2142 137.375 60.6969 138.108 61.6623C138.881 62.6277 139.306 63.6896 139.383 64.8481V47.1814H145.117V74H139.383V65.5432C139.228 67.976 138.031 70.0998 135.792 71.9148C133.552 73.6911 131.216 74.5792 128.783 74.5792C126.234 74.5792 124.342 73.7104 123.106 71.9727C121.909 70.1964 121.311 66.4506 121.311 60.7355V47.1814H127.103V59.2295C127.103 63.7861 127.335 67.1843 127.798 69.424C128.3 71.6638 129.227 72.7836 130.578 72.7836C132.278 72.7836 133.977 71.992 135.676 70.4087C137.375 68.8255 138.224 67.1457 138.224 65.3694Z" fill="#FFD037"/>
<path d="M14.8743 67.3388L15.804 67.6687L15.8073 67.659L14.8743 67.3388ZM25.6481 35.9442L24.7211 35.6071L24.7181 35.6156L24.7151 35.6241L25.6481 35.9442ZM28.4284 36.5814L27.5014 36.9185L27.5054 36.9291L28.4284 36.5814ZM40.9978 69.9454L41.9306 69.6247L41.926 69.6111L41.9209 69.5976L40.9978 69.9454ZM45.8634 70.7563L46.7051 71.2706L46.7126 71.2583L46.7198 71.2457L45.8634 70.7563ZM46.3268 69.9454L47.1832 70.4347L47.1968 70.411L47.209 70.3865L46.3268 69.9454ZM45.4 72.6678L46.0975 73.3652V73.3652L45.4 72.6678ZM35.0896 70.9301L34.1658 71.2758L34.1667 71.278L35.0896 70.9301ZM31.5563 61.4885L32.4801 61.1428L32.2404 60.5021H31.5563V61.4885ZM18.0601 61.4885V60.5021H17.3567L17.1275 61.1672L18.0601 61.4885ZM15.6853 68.3814L14.7527 68.0601L14.7526 68.0603L15.6853 68.3814ZM12.6732 73.3049L13.2734 74.0877L13.2771 74.0849L12.6732 73.3049ZM2.76831 72.0306L3.53853 71.4144L2.76831 72.0306ZM2.24699 61.4885L3.00087 62.1246L3.00677 62.1176L3.01253 62.1105L2.24699 61.4885ZM8.61858 60.33L9.09091 59.4641L8.61858 60.33ZM9.42951 62.4153L8.73204 63.1128H8.73204L9.42951 62.4153ZM2.94208 62.3574L3.75828 62.9112H3.75828L2.94208 62.3574ZM3.81093 71.3934L4.53722 70.726L3.81093 71.3934ZM12.1519 72.2623L12.8184 72.9894L12.8197 72.9882L12.1519 72.2623ZM24.5476 42.6054L25.4722 42.2621L24.5138 39.681L23.6152 42.2835L24.5476 42.6054ZM18.4077 60.388L17.4753 60.066L17.0236 61.3743H18.4077V60.388ZM31.1508 60.388V61.3743H32.5693L32.0755 60.0446L31.1508 60.388ZM15.8073 67.659L26.5811 36.2644L24.7151 35.6241L13.9414 67.0186L15.8073 67.659ZM26.5751 36.2813C26.8818 35.438 27.1223 34.8299 27.2991 34.4409C27.3897 34.2415 27.4492 34.1319 27.4795 34.0844C27.4968 34.0572 27.4823 34.0859 27.4353 34.1329C27.4306 34.1376 27.2064 34.382 26.8066 34.382V32.4092C26.3681 32.4092 26.0981 32.6802 26.0403 32.7379C25.9402 32.838 25.8654 32.9464 25.8151 33.0253C25.7102 33.1902 25.6056 33.3992 25.5032 33.6246C25.2938 34.0852 25.0323 34.7514 24.7211 35.6071L26.5751 36.2813ZM26.8066 34.382C26.5611 34.382 26.4025 34.2788 26.355 34.2444C26.3026 34.2066 26.2891 34.1828 26.3115 34.2109C26.3558 34.2663 26.4409 34.3964 26.5647 34.6395C26.8072 35.1159 27.1192 35.8672 27.5014 36.9185L29.3554 36.2443C28.9654 35.1717 28.6208 34.3301 28.3228 33.7445C28.1762 33.4567 28.02 33.1886 27.8519 32.9785C27.7682 32.8738 27.6556 32.7506 27.5116 32.6463C27.3723 32.5455 27.1293 32.4092 26.8066 32.4092V34.382ZM27.5054 36.9291L40.0748 70.2931L41.9209 69.5976L29.3515 36.2336L27.5054 36.9291ZM40.065 70.266C40.3391 71.0633 40.8128 71.7209 41.5088 72.1663C42.1929 72.6041 43.0106 72.7853 43.894 72.7853V70.8125C43.2714 70.8125 42.8535 70.6847 42.5722 70.5047C42.3027 70.3323 42.0814 70.0631 41.9306 69.6247L40.065 70.266ZM43.894 72.7853C45.0885 72.7853 46.0825 72.2894 46.7051 71.2706L45.0218 70.2419C44.7948 70.6133 44.4759 70.8125 43.894 70.8125V72.7853ZM46.7198 71.2457C46.7607 71.1742 46.7948 71.1144 46.8357 71.0429C46.8765 70.9715 46.9107 70.9117 46.9515 70.8402C46.9973 70.76 47.1374 70.5149 47.1832 70.4347L45.4704 69.456C45.4246 69.5361 45.4003 69.5786 45.3546 69.6587C45.3088 69.7388 45.2845 69.7813 45.2387 69.8614C45.1962 69.9359 45.0496 70.1924 45.007 70.2669L46.7198 71.2457ZM47.209 70.3865C47.2407 70.3231 47.2668 70.2749 47.2874 70.2396C47.3088 70.2029 47.3193 70.1888 47.3186 70.1896C47.3179 70.1906 47.3112 70.1996 47.2983 70.2136C47.286 70.227 47.2618 70.252 47.2254 70.2812C47.1901 70.3094 47.1296 70.3526 47.0442 70.3906C46.9573 70.4292 46.8307 70.4683 46.6744 70.4683V68.4956C46.3315 68.4956 46.094 68.6599 45.993 68.7407C45.8783 68.8325 45.7947 68.9336 45.7404 69.006C45.6297 69.1537 45.5311 69.3312 45.4446 69.5042L47.209 70.3865ZM46.6744 70.4683C46.6527 70.4683 46.5872 70.4647 46.5018 70.4268C46.4108 70.3863 46.3321 70.3221 46.2762 70.2476C46.1786 70.1174 46.2093 70.0402 46.2093 70.177H48.182C48.182 69.8505 48.1258 69.4258 47.8544 69.0639C47.543 68.6487 47.0888 68.4956 46.6744 68.4956V70.4683ZM46.2093 70.177C46.2093 70.0937 46.2321 70.0843 46.1882 70.1792C46.1485 70.265 46.0739 70.3939 45.9466 70.5704C45.6917 70.924 45.2845 71.3883 44.7026 71.9703L46.0975 73.3652C46.7126 72.7501 47.2033 72.2007 47.5469 71.7241C47.7189 71.4855 47.8687 71.2451 47.9786 71.0076C48.0844 70.779 48.182 70.4921 48.182 70.177H46.2093ZM44.7026 71.9703C43.7348 72.938 42.3511 73.477 40.4186 73.477V75.4498C42.7338 75.4498 44.6711 74.7917 46.0975 73.3652L44.7026 71.9703ZM40.4186 73.477C39.2317 73.477 38.3234 73.2157 37.6331 72.758C36.9471 72.3032 36.3972 71.6022 36.0126 70.5821L34.1667 71.278C34.6702 72.6135 35.4526 73.6792 36.5429 74.4021C37.6289 75.1222 38.941 75.4498 40.4186 75.4498V73.477ZM36.0134 70.5843L32.4801 61.1428L30.6325 61.8342L34.1658 71.2758L36.0134 70.5843ZM31.5563 60.5021H18.0601V62.4749H31.5563V60.5021ZM17.1275 61.1672L14.7527 68.0601L16.6178 68.7027L18.9927 61.8098L17.1275 61.1672ZM14.7526 68.0603C13.9678 70.34 13.0452 71.7695 12.0694 72.525L13.2771 74.0849C14.6954 72.9868 15.7808 71.134 16.6179 68.7025L14.7526 68.0603ZM12.0731 72.5221C11.1179 73.2544 9.89239 73.6508 8.32897 73.6508V75.6235C10.241 75.6235 11.9116 75.1317 13.2734 74.0877L12.0731 72.5221ZM8.32897 73.6508C6.29738 73.6508 4.73277 72.9072 3.53853 71.4144L1.99808 72.6468C3.58417 74.6294 5.72666 75.6235 8.32897 75.6235V73.6508ZM3.53853 71.4144C2.27221 69.8315 1.66943 68.1716 1.66943 66.412H-0.303314C-0.303314 68.6685 0.484075 70.7543 1.99808 72.6468L3.53853 71.4144ZM1.66943 66.412C1.66943 64.5347 2.14481 63.1392 3.00087 62.1246L1.49312 60.8524C0.263933 62.3092 -0.303314 64.1961 -0.303314 66.412H1.66943ZM3.01253 62.1105C3.82522 61.1103 4.85453 60.6213 6.1858 60.6213V58.6486C4.27335 58.6486 2.67679 59.3953 1.48146 60.8665L3.01253 62.1105ZM6.1858 60.6213C6.7564 60.6213 7.40558 60.792 8.14626 61.196L9.09091 59.4641C8.1325 58.9413 7.15981 58.6486 6.1858 58.6486V60.6213ZM8.14626 61.196C9.37952 61.8687 9.54369 62.3513 9.54369 62.5311H11.5164C11.5164 61.1663 10.4063 60.1816 9.09091 59.4641L8.14626 61.196ZM9.54369 62.5311C9.54369 62.6148 9.52487 62.5101 9.62121 62.3559C9.6783 62.2646 9.77053 62.1659 9.90298 62.0952C10.0329 62.0259 10.1554 62.0082 10.2404 62.0082V63.9809C10.6524 63.9809 11.0529 63.7874 11.2941 63.4015C11.487 63.0928 11.5164 62.7564 11.5164 62.5311H9.54369ZM10.2404 62.0082C10.3225 62.0082 10.387 62.0207 10.4281 62.0316C10.4696 62.0425 10.4979 62.0544 10.511 62.0604C10.5346 62.0711 10.5308 62.0725 10.4952 62.0471C10.4232 61.9957 10.3027 61.8936 10.127 61.7178L8.73204 63.1128C8.94244 63.3232 9.15017 63.5107 9.34855 63.6524C9.49659 63.7581 9.82631 63.9809 10.2404 63.9809V62.0082ZM10.127 61.7178C8.87672 60.4676 7.46169 59.7491 5.89618 59.7491V61.7219C6.80207 61.7219 7.7426 62.1233 8.73204 63.1128L10.127 61.7178ZM5.89618 59.7491C4.31183 59.7491 3.03062 60.4702 2.12588 61.8035L3.75828 62.9112C4.32093 62.082 5.00912 61.7219 5.89618 61.7219V59.7491ZM2.12588 61.8035C1.24792 63.0974 0.855157 64.7391 0.855157 66.6437H2.8279C2.8279 64.9957 3.16884 63.7799 3.75828 62.9112L2.12588 61.8035ZM0.855157 66.6437C0.855157 68.6581 1.62551 70.473 3.08464 72.0608L4.53722 70.726C3.37048 69.4563 2.8279 68.1047 2.8279 66.6437H0.855157ZM3.08464 72.0608C4.54991 73.6554 6.28739 74.523 8.27104 74.523V72.5502C6.93374 72.5502 5.69781 71.989 4.53722 70.726L3.08464 72.0608ZM8.27104 74.523C10.0973 74.523 11.6578 74.0534 12.8184 72.9894L11.4854 71.5352C10.7925 72.1703 9.76572 72.5502 8.27104 72.5502V74.523ZM12.8197 72.9882C13.9694 71.9305 14.9421 70.0975 15.8039 67.6686L13.9447 67.0089C13.1075 69.3684 12.2652 70.8178 11.4841 71.5364L12.8197 72.9882ZM23.6152 42.2835L17.4753 60.066L19.34 60.7099L25.4799 42.9274L23.6152 42.2835ZM18.4077 61.3743H31.1508V59.4016H18.4077V61.3743ZM32.0755 60.0446L25.4722 42.2621L23.6229 42.9488L30.2262 60.7313L32.0755 60.0446ZM53.3772 72.2623L52.7877 73.0531L52.7957 73.0591L52.8039 73.0649L53.3772 72.2623ZM51.3499 61.4885L50.5332 60.9353L50.527 60.9445L50.521 60.9538L51.3499 61.4885ZM54.4198 58.824L54.8385 59.7172L54.8528 59.7104L54.8669 59.7033L54.4198 58.824ZM68.4373 58.824L68.0534 59.7326L69.4366 60.3171L69.4236 58.8155L68.4373 58.824ZM66.7575 49.9038L65.9465 50.4653L65.9548 50.4772L65.9634 50.4889L66.7575 49.9038ZM56.1575 48.8612L55.7164 47.9789L55.7079 47.9833L56.1575 48.8612ZM55.2307 48.1661L55.7301 49.0168L55.7356 49.0135L55.2307 48.1661ZM74.2297 74V74.9864H75.216V74H74.2297ZM68.4373 74H67.4509V74.9864H68.4373V74ZM68.4373 69.424H69.4237L67.4665 69.2498L68.4373 69.424ZM65.8308 73.1311L65.2886 72.3071L65.8308 73.1311ZM65.8887 63.7475L66.4513 62.9374L66.4436 62.932L66.4358 62.9268L65.8887 63.7475ZM68.4373 67.7443L67.4669 67.9207L69.4237 67.7443H68.4373ZM68.4373 59.8667H69.4237V59.2006L68.8058 58.9517L68.4373 59.8667ZM57.4898 60.388L56.6757 59.831L57.4898 60.388ZM57.2001 71.2197L56.3317 71.6873L56.3389 71.7007L56.3465 71.7139L57.2001 71.2197ZM65.4253 72.1464L65.9724 72.9672L65.9809 72.9615L65.9893 72.9557L65.4253 72.1464ZM65.2515 64.7322L64.744 65.578L64.7581 65.5865L64.7725 65.5945L65.2515 64.7322ZM60.7914 73.5929C58.2065 73.5929 55.9377 72.879 53.9505 71.4596L52.8039 73.0649C55.1417 74.7348 57.8156 75.5656 60.7914 75.5656V73.5929ZM53.9667 71.4715C52.1067 70.0849 51.1778 68.2039 51.1778 65.7169H49.205C49.205 68.7907 50.3999 71.2732 52.7877 73.0531L53.9667 71.4715ZM51.1778 65.7169C51.1778 64.2578 51.5229 63.0397 52.1787 62.0233L50.521 60.9538C49.6322 62.3315 49.205 63.9324 49.205 65.7169H51.1778ZM52.1665 62.0417C52.884 60.9826 53.7733 60.2165 54.8385 59.7172L54.0012 57.9309C52.5949 58.5901 51.4376 59.6003 50.5332 60.9353L52.1665 62.0417ZM54.8669 59.7033C57.0318 58.6025 59.0998 58.0727 61.081 58.0727V56.1C58.7373 56.1 56.3645 56.7287 53.9727 57.9448L54.8669 59.7033ZM61.081 58.0727C63.072 58.0727 65.3904 58.6074 68.0534 59.7326L68.8212 57.9154C66.0008 56.7237 63.415 56.1 61.081 56.1V58.0727ZM69.4236 58.8155C69.4041 56.5424 69.2523 54.6162 68.9577 53.0519C68.6662 51.5038 68.2198 50.2255 67.5516 49.3187L65.9634 50.4889C66.3765 51.0495 66.7507 51.9916 67.0191 53.4169C67.2844 54.8261 67.432 56.6263 67.451 58.8325L69.4236 58.8155ZM67.5685 49.3424C66.303 47.5144 64.3423 46.6584 61.892 46.6584V48.6312C63.8438 48.6312 65.1268 49.2812 65.9465 50.4653L67.5685 49.3424ZM61.892 46.6584C59.57 46.6584 57.5014 47.0864 55.7164 47.9789L56.5986 49.7434C58.0573 49.0141 59.8117 48.6312 61.892 48.6312V46.6584ZM55.7079 47.9833C53.917 48.9005 52.7963 50.2637 52.7963 52.1049H54.769C54.769 51.243 55.2315 50.4437 56.6072 49.7391L55.7079 47.9833ZM52.7963 52.1049C52.7963 52.2048 52.7716 52.0957 52.8963 51.9597C52.9586 51.8916 53.0297 51.8504 53.0872 51.8296C53.139 51.8107 53.1646 51.8136 53.1455 51.8136V53.7864C53.5331 53.7864 53.9985 53.6767 54.3505 53.2927C54.6875 52.925 54.769 52.4684 54.769 52.1049H52.7963ZM53.1455 51.8136C53.13 51.8136 53.2923 51.8137 53.4409 51.9772C53.5734 52.1229 53.5526 52.2452 53.5526 52.1628H51.5799C51.5799 52.5052 51.6557 52.9461 51.9812 53.3042C52.3229 53.6801 52.7749 53.7864 53.1455 53.7864V51.8136ZM53.5526 52.1628C53.5526 50.9877 54.1614 49.9375 55.73 49.0168L54.7314 47.3154C52.7475 48.4799 51.5799 50.0942 51.5799 52.1628H53.5526ZM55.7356 49.0135C57.3276 48.065 59.783 47.5306 63.2242 47.5306V45.5579C59.6374 45.5579 56.7637 46.1047 54.7259 47.3187L55.7356 49.0135ZM63.2242 47.5306C66.6942 47.5306 69.1312 48.5457 70.7261 50.426C72.3473 52.3374 73.2433 55.3102 73.2433 59.5191H75.216C75.216 55.0781 74.2777 51.5635 72.2305 49.1499C70.1569 46.7052 67.0911 45.5579 63.2242 45.5579V47.5306ZM73.2433 59.5191V74H75.216V59.5191H73.2433ZM74.2297 73.0136H68.4373V74.9864H74.2297V73.0136ZM69.4237 74V69.424H67.4509V74H69.4237ZM67.4665 69.2498C67.2511 70.4494 66.5667 71.4663 65.2886 72.3071L66.3729 73.9552C68.0296 72.8652 69.0829 71.4107 69.4082 69.5983L67.4665 69.2498ZM65.2886 72.3071C63.9947 73.1584 62.5065 73.5929 60.7914 73.5929V75.5656C62.8607 75.5656 64.732 75.0347 66.3729 73.9552L65.2886 72.3071ZM65.3261 64.5577C66.4969 65.3708 67.2036 66.4727 67.4669 67.9207L69.4078 67.5678C69.0532 65.6177 68.0608 64.055 66.4513 62.9374L65.3261 64.5577ZM69.4237 67.7443V59.8667H67.4509V67.7443H69.4237ZM68.8058 58.9517C65.9778 57.8126 63.5628 57.2005 61.6023 57.2005V59.1732C63.1945 59.1732 65.3362 59.681 68.0688 60.7816L68.8058 58.9517ZM61.6023 57.2005C59.5301 57.2005 57.8585 58.1023 56.6757 59.831L58.3038 60.945C59.1291 59.7388 60.1992 59.1732 61.6023 59.1732V57.2005ZM56.6757 59.831C55.5391 61.4922 54.9974 63.4916 54.9974 65.7749H56.9701C56.9701 63.8104 57.4324 62.2185 58.3038 60.945L56.6757 59.831ZM54.9974 65.7749C54.9974 68.0231 55.4268 70.0069 56.3317 71.6873L58.0686 70.752C57.3516 69.4204 56.9701 67.7743 56.9701 65.7749H54.9974ZM56.3465 71.7139C57.3678 73.4779 58.9436 74.4071 60.9652 74.4071V72.4344C59.6658 72.4344 58.7316 71.8962 58.0538 70.7255L56.3465 71.7139ZM60.9652 74.4071C62.8369 74.4071 64.5186 73.9364 65.9724 72.9672L64.8781 71.3257C63.7833 72.0556 62.4917 72.4344 60.9652 72.4344V74.4071ZM65.9893 72.9557C67.4408 71.944 68.3231 70.6318 68.3231 69.0186H66.3504C66.3504 69.7995 65.9584 70.5726 64.8613 71.3372L65.9893 72.9557ZM68.3231 69.0186C68.3231 66.7037 67.5321 64.8709 65.7305 63.87L64.7725 65.5945C65.7512 66.1382 66.3504 67.1629 66.3504 69.0186H68.3231ZM65.759 63.8864C65.5145 63.7397 65.3913 63.6315 65.3395 63.5728C65.2879 63.5144 65.369 63.578 65.369 63.7475H63.3963C63.3963 64.226 63.6222 64.6082 63.8603 64.878C64.0981 65.1475 64.4093 65.3772 64.744 65.578L65.759 63.8864ZM65.369 63.7475C65.369 63.7152 65.379 63.8751 65.2263 64.0495C65.0517 64.2491 64.8418 64.2705 64.7881 64.2705V62.2978C64.4641 62.2978 64.0515 62.3964 63.7417 62.7505C63.4539 63.0793 63.3963 63.471 63.3963 63.7475H65.369ZM64.7881 64.2705C64.745 64.2705 64.7687 64.2609 64.8832 64.3091C64.9915 64.3547 65.1429 64.4358 65.3415 64.5682L66.4358 62.9268C65.9503 62.6031 65.3718 62.2978 64.7881 62.2978V64.2705ZM91.0908 70.0612L91.9398 69.559L91.9347 69.5505L91.0908 70.0612ZM89.5269 65.9486L90.5061 65.8299L90.5057 65.8263L89.5269 65.9486ZM88.716 51.1202L87.7395 51.2597L87.7409 51.2696L87.7426 51.2795L88.716 51.1202ZM82.4602 49.73L81.6711 49.1382L81.6681 49.1423L82.4602 49.73ZM86.1094 57.3759L85.6418 56.5075L86.1094 57.3759ZM86.1673 58.6503L86.4184 59.6042L86.4347 59.5999L86.4508 59.595L86.1673 58.6503ZM81.128 57.3759L80.3254 57.9493L80.3303 57.9562L80.3354 57.9631L81.128 57.3759ZM82.1706 48.6295L82.8283 49.3646L82.8336 49.3598L82.8389 49.355L82.1706 48.6295ZM91.2067 47.6448L90.5821 48.4082L90.5904 48.415L90.5988 48.4216L91.2067 47.6448ZM93.1761 50.1355L92.2733 50.5327L92.283 50.5549L92.2939 50.5766L93.1761 50.1355ZM94.2766 53.8426L95.2511 53.6898L95.2497 53.6811L95.2482 53.6726L94.2766 53.8426ZM95.6089 70.4087L96.5446 70.0968L95.6089 70.4087ZM108.12 68.1497L107.306 67.5938L107.304 67.5959L108.12 68.1497ZM110.032 50.3093L109.166 50.7816L109.17 50.7891L109.174 50.7965L110.032 50.3093ZM102.386 49.2087L103.126 49.8603L102.386 49.2087ZM101.923 55.3486L101.128 55.9337L101.146 55.9574L101.165 55.9801L101.923 55.3486ZM105.34 56.1595L105.069 55.2111L105.059 55.2139L105.05 55.2168L105.34 56.1595ZM104.935 57.5497V58.5361H104.966L104.998 58.534L104.935 57.5497ZM101.054 56.1595L100.268 56.7564L100.282 56.774L100.296 56.791L101.054 56.1595ZM101.691 48.2819L102.351 49.0151L102.357 49.0091L102.364 49.003L101.691 48.2819ZM109.684 47.7606L110.297 46.9873L109.684 47.7606ZM111.712 50.9464L110.768 51.2347L110.769 51.2354L111.712 50.9464ZM109.279 85.8743L108.702 85.0743L108.693 85.0806L109.279 85.8743ZM92.6548 86.2219L93.2052 85.4033L93.2019 85.4012L92.6548 86.2219ZM90.0482 77.0699L90.8373 77.6618L90.8537 77.6399L90.8689 77.6171L90.0482 77.0699ZM90.8592 78.1705L91.7414 78.6116L90.8592 78.1705ZM93.234 85.1213L93.8442 84.3462L93.8338 84.3383L93.234 85.1213ZM104.761 84.7159L104.023 84.0615L104.014 84.0711L104.761 84.7159ZM107.02 71.741H108.006V69.7242L106.414 70.9624L107.02 71.741ZM99.2001 73.1874C95.6872 73.1874 93.348 71.9396 91.9398 69.559L90.2419 70.5634C92.0774 73.6662 95.1444 75.1601 99.2001 75.1601V73.1874ZM91.9347 69.5505C91.0958 68.1645 90.6391 66.9271 90.5061 65.8299L88.5477 66.0673C88.7236 67.5188 89.3095 69.0231 90.247 70.5719L91.9347 69.5505ZM90.5057 65.8263C90.3205 64.3447 90.2237 62.0777 90.2237 58.9978H88.2509C88.2509 62.0964 88.3472 64.4633 88.5482 66.071L90.5057 65.8263ZM90.2237 58.9978C90.2237 55.8382 90.0485 53.1552 89.6894 50.9609L87.7426 51.2795C88.0786 53.3329 88.2509 55.9016 88.2509 58.9978H90.2237ZM89.6924 50.9807C89.5275 49.8258 89.2134 48.8266 88.6652 48.0956C88.0799 47.3152 87.2607 46.8901 86.2832 46.8901V48.8629C86.6186 48.8629 86.8614 48.9784 87.087 49.2792C87.3497 49.6295 87.5956 50.2521 87.7395 51.2597L89.6924 50.9807ZM86.2832 46.8901C84.369 46.8901 82.7948 47.64 81.6711 49.1382L83.2493 50.3219C83.9792 49.3487 84.9537 48.8629 86.2832 48.8629V46.8901ZM81.6681 49.1423C80.6805 50.4734 80.1416 51.8911 80.1416 53.3792H82.1144C82.1144 52.396 82.4637 51.3808 83.2524 50.3178L81.6681 49.1423ZM80.1416 53.3792C80.1416 54.9442 80.4354 56.2986 81.1838 57.2793C81.9707 58.3104 83.1334 58.7678 84.4876 58.7678V56.795C83.602 56.795 83.085 56.5188 82.752 56.0825C82.3806 55.5957 82.1144 54.749 82.1144 53.3792H80.1416ZM84.4876 58.7678C85.2273 58.7678 85.929 58.5934 86.5771 58.2444L85.6418 56.5075C85.2859 56.6991 84.9063 56.795 84.4876 56.795V58.7678ZM86.5771 58.2444C86.8255 58.1106 87.0082 58.0149 87.1298 57.9541C87.1921 57.9229 87.2276 57.9063 87.2433 57.8995C87.2523 57.8955 87.2424 57.9003 87.2209 57.9078C87.2103 57.9115 87.1847 57.9202 87.1496 57.929C87.1316 57.9335 87.1045 57.9397 87.071 57.945C87.0397 57.95 86.9867 57.9569 86.9203 57.9569V55.9841C86.7972 55.9841 86.7018 56.0075 86.6712 56.0151C86.6276 56.026 86.5918 56.0379 86.5692 56.0458C86.5235 56.0618 86.4822 56.0792 86.4526 56.0921C86.391 56.1191 86.3204 56.1532 86.2475 56.1896C86.0988 56.264 85.8953 56.3709 85.6418 56.5075L86.5771 58.2444ZM86.9203 57.9569C86.8436 57.9569 86.7288 57.9392 86.6084 57.8703C86.4876 57.8013 86.4127 57.7103 86.3724 57.6413C86.3358 57.5784 86.3301 57.5388 86.3322 57.5497C86.334 57.559 86.3394 57.5947 86.3394 57.6656H88.3122C88.3122 57.3703 88.2748 56.9873 88.0765 56.6472C87.8304 56.2255 87.403 55.9841 86.9203 55.9841V57.9569ZM86.3394 57.6656C86.3394 57.6159 86.3523 57.5617 86.3757 57.5159C86.397 57.4745 86.4144 57.4643 86.3974 57.4788C86.3514 57.5178 86.208 57.6083 85.8839 57.7055L86.4508 59.595C86.899 59.4606 87.3348 59.2711 87.675 58.9819C88.0417 58.6702 88.3122 58.2237 88.3122 57.6656H86.3394ZM85.9163 57.6964C85.2521 57.8712 84.6419 57.9535 84.0821 57.9535V59.9263C84.8352 59.9263 85.6152 59.8155 86.4184 59.6042L85.9163 57.6964ZM84.0821 57.9535C83.2268 57.9535 82.525 57.6048 81.9206 56.7888L80.3354 57.9631C81.2756 59.2323 82.5432 59.9263 84.0821 59.9263V57.9535ZM81.9306 56.8026C81.2763 55.8865 80.9559 54.8894 80.9559 53.7847H78.9832C78.9832 55.3058 79.4351 56.7029 80.3254 57.9493L81.9306 56.8026ZM80.9559 53.7847C80.9559 51.9166 81.5879 50.4744 82.8283 49.3646L81.5129 47.8944C79.8186 49.4104 78.9832 51.405 78.9832 53.7847H80.9559ZM82.8389 49.355C84.0832 48.2089 85.7931 47.5885 88.0788 47.5885V45.6158C85.4217 45.6158 83.1928 46.347 81.5024 47.904L82.8389 49.355ZM88.0788 47.5885C89.1172 47.5885 89.9309 47.8754 90.5821 48.4082L91.8313 46.8814C90.7834 46.024 89.5119 45.6158 88.0788 45.6158V47.5885ZM90.5988 48.4216C91.368 49.0235 91.9185 49.7265 92.2733 50.5327L94.0789 49.7382C93.5841 48.6137 92.8217 47.6562 91.8146 46.868L90.5988 48.4216ZM92.2939 50.5766C92.6985 51.386 93.0437 52.5191 93.305 54.0126L95.2482 53.6726C94.969 52.0768 94.5804 50.7386 94.0583 49.6944L92.2939 50.5766ZM93.3022 53.9955C93.5992 55.8887 93.7537 58.6472 93.7537 62.2994H95.7264C95.7264 58.6147 95.572 55.7353 95.2511 53.6898L93.3022 53.9955ZM93.7537 62.2994C93.7537 65.9898 94.0414 68.8254 94.6731 70.7207L96.5446 70.0968C96.0179 68.5167 95.7264 65.946 95.7264 62.2994H93.7537ZM94.6731 70.7207C95.022 71.7672 95.6233 72.6157 96.5037 73.1899C97.3729 73.7568 98.4302 74.0017 99.6056 74.0017V72.0289C98.6958 72.0289 98.0443 71.8394 97.5813 71.5375C97.1294 71.2428 96.775 70.788 96.5446 70.0968L94.6731 70.7207ZM99.6056 74.0017C103.454 74.0017 106.579 72.1774 108.937 68.7036L107.304 67.5959C105.259 70.6095 102.708 72.0289 99.6056 72.0289V74.0017ZM108.935 68.7057C111.296 65.2465 112.466 61.265 112.466 56.7967H110.494C110.494 60.9011 109.425 64.4883 107.306 67.5938L108.935 68.7057ZM112.466 56.7967C112.466 54.0565 111.963 51.7121 110.889 49.822L109.174 50.7965C110.031 52.3047 110.494 54.2851 110.494 56.7967H112.466ZM110.898 49.8369C110.362 48.8547 109.651 48.0754 108.75 47.547C107.85 47.0191 106.817 46.7743 105.688 46.7743V48.747C106.527 48.747 107.203 48.9269 107.752 49.2486C108.299 49.5697 108.775 50.0647 109.166 50.7816L110.898 49.8369ZM105.688 46.7743C104.069 46.7743 102.693 47.3669 101.645 48.5571L103.126 49.8603C103.778 49.1198 104.603 48.747 105.688 48.747V46.7743ZM101.645 48.5571C100.65 49.6881 100.125 50.9968 100.125 52.4524H102.098C102.098 51.5139 102.423 50.6602 103.126 49.8603L101.645 48.5571ZM100.125 52.4524C100.125 53.7943 100.429 54.9843 101.128 55.9337L102.717 54.7635C102.335 54.2455 102.098 53.5047 102.098 52.4524H100.125ZM101.165 55.9801C101.918 56.8833 102.902 57.3776 104.066 57.3776V55.4049C103.53 55.4049 103.086 55.2041 102.68 54.7172L101.165 55.9801ZM104.066 57.3776C104.548 57.3776 105.077 57.2725 105.63 57.1023L105.05 55.2168C104.599 55.3555 104.278 55.4049 104.066 55.4049V57.3776ZM105.611 57.108C105.877 57.0318 106.078 56.9774 106.216 56.9427C106.286 56.9252 106.332 56.9149 106.359 56.9096C106.372 56.9069 106.374 56.9069 106.366 56.9079C106.366 56.9079 106.326 56.9142 106.267 56.9142V54.9415C106.138 54.9415 106.016 54.9664 105.972 54.9751C105.902 54.9891 105.822 55.0078 105.738 55.0289C105.568 55.0714 105.343 55.1328 105.069 55.2111L105.611 57.108ZM106.267 56.9142C106.237 56.9142 106.043 56.9005 105.877 56.7135C105.731 56.5486 105.744 56.4007 105.744 56.4492H107.717C107.717 56.1501 107.653 55.7416 107.352 55.4029C107.031 55.042 106.605 54.9415 106.267 54.9415V56.9142ZM105.744 56.4492C105.744 56.4576 105.744 56.4282 105.767 56.3892C105.788 56.3531 105.802 56.3532 105.766 56.3757C105.668 56.4355 105.408 56.5307 104.871 56.5654L104.998 58.534C105.658 58.4915 106.296 58.3647 106.797 58.0576C107.364 57.7099 107.717 57.1484 107.717 56.4492H105.744ZM104.935 56.5633H104.297V58.5361H104.935V56.5633ZM104.297 56.5633C103.15 56.5633 102.367 56.1943 101.811 55.5281L100.296 56.791C101.285 57.9783 102.664 58.5361 104.297 58.5361V56.5633ZM101.839 55.5627C101.274 54.8188 100.94 53.7573 100.94 52.2787H98.9668C98.9668 54.0438 99.3664 55.5696 100.268 56.7564L101.839 55.5627ZM100.94 52.2787C100.94 50.9235 101.409 49.8622 102.351 49.0151L101.031 47.5488C99.6553 48.7869 98.9668 50.3901 98.9668 52.2787H100.94ZM102.364 49.003C103.335 48.0967 104.483 47.6465 105.861 47.6465V45.6737C103.996 45.6737 102.364 46.3048 101.018 47.5609L102.364 49.003ZM105.861 47.6465C107.343 47.6465 108.374 47.9817 109.072 48.534L110.297 46.9873C109.141 46.0722 107.624 45.6737 105.861 45.6737V47.6465ZM109.072 48.534C109.809 49.1173 110.388 49.9916 110.768 51.2347L112.655 50.6582C112.185 49.1209 111.413 47.8714 110.297 46.9873L109.072 48.534ZM110.769 51.2354C111.463 53.5019 111.826 56.465 111.826 60.1563H113.799C113.799 56.3561 113.428 53.1793 112.655 50.6574L110.769 51.2354ZM111.826 60.1563V78.6339H113.799V60.1563H111.826ZM111.826 78.6339C111.826 81.4733 110.778 83.5767 108.702 85.0743L109.856 86.6743C112.491 84.7737 113.799 82.0502 113.799 78.6339H111.826ZM108.693 85.0806C106.526 86.6796 103.937 87.4945 100.88 87.4945V89.4673C104.31 89.4673 107.321 88.5444 109.864 86.6681L108.693 85.0806ZM100.88 87.4945C97.7921 87.4945 95.2518 86.7795 93.2052 85.4033L92.1044 87.0404C94.5372 88.6763 97.4803 89.4673 100.88 89.4673V87.4945ZM93.2019 85.4012C91.2678 84.1117 90.3395 82.3885 90.3395 80.1399H88.3668C88.3668 83.0658 89.6396 85.3972 92.1076 87.0426L93.2019 85.4012ZM90.3395 80.1399C90.3395 78.767 90.572 78.0155 90.8373 77.6618L89.2591 76.4781C88.5976 77.3601 88.3668 78.6552 88.3668 80.1399H90.3395ZM90.8689 77.6171C90.8652 77.6227 90.8555 77.6356 90.8384 77.6511C90.821 77.6667 90.8005 77.6807 90.779 77.6915C90.7339 77.7141 90.7127 77.7088 90.7433 77.7088V75.736C90.147 75.736 89.5873 75.9832 89.2275 76.5228L90.8689 77.6171ZM90.7433 77.7088C90.7195 77.7088 90.6532 77.7052 90.5667 77.6691C90.4741 77.6305 90.3871 77.5665 90.3206 77.4834C90.1985 77.3307 90.2203 77.214 90.2203 77.3016H92.1931C92.1931 77.0032 92.1377 76.5968 91.8611 76.251C91.5508 75.8632 91.1155 75.736 90.7433 75.736V77.7088ZM90.2203 77.3016C90.2203 77.2388 90.2277 77.1941 90.2308 77.1768C90.2344 77.157 90.2374 77.1472 90.2365 77.1501C90.2345 77.1572 90.2258 77.185 90.204 77.2394C90.1606 77.3478 90.0874 77.5085 89.9769 77.7294L91.7414 78.6116C91.8626 78.3691 91.9631 78.1533 92.0356 77.9721C92.0718 77.8817 92.1064 77.7864 92.1334 77.6921C92.1561 77.6128 92.1931 77.4684 92.1931 77.3016H90.2203ZM89.9769 77.7294C89.6488 78.3856 89.5252 79.1958 89.5252 80.082H91.498C91.498 79.3462 91.6061 78.8822 91.7414 78.6116L89.9769 77.7294ZM89.5252 80.082C89.5252 82.4102 90.62 84.3615 92.6342 85.9044L93.8338 84.3383C92.2182 83.1008 91.498 81.6926 91.498 80.082H89.5252ZM92.6239 85.8963C94.6035 87.4548 96.8242 88.2509 99.2581 88.2509V86.2781C97.2898 86.2781 95.4944 85.6454 93.8441 84.3463L92.6239 85.8963ZM99.2581 88.2509C101.752 88.2509 103.857 87.2716 105.507 85.3606L104.014 84.0711C102.73 85.5583 101.166 86.2781 99.2581 86.2781V88.2509ZM105.499 85.3701C107.165 83.4899 108.006 81.2682 108.006 78.7497H106.033C106.033 80.7879 105.368 82.5436 104.023 84.0616L105.499 85.3701ZM108.006 78.7497V71.741H106.033V78.7497H108.006ZM106.414 70.9624C104.533 72.426 102.151 73.1874 99.2001 73.1874V75.1601C102.505 75.1601 105.337 74.2997 107.625 72.5196L106.414 70.9624ZM137.471 62.7049L136.597 63.1612L136.609 63.1843L136.622 63.2067L137.471 62.7049ZM133.417 61.7202L133.796 62.6307L133.813 62.6236L133.83 62.6158L133.417 61.7202ZM132.895 60.6776L133.425 61.5098L133.434 61.5041L133.442 61.4983L132.895 60.6776ZM138.108 61.6623L137.323 62.2591L137.331 62.2689L137.338 62.2785L138.108 61.6623ZM139.383 64.8481L138.399 64.9137L140.369 64.8481H139.383ZM139.383 47.1814V46.195H138.396V47.1814H139.383ZM145.117 47.1814H146.104V46.195H145.117V47.1814ZM145.117 74V74.9864H146.104V74H145.117ZM139.383 74H138.396V74.9864H139.383V74ZM139.383 65.5432H140.369L138.398 65.4807L139.383 65.5432ZM135.792 71.9148L136.404 72.6876L136.413 72.6811L135.792 71.9148ZM123.106 71.9727L122.288 72.5239L122.295 72.5342L122.302 72.5443L123.106 71.9727ZM121.311 47.1814V46.195H120.324V47.1814H121.311ZM127.103 47.1814H128.089V46.195H127.103V47.1814ZM127.798 69.424L126.832 69.6239L126.834 69.6318L126.836 69.6398L127.798 69.424ZM135.676 70.4087L136.348 71.1304L135.676 70.4087ZM139.211 65.3694C139.211 64.2546 138.906 63.1944 138.321 62.2031L136.622 63.2067C137.04 63.9145 137.238 64.6306 137.238 65.3694H139.211ZM138.346 62.2486C138.055 61.6907 137.667 61.2154 137.159 60.8814C136.644 60.5433 136.061 60.3863 135.444 60.3863V62.359C135.715 62.359 135.914 62.424 136.075 62.53C136.243 62.6402 136.425 62.831 136.597 63.1612L138.346 62.2486ZM135.444 60.3863C134.521 60.3863 133.686 60.5097 133.003 60.8246L133.83 62.6158C134.152 62.4673 134.668 62.359 135.444 62.359V60.3863ZM133.037 60.8097C132.812 60.9038 132.646 60.9687 132.535 61.0085C132.478 61.0287 132.447 61.0382 132.436 61.0413C132.43 61.0429 132.439 61.0403 132.457 61.0367C132.469 61.0345 132.526 61.0235 132.606 61.0235V62.9962C132.772 62.9962 132.918 62.9548 132.964 62.9421C133.039 62.9211 133.12 62.8944 133.198 62.8663C133.357 62.8096 133.558 62.7297 133.796 62.6307L133.037 60.8097ZM132.606 61.0235C132.656 61.0235 132.747 61.0319 132.854 61.0795C132.967 61.1296 133.064 61.2083 133.134 61.3022C133.261 61.4709 133.245 61.6061 133.245 61.5464H131.272C131.272 61.7957 131.314 62.1626 131.556 62.4858C131.838 62.8624 132.249 62.9962 132.606 62.9962V61.0235ZM133.245 61.5464C133.245 61.5847 133.238 61.6201 133.228 61.6482C133.218 61.6749 133.209 61.6857 133.213 61.6808C133.217 61.6753 133.232 61.6559 133.268 61.6249C133.303 61.5939 133.354 61.555 133.425 61.5098L132.366 59.8454C131.841 60.1793 131.272 60.728 131.272 61.5464H133.245ZM133.442 61.4983C133.648 61.3616 134.183 61.2006 135.27 61.2006V59.2278C134.118 59.2278 133.07 59.3758 132.348 59.8569L133.442 61.4983ZM135.27 61.2006C136.104 61.2006 136.766 61.5258 137.323 62.2591L138.894 61.0654C137.984 59.868 136.753 59.2278 135.27 59.2278V61.2006ZM137.338 62.2785C137.993 63.0973 138.336 63.9696 138.399 64.9137L140.367 64.7825C140.275 63.4096 139.768 62.1581 138.879 61.0461L137.338 62.2785ZM140.369 64.8481V47.1814H138.396V64.8481H140.369ZM139.383 48.1678H145.117V46.195H139.383V48.1678ZM144.131 47.1814V74H146.104V47.1814H144.131ZM145.117 73.0136H139.383V74.9864H145.117V73.0136ZM140.369 74V65.5432H138.396V74H140.369ZM138.398 65.4807C138.265 67.588 137.239 69.4725 135.171 71.1484L136.413 72.6811C138.824 70.7271 140.192 68.3639 140.367 65.6057L138.398 65.4807ZM135.179 71.1419C133.081 72.8052 130.956 73.5929 128.783 73.5929V75.5656C131.476 75.5656 134.022 74.577 136.404 72.6876L135.179 71.1419ZM128.783 73.5929C126.483 73.5929 124.923 72.8257 123.91 71.4011L122.302 72.5443C123.761 74.595 125.986 75.5656 128.783 75.5656V73.5929ZM123.924 71.4214C123.446 70.7112 123.025 69.4996 122.734 67.6755C122.446 65.8729 122.297 63.5643 122.297 60.7355H120.324C120.324 63.6219 120.475 66.0437 120.786 67.9868C121.093 69.9084 121.57 71.4579 122.288 72.5239L123.924 71.4214ZM122.297 60.7355V47.1814H120.324V60.7355H122.297ZM121.311 48.1678H127.103V46.195H121.311V48.1678ZM126.117 47.1814V59.2295H128.089V47.1814H126.117ZM126.117 59.2295C126.117 63.801 126.348 67.2818 126.832 69.6239L128.764 69.2242C128.322 67.0869 128.089 63.7713 128.089 59.2295H126.117ZM126.836 69.6398C127.103 70.8325 127.506 71.8431 128.11 72.5726C128.744 73.3394 129.584 73.77 130.578 73.77V71.7972C130.221 71.7972 129.922 71.6679 129.63 71.3148C129.307 70.9245 128.995 70.2553 128.761 69.2083L126.836 69.6398ZM130.578 73.77C132.606 73.77 134.534 72.8205 136.348 71.1304L135.003 69.6871C133.419 71.1634 131.949 71.7972 130.578 71.7972V73.77ZM136.348 71.1304C138.183 69.4209 139.211 67.4969 139.211 65.3694H137.238C137.238 66.7946 136.567 68.2301 135.003 69.6871L136.348 71.1304Z" fill="#FFD037"/>
<path d="M153.222 35.3639V25.1694H156.697V35.3639H166.834V38.8393H156.697V49.0339H153.222V38.8393H142.969V35.3639H153.222Z" fill="#FFD037"/>
<path d="M153.222 35.3639V36.3503H154.208V35.3639H153.222ZM153.222 25.1694V24.183H152.235V25.1694H153.222ZM156.697 25.1694H157.684V24.183H156.697V25.1694ZM156.697 35.3639H155.711V36.3503H156.697V35.3639ZM166.834 35.3639H167.82V34.3775H166.834V35.3639ZM166.834 38.8393V39.8257H167.82V38.8393H166.834ZM156.697 38.8393V37.853H155.711V38.8393H156.697ZM156.697 49.0339V50.0202H157.684V49.0339H156.697ZM153.222 49.0339H152.235V50.0202H153.222V49.0339ZM153.222 38.8393H154.208V37.853H153.222V38.8393ZM142.969 38.8393H141.983V39.8257H142.969V38.8393ZM142.969 35.3639V34.3775H141.983V35.3639H142.969ZM154.208 35.3639V25.1694H152.235V35.3639H154.208ZM153.222 26.1557H156.697V24.183H153.222V26.1557ZM155.711 25.1694V35.3639H157.684V25.1694H155.711ZM156.697 36.3503H166.834V34.3775H156.697V36.3503ZM165.848 35.3639V38.8393H167.82V35.3639H165.848ZM166.834 37.853H156.697V39.8257H166.834V37.853ZM155.711 38.8393V49.0339H157.684V38.8393H155.711ZM156.697 48.0475H153.222V50.0202H156.697V48.0475ZM154.208 49.0339V38.8393H152.235V49.0339H154.208ZM153.222 37.853H142.969V39.8257H153.222V37.853ZM143.956 38.8393V35.3639H141.983V38.8393H143.956ZM142.969 36.3503H153.222V34.3775H142.969V36.3503Z" fill="#FFD037"/>
</svg>
