<svg width="146" height="56" viewBox="0 0 146 56" fill="none" xmlns="http://www.w3.org/2000/svg">
<path d="M14.8743 34.3388L25.6481 2.94423C26.266 1.24514 26.6521 0.395595 26.8066 0.395595C27.1155 0.395595 27.6561 1.45753 28.4284 3.58139L40.9978 36.9454C41.4226 38.1811 42.388 38.7989 43.894 38.7989C44.7822 38.7989 45.4386 38.4514 45.8634 37.7563C46.0179 37.486 46.1723 37.2157 46.3268 36.9454C46.4813 36.6364 46.5971 36.482 46.6744 36.482C47.0219 36.482 47.1957 36.7137 47.1957 37.177C47.1957 37.6404 46.5971 38.4707 45.4 39.6678C44.2029 40.8648 42.5425 41.4634 40.4186 41.4634C37.7541 41.4634 35.9778 40.2856 35.0896 37.9301L31.5563 28.4885H18.0601L15.6853 35.3814C14.8743 37.737 13.8703 39.3781 12.6732 40.3049C11.5148 41.1931 10.0667 41.6372 8.32897 41.6372C6.01202 41.6372 4.15847 40.7683 2.76831 39.0306C1.37814 37.2929 0.683058 35.42 0.683058 33.412C0.683058 31.3654 1.20437 29.7242 2.24699 28.4885C3.251 27.2528 4.56394 26.635 6.1858 26.635C6.95811 26.635 7.76904 26.8667 8.61858 27.33C9.8929 28.0251 10.5301 28.7588 10.5301 29.5311C10.5301 29.8401 10.4335 29.9945 10.2404 29.9945C10.086 29.9945 9.81567 29.8014 9.42951 29.4153C8.30966 28.2954 7.13188 27.7355 5.89618 27.7355C4.66047 27.7355 3.67577 28.2761 2.94208 29.3574C2.20838 30.4386 1.84153 31.8674 1.84153 33.6437C1.84153 35.3814 2.498 36.9647 3.81093 38.3934C5.12386 39.8222 6.61057 40.5366 8.27104 40.5366C9.93152 40.5366 11.2251 40.1118 12.1519 39.2623C13.1173 38.3741 14.0248 36.733 14.8743 34.3388ZM24.5476 9.60544L18.4077 27.388H31.1508L24.5476 9.60544ZM60.7914 41.5792C58.0111 41.5792 55.5397 40.8069 53.3772 39.2623C51.2533 37.6791 50.1914 35.4973 50.1914 32.7169C50.1914 31.0951 50.5776 29.6856 51.3499 28.4885C52.1608 27.2914 53.1841 26.4033 54.4198 25.824C56.6981 24.6656 58.9185 24.0863 61.081 24.0863C63.2435 24.0863 65.6956 24.6656 68.4373 25.824C68.3987 21.3446 67.8388 18.3712 66.7575 16.9038C65.7149 15.3978 64.093 14.6448 61.892 14.6448C59.6909 14.6448 57.7794 15.0503 56.1575 15.8612C54.5743 16.6721 53.7827 17.7534 53.7827 19.1049C53.7827 19.5683 53.5703 19.8 53.1455 19.8C52.7593 19.8 52.5663 19.5876 52.5663 19.1628C52.5663 17.541 53.4544 16.2087 55.2307 15.1661C57.0457 14.0849 59.7102 13.5442 63.2242 13.5442C70.5612 13.5442 74.2297 17.8692 74.2297 26.5191V41H68.4373V36.424C68.167 37.9301 67.2981 39.1658 65.8308 40.1311C64.3634 41.0965 62.6836 41.5792 60.7914 41.5792ZM65.8887 30.7475C67.2788 31.7129 68.1284 33.0452 68.4373 34.7443V26.8667C65.657 25.7468 63.3787 25.1869 61.6023 25.1869C59.8646 25.1869 58.4938 25.9206 57.4898 27.388C56.4858 28.8554 55.9837 30.651 55.9837 32.7749C55.9837 34.8987 56.3892 36.7137 57.2001 38.2197C58.0497 39.6871 59.3047 40.4208 60.9652 40.4208C62.6643 40.4208 64.151 39.996 65.4253 39.1464C66.6996 38.2583 67.3368 37.2157 67.3368 36.0186C67.3368 33.9333 66.6417 32.5045 65.2515 31.7322C64.6723 31.3847 64.3827 31.0565 64.3827 30.7475C64.3827 30.4386 64.5178 30.2841 64.7881 30.2841C65.0584 30.2841 65.4253 30.4386 65.8887 30.7475ZM99.2001 41.1738C95.4158 41.1738 92.7127 39.8029 91.0908 37.0612C90.2027 35.5938 89.6814 34.2229 89.5269 32.9486C89.3338 31.404 89.2373 29.0871 89.2373 25.9978C89.2373 22.8699 89.0635 20.2441 88.716 18.1202C88.4071 15.9577 87.5961 14.8765 86.2832 14.8765C84.6613 14.8765 83.387 15.4943 82.4602 16.73C81.5721 17.9271 81.128 19.1435 81.128 20.3792C81.128 23.314 82.2479 24.7814 84.4876 24.7814C85.0668 24.7814 85.6074 24.6463 86.1094 24.3759C86.6114 24.1056 86.8817 23.9705 86.9204 23.9705C87.1907 23.9705 87.3258 24.2022 87.3258 24.6656C87.3258 25.0903 86.9397 25.4186 86.1673 25.6503C85.4336 25.8433 84.7386 25.9399 84.0821 25.9399C82.885 25.9399 81.9003 25.4186 81.128 24.3759C80.3557 23.2947 79.9695 22.0976 79.9695 20.7847C79.9695 18.6608 80.7032 16.9424 82.1706 15.6295C83.638 14.2779 85.6074 13.6022 88.0788 13.6022C89.3145 13.6022 90.3571 13.9497 91.2067 14.6448C92.0949 15.3399 92.7513 16.1701 93.1761 17.1355C93.6395 18.0623 94.0063 19.298 94.2766 20.8426C94.5856 22.812 94.74 25.631 94.74 29.2994C94.74 32.9679 95.0296 35.671 95.6089 37.4087C96.1881 39.1464 97.5204 40.0153 99.6056 40.0153C103.081 40.0153 105.919 38.3934 108.12 35.1497C110.36 31.8674 111.48 28.083 111.48 23.7967C111.48 21.1708 110.997 19.0084 110.032 17.3093C109.105 15.6102 107.657 14.7606 105.688 14.7606C104.336 14.7606 103.235 15.2433 102.386 16.2087C101.536 17.1741 101.112 18.2554 101.112 19.4524C101.112 20.6495 101.382 21.6149 101.923 22.3486C102.502 23.0437 103.216 23.3912 104.066 23.3912C104.413 23.3912 104.838 23.314 105.34 23.1595C105.881 23.0051 106.19 22.9279 106.267 22.9279C106.576 22.9279 106.73 23.1016 106.73 23.4492C106.73 24.1056 106.132 24.4725 104.935 24.5497H104.297C102.907 24.5497 101.826 24.0863 101.054 23.1595C100.32 22.1942 99.9531 20.9005 99.9531 19.2787C99.9531 17.6568 100.532 16.3246 101.691 15.2819C102.849 14.2007 104.239 13.6601 105.861 13.6601C107.483 13.6601 108.758 14.0269 109.684 14.7606C110.611 15.4943 111.287 16.5563 111.712 17.9464C112.445 20.3406 112.812 23.4105 112.812 27.1563V45.6339C112.812 48.7618 111.634 51.1752 109.279 52.8743C106.923 54.612 104.124 55.4809 100.88 55.4809C97.6362 55.4809 94.8945 54.7279 92.6548 53.2219C90.4537 51.7545 89.3531 49.7271 89.3531 47.1399C89.3531 45.7111 89.5848 44.6878 90.0482 44.0699C90.2027 43.8383 90.4344 43.7224 90.7433 43.7224C91.0522 43.7224 91.2067 43.9155 91.2067 44.3016C91.2067 44.4175 91.0908 44.7071 90.8592 45.1705C90.6275 45.6339 90.5116 46.271 90.5116 47.082C90.5116 49.0514 91.4191 50.7312 93.234 52.1213C95.049 53.5501 97.057 54.2645 99.2581 54.2645C101.459 54.2645 103.293 53.4149 104.761 51.7159C106.267 50.0168 107.02 48.0281 107.02 45.7497V38.741C104.935 40.3628 102.328 41.1738 99.2001 41.1738ZM138.224 32.3694C138.224 31.4426 137.973 30.5545 137.471 29.7049C137.008 28.8167 136.332 28.3727 135.444 28.3727C134.594 28.3727 133.919 28.4885 133.417 28.7202C132.953 28.9133 132.683 29.0098 132.606 29.0098C132.374 29.0098 132.258 28.8554 132.258 28.5464C132.258 28.2375 132.471 27.9479 132.895 27.6776C133.359 27.3687 134.15 27.2142 135.27 27.2142C136.429 27.2142 137.375 27.6969 138.108 28.6623C138.881 29.6277 139.306 30.6896 139.383 31.8481V14.1814H145.117V41H139.383V32.5432C139.228 34.976 138.031 37.0998 135.792 38.9148C133.552 40.6911 131.216 41.5792 128.783 41.5792C126.234 41.5792 124.342 40.7104 123.106 38.9727C121.909 37.1964 121.311 33.4506 121.311 27.7355V14.1814H127.103V26.2295C127.103 30.7861 127.335 34.1843 127.798 36.424C128.3 38.6638 129.227 39.7836 130.578 39.7836C132.278 39.7836 133.977 38.992 135.676 37.4087C137.375 35.8255 138.224 34.1457 138.224 32.3694Z" fill="#FFD037"/>
<path d="M14.8743 34.3388L15.804 34.6687L15.8073 34.659L14.8743 34.3388ZM25.6481 2.94423L24.7211 2.60715L24.7181 2.61558L24.7151 2.62406L25.6481 2.94423ZM28.4284 3.58139L27.5014 3.9185L27.5054 3.92913L28.4284 3.58139ZM40.9978 36.9454L41.9306 36.6247L41.926 36.6111L41.9209 36.5976L40.9978 36.9454ZM45.8634 37.7563L46.7051 38.2706L46.7126 38.2583L46.7198 38.2457L45.8634 37.7563ZM46.3268 36.9454L47.1832 37.4347L47.1968 37.411L47.209 37.3865L46.3268 36.9454ZM45.4 39.6678L46.0975 40.3652V40.3652L45.4 39.6678ZM35.0896 37.9301L34.1658 38.2758L34.1667 38.278L35.0896 37.9301ZM31.5563 28.4885L32.4801 28.1428L32.2404 27.5021H31.5563V28.4885ZM18.0601 28.4885V27.5021H17.3567L17.1275 28.1672L18.0601 28.4885ZM15.6853 35.3814L14.7527 35.0601L14.7526 35.0603L15.6853 35.3814ZM12.6732 40.3049L13.2734 41.0877L13.2771 41.0849L12.6732 40.3049ZM2.76831 39.0306L3.53853 38.4144L2.76831 39.0306ZM2.24699 28.4885L3.00087 29.1246L3.00677 29.1176L3.01253 29.1105L2.24699 28.4885ZM8.61858 27.33L9.09091 26.4641L8.61858 27.33ZM9.42951 29.4153L8.73204 30.1128H8.73204L9.42951 29.4153ZM2.94208 29.3574L3.75828 29.9112H3.75828L2.94208 29.3574ZM3.81093 38.3934L4.53722 37.726L3.81093 38.3934ZM12.1519 39.2623L12.8184 39.9894L12.8197 39.9882L12.1519 39.2623ZM24.5476 9.60544L25.4722 9.26207L24.5138 6.68099L23.6152 9.28351L24.5476 9.60544ZM18.4077 27.388L17.4753 27.066L17.0236 28.3743H18.4077V27.388ZM31.1508 27.388V28.3743H32.5693L32.0755 27.0446L31.1508 27.388ZM15.8073 34.659L26.5811 3.2644L24.7151 2.62406L13.9414 34.0186L15.8073 34.659ZM26.5751 3.28132C26.8818 2.43801 27.1223 1.82987 27.2991 1.44092C27.3897 1.24154 27.4492 1.13191 27.4795 1.08444C27.4968 1.0572 27.4823 1.08588 27.4353 1.13289C27.4306 1.13757 27.2064 1.38197 26.8066 1.38197V-0.590777C26.3681 -0.590777 26.0981 -0.319831 26.0403 -0.262053C25.9402 -0.161951 25.8654 -0.053627 25.8151 0.0253258C25.7102 0.190246 25.6056 0.3992 25.5032 0.624591C25.2938 1.08519 25.0323 1.75137 24.7211 2.60715L26.5751 3.28132ZM26.8066 1.38197C26.5611 1.38197 26.4025 1.27885 26.355 1.24445C26.3026 1.20655 26.2891 1.18285 26.3115 1.21089C26.3558 1.26634 26.4409 1.39641 26.5647 1.63954C26.8072 2.11594 27.1192 2.86724 27.5014 3.91848L29.3554 3.2443C28.9654 2.17168 28.6208 1.33008 28.3228 0.744544C28.1762 0.456709 28.02 0.188559 27.8519 -0.0214748C27.7682 -0.126174 27.6556 -0.249438 27.5116 -0.353703C27.3723 -0.454471 27.1293 -0.590777 26.8066 -0.590777V1.38197ZM27.5054 3.92913L40.0748 37.2931L41.9209 36.5976L29.3515 3.23365L27.5054 3.92913ZM40.065 37.266C40.3391 38.0633 40.8128 38.7209 41.5088 39.1663C42.1929 39.6041 43.0106 39.7853 43.894 39.7853V37.8125C43.2714 37.8125 42.8535 37.6847 42.5722 37.5047C42.3027 37.3323 42.0814 37.0631 41.9306 36.6247L40.065 37.266ZM43.894 39.7853C45.0885 39.7853 46.0825 39.2894 46.7051 38.2706L45.0218 37.2419C44.7948 37.6133 44.4759 37.8125 43.894 37.8125V39.7853ZM46.7198 38.2457C46.7607 38.1742 46.7948 38.1144 46.8357 38.0429C46.8765 37.9715 46.9107 37.9117 46.9515 37.8402C46.9973 37.76 47.1374 37.5149 47.1832 37.4347L45.4704 36.456C45.4246 36.5361 45.4003 36.5786 45.3546 36.6587C45.3088 36.7388 45.2845 36.7813 45.2387 36.8614C45.1962 36.9359 45.0496 37.1924 45.007 37.2669L46.7198 38.2457ZM47.209 37.3865C47.2407 37.3231 47.2668 37.2749 47.2874 37.2396C47.3088 37.2029 47.3193 37.1888 47.3186 37.1896C47.3179 37.1906 47.3112 37.1996 47.2983 37.2136C47.286 37.227 47.2618 37.252 47.2254 37.2812C47.1901 37.3094 47.1296 37.3526 47.0442 37.3906C46.9573 37.4292 46.8307 37.4683 46.6744 37.4683V35.4956C46.3315 35.4956 46.094 35.6599 45.993 35.7407C45.8783 35.8325 45.7947 35.9336 45.7404 36.006C45.6297 36.1537 45.5311 36.3312 45.4446 36.5042L47.209 37.3865ZM46.6744 37.4683C46.6527 37.4683 46.5872 37.4647 46.5018 37.4268C46.4108 37.3863 46.3321 37.3221 46.2762 37.2476C46.1786 37.1174 46.2093 37.0402 46.2093 37.177H48.182C48.182 36.8505 48.1258 36.4258 47.8544 36.0639C47.543 35.6487 47.0888 35.4956 46.6744 35.4956V37.4683ZM46.2093 37.177C46.2093 37.0937 46.2321 37.0843 46.1882 37.1792C46.1485 37.265 46.0739 37.3939 45.9466 37.5704C45.6917 37.924 45.2845 38.3883 44.7026 38.9703L46.0975 40.3652C46.7126 39.7501 47.2033 39.2007 47.5469 38.7241C47.7189 38.4855 47.8687 38.2451 47.9786 38.0076C48.0844 37.779 48.182 37.4921 48.182 37.177H46.2093ZM44.7026 38.9703C43.7348 39.938 42.3511 40.477 40.4186 40.477V42.4498C42.7338 42.4498 44.6711 41.7917 46.0975 40.3652L44.7026 38.9703ZM40.4186 40.477C39.2317 40.477 38.3234 40.2157 37.6331 39.758C36.9471 39.3032 36.3972 38.6022 36.0126 37.5821L34.1667 38.278C34.6702 39.6135 35.4526 40.6792 36.5429 41.4021C37.6289 42.1222 38.941 42.4498 40.4186 42.4498V40.477ZM36.0134 37.5843L32.4801 28.1428L30.6325 28.8342L34.1658 38.2758L36.0134 37.5843ZM31.5563 27.5021H18.0601V29.4749H31.5563V27.5021ZM17.1275 28.1672L14.7527 35.0601L16.6178 35.7027L18.9927 28.8098L17.1275 28.1672ZM14.7526 35.0603C13.9678 37.34 13.0452 38.7695 12.0694 39.525L13.2771 41.0849C14.6954 39.9868 15.7808 38.134 16.6179 35.7025L14.7526 35.0603ZM12.0731 39.5221C11.1179 40.2544 9.89239 40.6508 8.32897 40.6508V42.6235C10.241 42.6235 11.9116 42.1317 13.2734 41.0877L12.0731 39.5221ZM8.32897 40.6508C6.29738 40.6508 4.73277 39.9072 3.53853 38.4144L1.99808 39.6468C3.58417 41.6294 5.72666 42.6235 8.32897 42.6235V40.6508ZM3.53853 38.4144C2.27221 36.8315 1.66943 35.1716 1.66943 33.412H-0.303314C-0.303314 35.6685 0.484075 37.7543 1.99808 39.6468L3.53853 38.4144ZM1.66943 33.412C1.66943 31.5347 2.14481 30.1392 3.00087 29.1246L1.49312 27.8524C0.263933 29.3092 -0.303314 31.1961 -0.303314 33.412H1.66943ZM3.01253 29.1105C3.82522 28.1103 4.85453 27.6213 6.1858 27.6213V25.6486C4.27335 25.6486 2.67679 26.3953 1.48146 27.8665L3.01253 29.1105ZM6.1858 27.6213C6.7564 27.6213 7.40558 27.792 8.14626 28.196L9.09091 26.4641C8.1325 25.9413 7.15981 25.6486 6.1858 25.6486V27.6213ZM8.14626 28.196C9.37952 28.8687 9.54369 29.3513 9.54369 29.5311H11.5164C11.5164 28.1663 10.4063 27.1816 9.09091 26.4641L8.14626 28.196ZM9.54369 29.5311C9.54369 29.6148 9.52487 29.5101 9.62121 29.3559C9.6783 29.2646 9.77053 29.1659 9.90298 29.0952C10.0329 29.0259 10.1554 29.0082 10.2404 29.0082V30.9809C10.6524 30.9809 11.0529 30.7874 11.2941 30.4015C11.487 30.0928 11.5164 29.7564 11.5164 29.5311H9.54369ZM10.2404 29.0082C10.3225 29.0082 10.387 29.0207 10.4281 29.0316C10.4696 29.0425 10.4979 29.0544 10.511 29.0604C10.5346 29.0711 10.5308 29.0725 10.4952 29.0471C10.4232 28.9957 10.3027 28.8936 10.127 28.7178L8.73204 30.1128C8.94244 30.3232 9.15017 30.5107 9.34855 30.6524C9.49659 30.7581 9.82631 30.9809 10.2404 30.9809V29.0082ZM10.127 28.7178C8.87672 27.4676 7.46169 26.7491 5.89618 26.7491V28.7219C6.80207 28.7219 7.7426 29.1233 8.73204 30.1128L10.127 28.7178ZM5.89618 26.7491C4.31183 26.7491 3.03062 27.4702 2.12588 28.8035L3.75828 29.9112C4.32093 29.082 5.00912 28.7219 5.89618 28.7219V26.7491ZM2.12588 28.8035C1.24792 30.0974 0.855157 31.7391 0.855157 33.6437H2.8279C2.8279 31.9957 3.16884 30.7799 3.75828 29.9112L2.12588 28.8035ZM0.855157 33.6437C0.855157 35.6581 1.62551 37.473 3.08464 39.0608L4.53722 37.726C3.37048 36.4563 2.8279 35.1047 2.8279 33.6437H0.855157ZM3.08464 39.0608C4.54991 40.6554 6.28739 41.523 8.27104 41.523V39.5502C6.93374 39.5502 5.69781 38.989 4.53722 37.726L3.08464 39.0608ZM8.27104 41.523C10.0973 41.523 11.6578 41.0534 12.8184 39.9894L11.4854 38.5352C10.7925 39.1703 9.76572 39.5502 8.27104 39.5502V41.523ZM12.8197 39.9882C13.9694 38.9305 14.9421 37.0975 15.8039 34.6686L13.9447 34.0089C13.1075 36.3684 12.2652 37.8178 11.4841 38.5364L12.8197 39.9882ZM23.6152 9.28351L17.4753 27.066L19.34 27.7099L25.4799 9.92736L23.6152 9.28351ZM18.4077 28.3743H31.1508V26.4016H18.4077V28.3743ZM32.0755 27.0446L25.4722 9.26207L23.6229 9.9488L30.2262 27.7313L32.0755 27.0446ZM53.3772 39.2623L52.7877 40.0531L52.7957 40.0591L52.8039 40.0649L53.3772 39.2623ZM51.3499 28.4885L50.5332 27.9353L50.527 27.9445L50.521 27.9538L51.3499 28.4885ZM54.4198 25.824L54.8385 26.7172L54.8528 26.7104L54.8669 26.7033L54.4198 25.824ZM68.4373 25.824L68.0534 26.7326L69.4366 27.3171L69.4236 25.8155L68.4373 25.824ZM66.7575 16.9038L65.9465 17.4653L65.9548 17.4772L65.9634 17.4889L66.7575 16.9038ZM56.1575 15.8612L55.7164 14.9789L55.7079 14.9833L56.1575 15.8612ZM55.2307 15.1661L55.7301 16.0168L55.7356 16.0135L55.2307 15.1661ZM74.2297 41V41.9864H75.216V41H74.2297ZM68.4373 41H67.4509V41.9864H68.4373V41ZM68.4373 36.424H69.4237L67.4665 36.2498L68.4373 36.424ZM65.8308 40.1311L65.2886 39.3071L65.8308 40.1311ZM65.8887 30.7475L66.4513 29.9374L66.4436 29.932L66.4358 29.9268L65.8887 30.7475ZM68.4373 34.7443L67.4669 34.9207L69.4237 34.7443H68.4373ZM68.4373 26.8667H69.4237V26.2006L68.8058 25.9517L68.4373 26.8667ZM57.4898 27.388L56.6757 26.831L57.4898 27.388ZM57.2001 38.2197L56.3317 38.6873L56.3389 38.7007L56.3465 38.7139L57.2001 38.2197ZM65.4253 39.1464L65.9724 39.9672L65.9809 39.9615L65.9893 39.9557L65.4253 39.1464ZM65.2515 31.7322L64.744 32.578L64.7581 32.5865L64.7725 32.5945L65.2515 31.7322ZM60.7914 40.5929C58.2065 40.5929 55.9377 39.879 53.9505 38.4596L52.8039 40.0649C55.1417 41.7348 57.8156 42.5656 60.7914 42.5656V40.5929ZM53.9667 38.4715C52.1067 37.0849 51.1778 35.2039 51.1778 32.7169H49.205C49.205 35.7907 50.3999 38.2732 52.7877 40.0531L53.9667 38.4715ZM51.1778 32.7169C51.1778 31.2578 51.5229 30.0397 52.1787 29.0233L50.521 27.9538C49.6322 29.3315 49.205 30.9324 49.205 32.7169H51.1778ZM52.1665 29.0417C52.884 27.9826 53.7733 27.2165 54.8385 26.7172L54.0012 24.9309C52.5949 25.5901 51.4376 26.6003 50.5332 27.9353L52.1665 29.0417ZM54.8669 26.7033C57.0318 25.6025 59.0998 25.0727 61.081 25.0727V23.1C58.7373 23.1 56.3645 23.7287 53.9727 24.9448L54.8669 26.7033ZM61.081 25.0727C63.072 25.0727 65.3904 25.6074 68.0534 26.7326L68.8212 24.9154C66.0008 23.7237 63.415 23.1 61.081 23.1V25.0727ZM69.4236 25.8155C69.4041 23.5424 69.2523 21.6162 68.9577 20.0519C68.6662 18.5038 68.2198 17.2255 67.5516 16.3187L65.9634 17.4889C66.3765 18.0495 66.7507 18.9916 67.0191 20.4169C67.2844 21.8261 67.432 23.6263 67.451 25.8325L69.4236 25.8155ZM67.5685 16.3424C66.303 14.5144 64.3423 13.6584 61.892 13.6584V15.6312C63.8438 15.6312 65.1268 16.2812 65.9465 17.4653L67.5685 16.3424ZM61.892 13.6584C59.57 13.6584 57.5014 14.0864 55.7164 14.9789L56.5986 16.7434C58.0573 16.0141 59.8117 15.6312 61.892 15.6312V13.6584ZM55.7079 14.9833C53.917 15.9005 52.7963 17.2637 52.7963 19.1049H54.769C54.769 18.243 55.2315 17.4437 56.6072 16.7391L55.7079 14.9833ZM52.7963 19.1049C52.7963 19.2048 52.7716 19.0957 52.8963 18.9597C52.9586 18.8916 53.0297 18.8504 53.0872 18.8296C53.139 18.8107 53.1646 18.8136 53.1455 18.8136V20.7864C53.5331 20.7864 53.9985 20.6767 54.3505 20.2927C54.6875 19.925 54.769 19.4684 54.769 19.1049H52.7963ZM53.1455 18.8136C53.13 18.8136 53.2923 18.8137 53.4409 18.9772C53.5734 19.1229 53.5526 19.2452 53.5526 19.1628H51.5799C51.5799 19.5052 51.6557 19.9461 51.9812 20.3042C52.3229 20.6801 52.7749 20.7864 53.1455 20.7864V18.8136ZM53.5526 19.1628C53.5526 17.9877 54.1614 16.9375 55.73 16.0168L54.7314 14.3154C52.7475 15.4799 51.5799 17.0942 51.5799 19.1628H53.5526ZM55.7356 16.0135C57.3276 15.065 59.783 14.5306 63.2242 14.5306V12.5579C59.6374 12.5579 56.7637 13.1047 54.7259 14.3187L55.7356 16.0135ZM63.2242 14.5306C66.6942 14.5306 69.1312 15.5457 70.7261 17.426C72.3473 19.3374 73.2433 22.3102 73.2433 26.5191H75.216C75.216 22.0781 74.2777 18.5635 72.2305 16.1499C70.1569 13.7052 67.0911 12.5579 63.2242 12.5579V14.5306ZM73.2433 26.5191V41H75.216V26.5191H73.2433ZM74.2297 40.0136H68.4373V41.9864H74.2297V40.0136ZM69.4237 41V36.424H67.4509V41H69.4237ZM67.4665 36.2498C67.2511 37.4494 66.5667 38.4663 65.2886 39.3071L66.3729 40.9552C68.0296 39.8652 69.0829 38.4107 69.4082 36.5983L67.4665 36.2498ZM65.2886 39.3071C63.9947 40.1584 62.5065 40.5929 60.7914 40.5929V42.5656C62.8607 42.5656 64.732 42.0347 66.3729 40.9552L65.2886 39.3071ZM65.3261 31.5577C66.4969 32.3708 67.2036 33.4727 67.4669 34.9207L69.4078 34.5678C69.0532 32.6177 68.0608 31.055 66.4513 29.9374L65.3261 31.5577ZM69.4237 34.7443V26.8667H67.4509V34.7443H69.4237ZM68.8058 25.9517C65.9778 24.8126 63.5628 24.2005 61.6023 24.2005V26.1732C63.1945 26.1732 65.3362 26.681 68.0688 27.7816L68.8058 25.9517ZM61.6023 24.2005C59.5301 24.2005 57.8585 25.1023 56.6757 26.831L58.3038 27.945C59.1291 26.7388 60.1992 26.1732 61.6023 26.1732V24.2005ZM56.6757 26.831C55.5391 28.4922 54.9974 30.4916 54.9974 32.7749H56.9701C56.9701 30.8104 57.4324 29.2185 58.3038 27.945L56.6757 26.831ZM54.9974 32.7749C54.9974 35.0231 55.4268 37.0069 56.3317 38.6873L58.0686 37.752C57.3516 36.4204 56.9701 34.7743 56.9701 32.7749H54.9974ZM56.3465 38.7139C57.3678 40.4779 58.9436 41.4071 60.9652 41.4071V39.4344C59.6658 39.4344 58.7316 38.8962 58.0538 37.7255L56.3465 38.7139ZM60.9652 41.4071C62.8369 41.4071 64.5186 40.9364 65.9724 39.9672L64.8781 38.3257C63.7833 39.0556 62.4917 39.4344 60.9652 39.4344V41.4071ZM65.9893 39.9557C67.4408 38.944 68.3231 37.6318 68.3231 36.0186H66.3504C66.3504 36.7995 65.9584 37.5726 64.8613 38.3372L65.9893 39.9557ZM68.3231 36.0186C68.3231 33.7037 67.5321 31.8709 65.7305 30.87L64.7725 32.5945C65.7512 33.1382 66.3504 34.1629 66.3504 36.0186H68.3231ZM65.759 30.8864C65.5145 30.7397 65.3913 30.6315 65.3395 30.5728C65.2879 30.5144 65.369 30.578 65.369 30.7475H63.3963C63.3963 31.226 63.6222 31.6082 63.8603 31.878C64.0981 32.1475 64.4093 32.3772 64.744 32.578L65.759 30.8864ZM65.369 30.7475C65.369 30.7152 65.379 30.8751 65.2263 31.0495C65.0517 31.2491 64.8418 31.2705 64.7881 31.2705V29.2978C64.4641 29.2978 64.0515 29.3964 63.7417 29.7505C63.4539 30.0793 63.3963 30.471 63.3963 30.7475H65.369ZM64.7881 31.2705C64.745 31.2705 64.7687 31.2609 64.8832 31.3091C64.9915 31.3547 65.1429 31.4358 65.3415 31.5682L66.4358 29.9268C65.9503 29.6031 65.3718 29.2978 64.7881 29.2978V31.2705ZM91.0908 37.0612L91.9398 36.559L91.9347 36.5505L91.0908 37.0612ZM89.5269 32.9486L90.5061 32.8299L90.5057 32.8263L89.5269 32.9486ZM88.716 18.1202L87.7395 18.2597L87.7409 18.2696L87.7426 18.2795L88.716 18.1202ZM82.4602 16.73L81.6711 16.1382L81.6681 16.1423L82.4602 16.73ZM86.1094 24.3759L85.6418 23.5075L86.1094 24.3759ZM86.1673 25.6503L86.4184 26.6042L86.4347 26.5999L86.4508 26.595L86.1673 25.6503ZM81.128 24.3759L80.3254 24.9493L80.3303 24.9562L80.3354 24.9631L81.128 24.3759ZM82.1706 15.6295L82.8283 16.3646L82.8336 16.3598L82.8389 16.355L82.1706 15.6295ZM91.2067 14.6448L90.5821 15.4082L90.5904 15.415L90.5988 15.4216L91.2067 14.6448ZM93.1761 17.1355L92.2733 17.5327L92.283 17.5549L92.2939 17.5766L93.1761 17.1355ZM94.2766 20.8426L95.2511 20.6898L95.2497 20.6811L95.2482 20.6726L94.2766 20.8426ZM95.6089 37.4087L96.5446 37.0968L95.6089 37.4087ZM108.12 35.1497L107.306 34.5938L107.304 34.5959L108.12 35.1497ZM110.032 17.3093L109.166 17.7816L109.17 17.7891L109.174 17.7965L110.032 17.3093ZM102.386 16.2087L103.126 16.8603L102.386 16.2087ZM101.923 22.3486L101.128 22.9337L101.146 22.9574L101.165 22.9801L101.923 22.3486ZM105.34 23.1595L105.069 22.2111L105.059 22.2139L105.05 22.2168L105.34 23.1595ZM104.935 24.5497V25.5361H104.966L104.998 25.534L104.935 24.5497ZM101.054 23.1595L100.268 23.7564L100.282 23.774L100.296 23.791L101.054 23.1595ZM101.691 15.2819L102.351 16.0151L102.357 16.0091L102.364 16.003L101.691 15.2819ZM109.684 14.7606L110.297 13.9873L109.684 14.7606ZM111.712 17.9464L110.768 18.2347L110.769 18.2354L111.712 17.9464ZM109.279 52.8743L108.702 52.0743L108.693 52.0806L109.279 52.8743ZM92.6548 53.2219L93.2052 52.4033L93.2019 52.4012L92.6548 53.2219ZM90.0482 44.0699L90.8373 44.6618L90.8537 44.6399L90.8689 44.6171L90.0482 44.0699ZM90.8592 45.1705L91.7414 45.6116L90.8592 45.1705ZM93.234 52.1213L93.8442 51.3462L93.8338 51.3383L93.234 52.1213ZM104.761 51.7159L104.023 51.0615L104.014 51.0711L104.761 51.7159ZM107.02 38.741H108.006V36.7242L106.414 37.9624L107.02 38.741ZM99.2001 40.1874C95.6872 40.1874 93.348 38.9396 91.9398 36.559L90.2419 37.5634C92.0774 40.6662 95.1444 42.1601 99.2001 42.1601V40.1874ZM91.9347 36.5505C91.0958 35.1645 90.6391 33.9271 90.5061 32.8299L88.5477 33.0673C88.7236 34.5188 89.3095 36.0231 90.247 37.5719L91.9347 36.5505ZM90.5057 32.8263C90.3205 31.3447 90.2237 29.0777 90.2237 25.9978H88.2509C88.2509 29.0964 88.3472 31.4633 88.5482 33.071L90.5057 32.8263ZM90.2237 25.9978C90.2237 22.8382 90.0485 20.1552 89.6894 17.9609L87.7426 18.2795C88.0786 20.3329 88.2509 22.9016 88.2509 25.9978H90.2237ZM89.6924 17.9807C89.5275 16.8258 89.2134 15.8266 88.6652 15.0956C88.0799 14.3152 87.2607 13.8901 86.2832 13.8901V15.8629C86.6186 15.8629 86.8614 15.9784 87.087 16.2792C87.3497 16.6295 87.5956 17.2521 87.7395 18.2597L89.6924 17.9807ZM86.2832 13.8901C84.369 13.8901 82.7948 14.64 81.6711 16.1382L83.2493 17.3219C83.9792 16.3487 84.9537 15.8629 86.2832 15.8629V13.8901ZM81.6681 16.1423C80.6805 17.4734 80.1416 18.8911 80.1416 20.3792H82.1144C82.1144 19.396 82.4637 18.3808 83.2524 17.3178L81.6681 16.1423ZM80.1416 20.3792C80.1416 21.9442 80.4354 23.2986 81.1838 24.2793C81.9707 25.3104 83.1334 25.7678 84.4876 25.7678V23.795C83.602 23.795 83.085 23.5188 82.752 23.0825C82.3806 22.5957 82.1144 21.749 82.1144 20.3792H80.1416ZM84.4876 25.7678C85.2273 25.7678 85.929 25.5934 86.5771 25.2444L85.6418 23.5075C85.2859 23.6991 84.9063 23.795 84.4876 23.795V25.7678ZM86.5771 25.2444C86.8255 25.1106 87.0082 25.0149 87.1298 24.9541C87.1921 24.9229 87.2276 24.9063 87.2433 24.8995C87.2523 24.8955 87.2424 24.9003 87.2209 24.9078C87.2103 24.9115 87.1847 24.9202 87.1496 24.929C87.1316 24.9335 87.1045 24.9397 87.071 24.945C87.0397 24.95 86.9867 24.9569 86.9203 24.9569V22.9841C86.7972 22.9841 86.7018 23.0075 86.6712 23.0151C86.6276 23.026 86.5918 23.0379 86.5692 23.0458C86.5235 23.0618 86.4822 23.0792 86.4526 23.0921C86.391 23.1191 86.3204 23.1532 86.2475 23.1896C86.0988 23.264 85.8953 23.3709 85.6418 23.5075L86.5771 25.2444ZM86.9203 24.9569C86.8436 24.9569 86.7288 24.9392 86.6084 24.8703C86.4876 24.8013 86.4127 24.7103 86.3724 24.6413C86.3358 24.5784 86.3301 24.5388 86.3322 24.5497C86.334 24.559 86.3394 24.5947 86.3394 24.6656H88.3122C88.3122 24.3703 88.2748 23.9873 88.0765 23.6472C87.8304 23.2255 87.403 22.9841 86.9203 22.9841V24.9569ZM86.3394 24.6656C86.3394 24.6159 86.3523 24.5617 86.3757 24.5159C86.397 24.4745 86.4144 24.4643 86.3974 24.4788C86.3514 24.5178 86.208 24.6083 85.8839 24.7055L86.4508 26.595C86.899 26.4606 87.3348 26.2711 87.675 25.9819C88.0417 25.6702 88.3122 25.2237 88.3122 24.6656H86.3394ZM85.9163 24.6964C85.2521 24.8712 84.6419 24.9535 84.0821 24.9535V26.9263C84.8352 26.9263 85.6152 26.8155 86.4184 26.6042L85.9163 24.6964ZM84.0821 24.9535C83.2268 24.9535 82.525 24.6048 81.9206 23.7888L80.3354 24.9631C81.2756 26.2323 82.5432 26.9263 84.0821 26.9263V24.9535ZM81.9306 23.8026C81.2763 22.8865 80.9559 21.8894 80.9559 20.7847H78.9832C78.9832 22.3058 79.4351 23.7029 80.3254 24.9493L81.9306 23.8026ZM80.9559 20.7847C80.9559 18.9166 81.5879 17.4744 82.8283 16.3646L81.5129 14.8944C79.8186 16.4104 78.9832 18.405 78.9832 20.7847H80.9559ZM82.8389 16.355C84.0832 15.2089 85.7931 14.5885 88.0788 14.5885V12.6158C85.4217 12.6158 83.1928 13.347 81.5024 14.904L82.8389 16.355ZM88.0788 14.5885C89.1172 14.5885 89.9309 14.8754 90.5821 15.4082L91.8313 13.8814C90.7834 13.024 89.5119 12.6158 88.0788 12.6158V14.5885ZM90.5988 15.4216C91.368 16.0235 91.9185 16.7265 92.2733 17.5327L94.0789 16.7382C93.5841 15.6137 92.8217 14.6562 91.8146 13.868L90.5988 15.4216ZM92.2939 17.5766C92.6985 18.386 93.0437 19.5191 93.305 21.0126L95.2482 20.6726C94.969 19.0768 94.5804 17.7386 94.0583 16.6944L92.2939 17.5766ZM93.3022 20.9955C93.5992 22.8887 93.7537 25.6472 93.7537 29.2994H95.7264C95.7264 25.6147 95.572 22.7353 95.2511 20.6898L93.3022 20.9955ZM93.7537 29.2994C93.7537 32.9898 94.0414 35.8254 94.6731 37.7207L96.5446 37.0968C96.0179 35.5167 95.7264 32.946 95.7264 29.2994H93.7537ZM94.6731 37.7207C95.022 38.7672 95.6233 39.6157 96.5037 40.1899C97.3729 40.7568 98.4302 41.0017 99.6056 41.0017V39.0289C98.6958 39.0289 98.0443 38.8394 97.5813 38.5375C97.1294 38.2428 96.775 37.788 96.5446 37.0968L94.6731 37.7207ZM99.6056 41.0017C103.454 41.0017 106.579 39.1774 108.937 35.7036L107.304 34.5959C105.259 37.6095 102.708 39.0289 99.6056 39.0289V41.0017ZM108.935 35.7057C111.296 32.2465 112.466 28.265 112.466 23.7967H110.494C110.494 27.9011 109.425 31.4883 107.306 34.5938L108.935 35.7057ZM112.466 23.7967C112.466 21.0565 111.963 18.7121 110.889 16.822L109.174 17.7965C110.031 19.3047 110.494 21.2851 110.494 23.7967H112.466ZM110.898 16.8369C110.362 15.8547 109.651 15.0754 108.75 14.547C107.85 14.0191 106.817 13.7743 105.688 13.7743V15.747C106.527 15.747 107.203 15.9269 107.752 16.2486C108.299 16.5697 108.775 17.0647 109.166 17.7816L110.898 16.8369ZM105.688 13.7743C104.069 13.7743 102.693 14.3669 101.645 15.5571L103.126 16.8603C103.778 16.1198 104.603 15.747 105.688 15.747V13.7743ZM101.645 15.5571C100.65 16.6881 100.125 17.9968 100.125 19.4524H102.098C102.098 18.5139 102.423 17.6602 103.126 16.8603L101.645 15.5571ZM100.125 19.4524C100.125 20.7943 100.429 21.9843 101.128 22.9337L102.717 21.7635C102.335 21.2455 102.098 20.5047 102.098 19.4524H100.125ZM101.165 22.9801C101.918 23.8833 102.902 24.3776 104.066 24.3776V22.4049C103.53 22.4049 103.086 22.2041 102.68 21.7172L101.165 22.9801ZM104.066 24.3776C104.548 24.3776 105.077 24.2725 105.63 24.1023L105.05 22.2168C104.599 22.3555 104.278 22.4049 104.066 22.4049V24.3776ZM105.611 24.108C105.877 24.0318 106.078 23.9774 106.216 23.9427C106.286 23.9252 106.332 23.9149 106.359 23.9096C106.372 23.9069 106.374 23.9069 106.366 23.9079C106.366 23.9079 106.326 23.9142 106.267 23.9142V21.9415C106.138 21.9415 106.016 21.9664 105.972 21.9751C105.902 21.9891 105.822 22.0078 105.738 22.0289C105.568 22.0714 105.343 22.1328 105.069 22.2111L105.611 24.108ZM106.267 23.9142C106.237 23.9142 106.043 23.9005 105.877 23.7135C105.731 23.5486 105.744 23.4007 105.744 23.4492H107.717C107.717 23.1501 107.653 22.7416 107.352 22.4029C107.031 22.042 106.605 21.9415 106.267 21.9415V23.9142ZM105.744 23.4492C105.744 23.4576 105.744 23.4282 105.767 23.3892C105.788 23.3531 105.802 23.3532 105.766 23.3757C105.668 23.4355 105.408 23.5307 104.871 23.5654L104.998 25.534C105.658 25.4915 106.296 25.3647 106.797 25.0576C107.364 24.7099 107.717 24.1484 107.717 23.4492H105.744ZM104.935 23.5633H104.297V25.5361H104.935V23.5633ZM104.297 23.5633C103.15 23.5633 102.367 23.1943 101.811 22.5281L100.296 23.791C101.285 24.9783 102.664 25.5361 104.297 25.5361V23.5633ZM101.839 22.5627C101.274 21.8188 100.94 20.7573 100.94 19.2787H98.9668C98.9668 21.0438 99.3664 22.5696 100.268 23.7564L101.839 22.5627ZM100.94 19.2787C100.94 17.9235 101.409 16.8622 102.351 16.0151L101.031 14.5488C99.6553 15.7869 98.9668 17.3901 98.9668 19.2787H100.94ZM102.364 16.003C103.335 15.0967 104.483 14.6465 105.861 14.6465V12.6737C103.996 12.6737 102.364 13.3048 101.018 14.5609L102.364 16.003ZM105.861 14.6465C107.343 14.6465 108.374 14.9817 109.072 15.534L110.297 13.9873C109.141 13.0722 107.624 12.6737 105.861 12.6737V14.6465ZM109.072 15.534C109.809 16.1173 110.388 16.9916 110.768 18.2347L112.655 17.6582C112.185 16.1209 111.413 14.8714 110.297 13.9873L109.072 15.534ZM110.769 18.2354C111.463 20.5019 111.826 23.465 111.826 27.1563H113.799C113.799 23.3561 113.428 20.1793 112.655 17.6574L110.769 18.2354ZM111.826 27.1563V45.6339H113.799V27.1563H111.826ZM111.826 45.6339C111.826 48.4733 110.778 50.5767 108.702 52.0743L109.856 53.6743C112.491 51.7737 113.799 49.0502 113.799 45.6339H111.826ZM108.693 52.0806C106.526 53.6796 103.937 54.4945 100.88 54.4945V56.4673C104.31 56.4673 107.321 55.5444 109.864 53.6681L108.693 52.0806ZM100.88 54.4945C97.7921 54.4945 95.2518 53.7795 93.2052 52.4033L92.1044 54.0404C94.5372 55.6763 97.4803 56.4673 100.88 56.4673V54.4945ZM93.2019 52.4012C91.2678 51.1117 90.3395 49.3885 90.3395 47.1399H88.3668C88.3668 50.0658 89.6396 52.3972 92.1076 54.0426L93.2019 52.4012ZM90.3395 47.1399C90.3395 45.767 90.572 45.0155 90.8373 44.6618L89.2591 43.4781C88.5976 44.3601 88.3668 45.6552 88.3668 47.1399H90.3395ZM90.8689 44.6171C90.8652 44.6227 90.8555 44.6356 90.8384 44.6511C90.821 44.6667 90.8005 44.6807 90.779 44.6915C90.7339 44.7141 90.7127 44.7088 90.7433 44.7088V42.736C90.147 42.736 89.5873 42.9832 89.2275 43.5228L90.8689 44.6171ZM90.7433 44.7088C90.7195 44.7088 90.6532 44.7052 90.5667 44.6691C90.4741 44.6305 90.3871 44.5665 90.3206 44.4834C90.1985 44.3307 90.2203 44.214 90.2203 44.3016H92.1931C92.1931 44.0032 92.1377 43.5968 91.8611 43.251C91.5508 42.8632 91.1155 42.736 90.7433 42.736V44.7088ZM90.2203 44.3016C90.2203 44.2388 90.2277 44.1941 90.2308 44.1768C90.2344 44.157 90.2374 44.1472 90.2365 44.1501C90.2345 44.1572 90.2258 44.185 90.204 44.2394C90.1606 44.3478 90.0874 44.5085 89.9769 44.7294L91.7414 45.6116C91.8626 45.3691 91.9631 45.1533 92.0356 44.9721C92.0718 44.8817 92.1064 44.7864 92.1334 44.6921C92.1561 44.6128 92.1931 44.4684 92.1931 44.3016H90.2203ZM89.9769 44.7294C89.6488 45.3856 89.5252 46.1958 89.5252 47.082H91.498C91.498 46.3462 91.6061 45.8822 91.7414 45.6116L89.9769 44.7294ZM89.5252 47.082C89.5252 49.4102 90.62 51.3615 92.6342 52.9044L93.8338 51.3383C92.2182 50.1008 91.498 48.6926 91.498 47.082H89.5252ZM92.6239 52.8963C94.6035 54.4548 96.8242 55.2509 99.2581 55.2509V53.2781C97.2898 53.2781 95.4944 52.6454 93.8441 51.3463L92.6239 52.8963ZM99.2581 55.2509C101.752 55.2509 103.857 54.2716 105.507 52.3606L104.014 51.0711C102.73 52.5583 101.166 53.2781 99.2581 53.2781V55.2509ZM105.499 52.3701C107.165 50.4899 108.006 48.2682 108.006 45.7497H106.033C106.033 47.7879 105.368 49.5436 104.023 51.0616L105.499 52.3701ZM108.006 45.7497V38.741H106.033V45.7497H108.006ZM106.414 37.9624C104.533 39.426 102.151 40.1874 99.2001 40.1874V42.1601C102.505 42.1601 105.337 41.2997 107.625 39.5196L106.414 37.9624ZM137.471 29.7049L136.597 30.1612L136.609 30.1843L136.622 30.2067L137.471 29.7049ZM133.417 28.7202L133.796 29.6307L133.813 29.6236L133.83 29.6158L133.417 28.7202ZM132.895 27.6776L133.425 28.5098L133.434 28.5041L133.442 28.4983L132.895 27.6776ZM138.108 28.6623L137.323 29.2591L137.331 29.2689L137.338 29.2785L138.108 28.6623ZM139.383 31.8481L138.399 31.9137L140.369 31.8481H139.383ZM139.383 14.1814V13.195H138.396V14.1814H139.383ZM145.117 14.1814H146.104V13.195H145.117V14.1814ZM145.117 41V41.9864H146.104V41H145.117ZM139.383 41H138.396V41.9864H139.383V41ZM139.383 32.5432H140.369L138.398 32.4807L139.383 32.5432ZM135.792 38.9148L136.404 39.6876L136.413 39.6811L135.792 38.9148ZM123.106 38.9727L122.288 39.5239L122.295 39.5342L122.302 39.5443L123.106 38.9727ZM121.311 14.1814V13.195H120.324V14.1814H121.311ZM127.103 14.1814H128.089V13.195H127.103V14.1814ZM127.798 36.424L126.832 36.6239L126.834 36.6318L126.836 36.6398L127.798 36.424ZM135.676 37.4087L136.348 38.1304L135.676 37.4087ZM139.211 32.3694C139.211 31.2546 138.906 30.1944 138.321 29.2031L136.622 30.2067C137.04 30.9145 137.238 31.6306 137.238 32.3694H139.211ZM138.346 29.2486C138.055 28.6907 137.667 28.2154 137.159 27.8814C136.644 27.5433 136.061 27.3863 135.444 27.3863V29.359C135.715 29.359 135.914 29.424 136.075 29.53C136.243 29.6402 136.425 29.831 136.597 30.1612L138.346 29.2486ZM135.444 27.3863C134.521 27.3863 133.686 27.5097 133.003 27.8246L133.83 29.6158C134.152 29.4673 134.668 29.359 135.444 29.359V27.3863ZM133.037 27.8097C132.812 27.9038 132.646 27.9687 132.535 28.0085C132.478 28.0287 132.447 28.0382 132.436 28.0413C132.43 28.0429 132.439 28.0403 132.457 28.0367C132.469 28.0345 132.526 28.0235 132.606 28.0235V29.9962C132.772 29.9962 132.918 29.9548 132.964 29.9421C133.039 29.9211 133.12 29.8944 133.198 29.8663C133.357 29.8096 133.558 29.7297 133.796 29.6307L133.037 27.8097ZM132.606 28.0235C132.656 28.0235 132.747 28.0319 132.854 28.0795C132.967 28.1296 133.064 28.2083 133.134 28.3022C133.261 28.4709 133.245 28.6061 133.245 28.5464H131.272C131.272 28.7957 131.314 29.1626 131.556 29.4858C131.838 29.8624 132.249 29.9962 132.606 29.9962V28.0235ZM133.245 28.5464C133.245 28.5847 133.238 28.6201 133.228 28.6482C133.218 28.6749 133.209 28.6857 133.213 28.6808C133.217 28.6753 133.232 28.6559 133.268 28.6249C133.303 28.5939 133.354 28.555 133.425 28.5098L132.366 26.8454C131.841 27.1793 131.272 27.728 131.272 28.5464H133.245ZM133.442 28.4983C133.648 28.3616 134.183 28.2006 135.27 28.2006V26.2278C134.118 26.2278 133.07 26.3758 132.348 26.8569L133.442 28.4983ZM135.27 28.2006C136.104 28.2006 136.766 28.5258 137.323 29.2591L138.894 28.0654C137.984 26.868 136.753 26.2278 135.27 26.2278V28.2006ZM137.338 29.2785C137.993 30.0973 138.336 30.9696 138.399 31.9137L140.367 31.7825C140.275 30.4096 139.768 29.1581 138.879 28.0461L137.338 29.2785ZM140.369 31.8481V14.1814H138.396V31.8481H140.369ZM139.383 15.1678H145.117V13.195H139.383V15.1678ZM144.131 14.1814V41H146.104V14.1814H144.131ZM145.117 40.0136H139.383V41.9864H145.117V40.0136ZM140.369 41V32.5432H138.396V41H140.369ZM138.398 32.4807C138.265 34.588 137.239 36.4725 135.171 38.1484L136.413 39.6811C138.824 37.7271 140.192 35.3639 140.367 32.6057L138.398 32.4807ZM135.179 38.1419C133.081 39.8052 130.956 40.5929 128.783 40.5929V42.5656C131.476 42.5656 134.022 41.577 136.404 39.6876L135.179 38.1419ZM128.783 40.5929C126.483 40.5929 124.923 39.8257 123.91 38.4011L122.302 39.5443C123.761 41.595 125.986 42.5656 128.783 42.5656V40.5929ZM123.924 38.4214C123.446 37.7112 123.025 36.4996 122.734 34.6755C122.446 32.8729 122.297 30.5643 122.297 27.7355H120.324C120.324 30.6219 120.475 33.0437 120.786 34.9868C121.093 36.9084 121.57 38.4579 122.288 39.5239L123.924 38.4214ZM122.297 27.7355V14.1814H120.324V27.7355H122.297ZM121.311 15.1678H127.103V13.195H121.311V15.1678ZM126.117 14.1814V26.2295H128.089V14.1814H126.117ZM126.117 26.2295C126.117 30.801 126.348 34.2818 126.832 36.6239L128.764 36.2242C128.322 34.0869 128.089 30.7713 128.089 26.2295H126.117ZM126.836 36.6398C127.103 37.8325 127.506 38.8431 128.11 39.5726C128.744 40.3394 129.584 40.77 130.578 40.77V38.7972C130.221 38.7972 129.922 38.6679 129.63 38.3148C129.307 37.9245 128.995 37.2553 128.761 36.2083L126.836 36.6398ZM130.578 40.77C132.606 40.77 134.534 39.8205 136.348 38.1304L135.003 36.6871C133.419 38.1634 131.949 38.7972 130.578 38.7972V40.77ZM136.348 38.1304C138.183 36.4209 139.211 34.4969 139.211 32.3694H137.238C137.238 33.7946 136.567 35.2301 135.003 36.6871L136.348 38.1304Z" fill="#FFD037"/>
</svg>
