<svg width="278" height="91" viewBox="0 0 278 91" fill="none" xmlns="http://www.w3.org/2000/svg">
<path d="M44.4361 66.7416C46.0998 66.7416 47.5374 67.0554 48.7487 67.683C49.9746 68.2959 50.9087 69.1789 51.5508 70.3318C52.2076 71.4848 52.5359 72.8421 52.5359 74.4037C52.5359 75.9653 52.2076 77.3225 51.5508 78.4755C50.9087 79.6138 49.9746 80.4895 48.7487 81.1024C47.5374 81.7008 46.0998 82 44.4361 82H39.6856V66.7416H44.4361ZM44.4361 80.3581C46.4063 80.3581 47.9095 79.84 48.9457 78.8038C49.9819 77.7531 50.5 76.2863 50.5 74.4037C50.5 72.5064 49.9746 71.0251 48.9238 69.9597C47.8876 68.8943 46.3917 68.3616 44.4361 68.3616H41.6778V80.3581H44.4361ZM61.534 68.3616V73.4623H67.0944V75.1042H61.534V80.3581H67.7512V82H59.5419V66.7198H67.7512V68.3616H61.534ZM79.9819 82.1532C78.9748 82.1532 78.07 81.9781 77.2673 81.6278C76.4792 81.263 75.859 80.7668 75.4065 80.1392C74.9541 79.4971 74.7206 78.7601 74.706 77.9282H76.8295C76.9025 78.6433 77.1943 79.249 77.7051 79.7452C78.2305 80.2268 78.9894 80.4676 79.9819 80.4676C80.9305 80.4676 81.6748 80.2341 82.2148 79.7671C82.7694 79.2855 83.0467 78.6725 83.0467 77.9282C83.0467 77.3444 82.8861 76.8701 82.565 76.5052C82.244 76.1404 81.8426 75.8631 81.361 75.6734C80.8794 75.4836 80.23 75.2793 79.4127 75.0604C78.4057 74.7977 77.5957 74.535 76.9827 74.2723C76.3844 74.0096 75.8663 73.601 75.4284 73.0464C75.0052 72.4772 74.7936 71.7183 74.7936 70.7697C74.7936 69.9378 75.0052 69.2008 75.4284 68.5586C75.8517 67.9165 76.4427 67.4203 77.2016 67.07C77.9751 66.7198 78.8581 66.5446 79.8505 66.5446C81.2807 66.5446 82.4483 66.9022 83.3531 67.6173C84.2726 68.3324 84.7907 69.2811 84.9074 70.4632H82.7183C82.6453 69.8794 82.3388 69.3686 81.7988 68.9308C81.2589 68.4784 80.5437 68.2522 79.6535 68.2522C78.8216 68.2522 78.143 68.4711 77.6176 68.9089C77.0922 69.3321 76.8295 69.9305 76.8295 70.704C76.8295 71.2586 76.9827 71.711 77.2892 72.0613C77.6103 72.4115 77.997 72.6815 78.4495 72.8713C78.9165 73.0464 79.5659 73.2507 80.3978 73.4842C81.4048 73.7615 82.2148 74.0388 82.8277 74.3161C83.4407 74.5788 83.9661 74.9947 84.4039 75.5639C84.8418 76.1185 85.0607 76.8774 85.0607 77.8406C85.0607 78.5849 84.8637 79.2855 84.4696 79.9422C84.0756 80.5989 83.4918 81.1316 82.7183 81.5403C81.9448 81.9489 81.0326 82.1532 79.9819 82.1532ZM101.762 66.7416V68.3616H97.6026V82H95.6105V68.3616H91.4292V66.7416H101.762ZM110.541 66.7416V76.3958C110.541 77.7531 110.869 78.7601 111.526 79.4168C112.197 80.0736 113.124 80.4019 114.306 80.4019C115.474 80.4019 116.386 80.0736 117.043 79.4168C117.714 78.7601 118.05 77.7531 118.05 76.3958V66.7416H120.042V76.3739C120.042 77.6436 119.786 78.7163 119.276 79.5919C118.765 80.453 118.071 81.0952 117.196 81.5184C116.335 81.9416 115.364 82.1532 114.284 82.1532C113.204 82.1532 112.226 81.9416 111.351 81.5184C110.49 81.0952 109.804 80.453 109.293 79.5919C108.797 78.7163 108.549 77.6436 108.549 76.3739V66.7416H110.541ZM135.383 74.141C135.938 74.2285 136.441 74.4547 136.894 74.8196C137.361 75.1845 137.726 75.6369 137.988 76.1769C138.266 76.7169 138.404 77.2933 138.404 77.9063C138.404 78.6798 138.207 79.3803 137.813 80.0079C137.419 80.6208 136.843 81.1097 136.084 81.4746C135.34 81.8249 134.457 82 133.435 82H127.743V66.7416H133.216C134.252 66.7416 135.135 66.9168 135.865 67.267C136.595 67.6027 137.142 68.0624 137.507 68.6462C137.872 69.23 138.054 69.8867 138.054 70.6164C138.054 71.5213 137.806 72.2729 137.31 72.8713C136.828 73.455 136.186 73.8783 135.383 74.141ZM129.735 73.331H133.085C134.019 73.331 134.741 73.1121 135.252 72.6742C135.763 72.2364 136.018 71.6307 136.018 70.8572C136.018 70.0837 135.763 69.4781 135.252 69.0402C134.741 68.6024 134.004 68.3835 133.041 68.3835H129.735V73.331ZM133.26 80.3581C134.252 80.3581 135.026 80.1246 135.58 79.6576C136.135 79.1906 136.412 78.5411 136.412 77.7093C136.412 76.8628 136.12 76.1988 135.537 75.7171C134.953 75.2209 134.172 74.9728 133.194 74.9728H129.735V80.3581H133.26ZM154.939 66.7416V68.3616H150.779V82H148.787V68.3616H144.606V66.7416H154.939ZM170.788 78.6068H164.133L162.907 82H160.806L166.322 66.8292H168.621L174.116 82H172.014L170.788 78.6068ZM170.219 76.9869L167.461 69.2811L164.703 76.9869H170.219ZM188.933 82L185.299 75.7609H182.891V82H180.898V66.7416H185.824C186.977 66.7416 187.947 66.9387 188.736 67.3327C189.538 67.7268 190.137 68.2595 190.531 68.9308C190.925 69.6021 191.122 70.3683 191.122 71.2294C191.122 72.2802 190.815 73.2069 190.202 74.0096C189.604 74.8123 188.699 75.345 187.488 75.6077L191.319 82H188.933ZM182.891 74.1629H185.824C186.904 74.1629 187.714 73.9002 188.254 73.3748C188.794 72.8348 189.064 72.1196 189.064 71.2294C189.064 70.3245 188.794 69.624 188.254 69.1278C187.729 68.6316 186.919 68.3835 185.824 68.3835H182.891V74.1629ZM217.829 78.6068H211.174L209.948 82H207.847L213.364 66.8292H215.662L221.157 82H219.055L217.829 78.6068ZM217.26 76.9869L214.502 69.2811L211.744 76.9869H217.26ZM238.141 71.2075C238.141 72.4772 237.703 73.5353 236.827 74.3818C235.966 75.2136 234.646 75.6296 232.865 75.6296H229.932V82H227.939V66.7416H232.865C234.587 66.7416 235.893 67.1576 236.784 67.9895C237.688 68.8213 238.141 69.894 238.141 71.2075ZM232.865 73.9877C233.974 73.9877 234.791 73.7469 235.317 73.2653C235.842 72.7837 236.105 72.0978 236.105 71.2075C236.105 69.3248 235.025 68.3835 232.865 68.3835H229.932V73.9877H232.865ZM255.197 71.2075C255.197 72.4772 254.759 73.5353 253.883 74.3818C253.022 75.2136 251.701 75.6296 249.921 75.6296H246.987V82H244.995V66.7416H249.921C251.643 66.7416 252.949 67.1576 253.839 67.9895C254.744 68.8213 255.197 69.894 255.197 71.2075ZM249.921 73.9877C251.03 73.9877 251.847 73.7469 252.373 73.2653C252.898 72.7837 253.161 72.0978 253.161 71.2075C253.161 69.3248 252.081 68.3835 249.921 68.3835H246.987V73.9877H249.921Z" fill="#333333"/>
<path d="M25.023 33.047H30.7574V55.9268C30.7574 58.2823 30.3519 60.3676 29.541 62.1825C28.7301 63.9975 27.6875 65.4262 26.4131 66.4689C23.8259 68.4769 21.0842 69.4809 18.188 69.4809C15.3304 69.4809 12.917 68.5541 10.9476 66.7006C9.01677 64.847 8.05137 62.7811 8.05137 60.5027C8.05137 58.9581 8.51476 57.6838 9.44154 56.6798C10.4069 55.7144 11.3337 55.2317 12.2219 55.2317C13.11 55.2317 13.8244 55.4055 14.365 55.753C14.9443 56.1005 15.2339 56.4867 15.2339 56.9115C15.2339 57.3362 15.1374 57.5486 14.9443 57.5486C14.7898 57.5486 14.5388 57.3556 14.1913 56.9694C13.8823 56.5832 13.2452 56.3902 12.2798 56.3902C11.353 56.3902 10.5807 56.7956 9.96285 57.6066C9.38361 58.4561 9.094 59.4601 9.094 60.6186C9.094 62.7424 10.0401 64.5574 11.9323 66.0634C13.8244 67.608 15.5621 68.3803 17.1454 68.3803C17.9177 68.3803 18.5355 68.361 18.9989 68.3224C19.4623 68.2838 20.1188 68.0714 20.9683 67.6853C21.8179 67.2991 22.4936 66.7392 22.9956 66.0055C23.5363 65.3104 23.9997 64.2292 24.3858 62.7618C24.8106 61.2944 25.023 59.518 25.023 57.4328V46.0219C22.9763 48.4933 20.6208 49.729 17.9563 49.729C13.863 49.729 10.349 48.0299 7.41421 44.6317C4.51804 41.1949 3.06995 37.063 3.06995 32.236C3.06995 27.9883 4.24773 24.0302 6.60328 20.3617C7.76176 18.5082 9.38361 17.0022 11.4689 15.8437C13.5927 14.6852 16.0255 14.106 18.7672 14.106C22.3971 14.106 25.4284 15.0907 27.8612 17.0601C30.294 19.0295 31.5104 21.4816 31.5104 24.4164C31.5104 26.463 30.9312 28.0076 29.7727 29.0503C28.6528 30.0543 27.4558 30.5563 26.1814 30.5563C24.9457 30.5563 23.8066 30.2087 22.764 29.5136C21.7599 28.7799 21.2579 27.8725 21.2579 26.7912C21.2579 25.71 21.4896 24.8218 21.953 24.1267C22.4164 23.3931 22.8798 23.0262 23.3432 23.0262C23.8452 23.0262 24.0962 23.1421 24.0962 23.3737C24.0962 23.6054 23.8066 24.0109 23.2273 24.5901C22.6867 25.1694 22.4164 25.8258 22.4164 26.5595C22.4164 27.2546 22.764 27.9111 23.459 28.5289C24.1541 29.1082 25.0423 29.3978 26.1235 29.3978C27.2048 29.3978 28.1702 28.9923 29.0197 28.1814C29.9079 27.3705 30.3519 26.1927 30.3519 24.6481C30.3519 22.138 29.29 19.9563 27.1661 18.1027C25.0423 16.2105 22.764 15.2644 20.3312 15.2644C17.8984 15.2644 15.8904 15.9016 14.3071 17.1759C12.7239 18.4116 11.5654 20.0142 10.8317 21.9836C9.51877 25.5748 8.8623 29.3592 8.8623 33.3366C8.8623 37.314 9.76977 40.8473 11.5847 43.9366C13.3996 47.0259 15.6007 48.5705 18.188 48.5705C20.8139 48.5705 23.0922 47.161 25.023 44.3421V33.047ZM58.8358 30.3825C58.8358 30.8073 58.6621 31.1355 58.3145 31.3672C58.0056 31.5989 57.6001 31.7147 57.0981 31.7147C56.5961 31.7147 56.1907 31.5796 55.8817 31.3093C55.5728 31.0003 55.3604 30.6721 55.2446 30.3246C55.1673 29.977 54.9357 29.6681 54.5495 29.3978C54.1633 29.0889 53.6227 28.9344 52.9276 28.9344C51.2285 28.9344 49.6453 30.1701 48.1779 32.6415C46.7105 35.1129 45.861 37.9126 45.6293 41.0404V55H39.8369V28.1814H45.6293V35.0164C46.556 32.7767 47.7531 30.9231 49.2205 29.4557C50.7265 27.9497 52.2326 27.1967 53.7386 27.1967C55.2446 27.1967 56.461 27.467 57.3877 28.0076C58.3531 28.5096 58.8358 29.3013 58.8358 30.3825ZM60.9899 41.6197C60.9899 37.6809 62.3414 34.3792 65.0445 31.7147C67.7862 29.0503 71.281 27.718 75.5287 27.718C79.815 27.718 83.2904 28.973 85.9549 31.483C88.6194 33.9931 89.9516 37.2947 89.9516 41.388C89.9516 43.8208 89.4883 45.9832 88.5615 47.8754C87.6347 49.729 86.4376 51.177 84.9702 52.2197C81.9582 54.2663 78.811 55.2896 75.5287 55.2896C72.3236 55.2896 69.1957 54.2277 66.1451 52.1038C64.6391 51.0612 63.4033 49.6324 62.438 47.8175C61.4726 45.9639 60.9899 43.898 60.9899 41.6197ZM77.4981 37.9126L75.8183 37.565C75.0846 37.565 74.4474 37.8932 73.9068 38.5497C73.4048 39.1676 73.1538 39.9206 73.1538 40.8087C73.1538 41.6583 73.54 42.5078 74.3123 43.3574C75.0846 44.2069 76.1658 44.6317 77.556 44.6317C78.9848 44.6317 80.3749 43.9559 81.7265 42.6044C83.1167 41.2142 83.8117 39.2641 83.8117 36.7541C83.8117 34.2441 83.0008 32.3133 81.379 30.9617C79.7957 29.5716 77.7877 28.8765 75.3549 28.8765C73.8103 28.8765 72.478 29.1854 71.3582 29.8033C70.2383 30.3825 69.3888 31.0969 68.8095 31.9464C68.2303 32.796 67.7862 33.8772 67.4773 35.1901C67.0139 37.1209 66.7822 39.3606 66.7822 41.9093C66.7822 50.0572 69.7556 54.1311 75.7024 54.1311C79.2165 54.1311 81.5334 52.7989 82.6533 50.1344C83.6187 47.8561 84.1014 44.902 84.1014 41.2721C83.7538 42.2761 82.9429 43.2801 81.6686 44.2841C80.4329 45.2882 79.062 45.7902 77.556 45.7902C76.05 45.7902 74.7371 45.2882 73.6172 44.2841C72.536 43.2415 71.9953 42.083 71.9953 40.8087C71.9953 39.5344 72.3429 38.4918 73.038 37.6809C73.733 36.8313 74.7177 36.4065 75.9921 36.4065C77.305 36.4065 77.9615 36.7734 77.9615 37.5071C77.9615 37.7774 77.807 37.9126 77.4981 37.9126ZM116.332 49.2656H118.012C117.162 51.0033 115.888 52.49 114.189 53.7257C112.528 54.9614 110.443 55.5792 107.933 55.5792C103.955 55.5792 100.885 54.1698 98.723 51.3508C96.5605 48.5319 95.4793 45.153 95.4793 41.2142C95.4793 37.2754 96.8308 34.0317 99.5339 31.483C102.237 28.8958 105.288 27.6022 108.686 27.6022C111.08 27.6022 113.223 28.3166 115.115 29.7453C117.008 31.1741 117.954 32.9891 117.954 35.1901C117.954 36.6962 117.51 37.9512 116.621 38.9552C115.733 39.9206 114.613 40.4033 113.262 40.4033C111.949 40.4033 110.771 40.0557 109.728 39.3606C108.724 38.6269 108.222 37.7388 108.222 36.6962C108.222 35.6149 108.416 34.7654 108.802 34.1475C109.342 33.298 109.844 32.8732 110.308 32.8732C110.81 32.8732 111.061 33.0277 111.061 33.3366C111.061 33.5297 110.964 33.6841 110.771 33.8C109.844 34.4178 109.381 35.1901 109.381 36.1169C109.381 37.0437 109.748 37.7967 110.481 38.3759C111.254 38.9552 112.084 39.2448 112.972 39.2448C113.899 39.2448 114.768 38.9359 115.579 38.318C116.39 37.7002 116.795 36.6189 116.795 35.0743C116.795 33.4911 116.023 32.043 114.478 30.73C112.972 29.3785 111.196 28.7027 109.149 28.7027C106.523 28.7027 104.554 29.8226 103.241 32.0623C101.928 34.2634 101.272 37.314 101.272 41.2142C101.272 45.0758 101.889 48.2423 103.125 50.7137C104.361 53.1464 106.253 54.3628 108.802 54.3628C110.346 54.3628 111.833 53.8415 113.262 52.7989C114.691 51.7563 115.714 50.5785 116.332 49.2656ZM132.789 52.9727C133.33 53.3588 134.006 53.6871 134.817 53.9574C135.666 54.2277 136.689 54.3628 137.887 54.3628C139.084 54.3628 140.358 54.0925 141.709 53.5519C143.061 52.9727 144.007 52.1231 144.548 51.0033H146.228C144.722 54.0539 141.555 55.5792 136.728 55.5792C133.021 55.5792 129.874 54.2663 127.287 51.6404C124.738 48.976 123.464 45.655 123.464 41.6776C123.464 37.6616 124.815 34.3213 127.518 31.6568C130.221 28.9537 133.156 27.6022 136.323 27.6022C139.528 27.6022 142.038 28.4903 143.853 30.2666C145.706 32.0044 146.633 34.0703 146.633 36.4645C146.633 38.8586 145.648 40.9825 143.679 42.8361C141.709 44.6896 139.122 45.6164 135.917 45.6164C132.712 45.6164 130.472 44.2455 129.198 41.5038C129.237 41.7741 129.275 42.3534 129.314 43.2415C129.391 44.1297 129.449 44.8248 129.488 45.3268C129.526 45.8288 129.623 46.5239 129.777 47.412C129.97 48.3002 130.163 49.0146 130.356 49.5552C130.588 50.0958 130.916 50.7137 131.341 51.4087C131.766 52.0652 132.249 52.5865 132.789 52.9727ZM141.652 36.1748C141.652 31.1934 139.759 28.7027 135.975 28.7027C134.122 28.7027 132.596 29.6102 131.399 31.4251C130.241 33.2014 129.584 35.3639 129.43 37.9126C129.893 36.8313 130.588 35.9625 131.515 35.306C132.48 34.6495 133.465 34.3213 134.469 34.3213C135.512 34.3213 136.033 34.5144 136.033 34.9005C136.033 35.2481 135.801 35.4218 135.338 35.4218C133.562 35.5377 132.249 35.9818 131.399 36.7541C130.588 37.5264 130.183 38.569 130.183 39.882C130.183 41.1949 130.646 42.3147 131.573 43.2415C132.538 44.1297 133.658 44.5738 134.932 44.5738C137.018 44.5738 138.659 43.7435 139.856 42.083C141.053 40.384 141.652 38.4146 141.652 36.1748ZM172.923 30.3825C172.923 30.8073 172.749 31.1355 172.401 31.3672C172.092 31.5989 171.687 31.7147 171.185 31.7147C170.683 31.7147 170.277 31.5796 169.968 31.3093C169.66 31.0003 169.447 30.6721 169.331 30.3246C169.254 29.977 169.022 29.6681 168.636 29.3978C168.25 29.0889 167.709 28.9344 167.014 28.9344C165.315 28.9344 163.732 30.1701 162.265 32.6415C160.797 35.1129 159.948 37.9126 159.716 41.0404V55H153.924V28.1814H159.716V35.0164C160.643 32.7767 161.84 30.9231 163.307 29.4557C164.813 27.9497 166.319 27.1967 167.825 27.1967C169.331 27.1967 170.548 27.467 171.474 28.0076C172.44 28.5096 172.923 29.3013 172.923 30.3825ZM183.797 28.2393V55.0579H178.005V28.2393H183.797ZM178.7 22.7945C178.121 22.1767 177.831 21.443 177.831 20.5934C177.831 19.7439 178.121 19.0295 178.7 18.4502C179.318 17.8324 180.052 17.5235 180.901 17.5235C181.751 17.5235 182.465 17.8324 183.044 18.4502C183.662 19.0295 183.971 19.7439 183.971 20.5934C183.971 21.443 183.662 22.1767 183.044 22.7945C182.465 23.3737 181.751 23.6634 180.901 23.6634C180.052 23.6634 179.318 23.3737 178.7 22.7945ZM200.395 52.9727C200.935 53.3588 201.611 53.6871 202.422 53.9574C203.272 54.2277 204.295 54.3628 205.492 54.3628C206.689 54.3628 207.963 54.0925 209.315 53.5519C210.666 52.9727 211.612 52.1231 212.153 51.0033H213.833C212.327 54.0539 209.16 55.5792 204.333 55.5792C200.626 55.5792 197.479 54.2663 194.892 51.6404C192.343 48.976 191.069 45.655 191.069 41.6776C191.069 37.6616 192.42 34.3213 195.124 31.6568C197.827 28.9537 200.761 27.6022 203.928 27.6022C207.133 27.6022 209.643 28.4903 211.458 30.2666C213.312 32.0044 214.238 34.0703 214.238 36.4645C214.238 38.8586 213.254 40.9825 211.284 42.8361C209.315 44.6896 206.728 45.6164 203.523 45.6164C200.317 45.6164 198.078 44.2455 196.803 41.5038C196.842 41.7741 196.881 42.3534 196.919 43.2415C196.996 44.1297 197.054 44.8248 197.093 45.3268C197.132 45.8288 197.228 46.5239 197.383 47.412C197.576 48.3002 197.769 49.0146 197.962 49.5552C198.194 50.0958 198.522 50.7137 198.947 51.4087C199.371 52.0652 199.854 52.5865 200.395 52.9727ZM209.257 36.1748C209.257 31.1934 207.365 28.7027 203.58 28.7027C201.727 28.7027 200.202 29.6102 199.004 31.4251C197.846 33.2014 197.19 35.3639 197.035 37.9126C197.498 36.8313 198.194 35.9625 199.12 35.306C200.086 34.6495 201.07 34.3213 202.074 34.3213C203.117 34.3213 203.638 34.5144 203.638 34.9005C203.638 35.2481 203.407 35.4218 202.943 35.4218C201.167 35.5377 199.854 35.9818 199.004 36.7541C198.194 37.5264 197.788 38.569 197.788 39.882C197.788 41.1949 198.251 42.3147 199.178 43.2415C200.144 44.1297 201.263 44.5738 202.538 44.5738C204.623 44.5738 206.264 43.7435 207.461 42.083C208.658 40.384 209.257 38.4146 209.257 36.1748ZM230.565 55.5792C227.978 55.5792 225.526 54.9421 223.209 53.6678C220.892 52.3548 219.733 50.5399 219.733 48.2229C219.733 47.6051 219.888 47.0259 220.197 46.4852C220.506 45.9446 220.892 45.6743 221.355 45.6743C221.857 45.6743 222.243 45.8288 222.514 46.1377C222.784 46.4466 222.919 46.7555 222.919 47.0645C222.919 47.3734 222.726 47.8175 222.34 48.3967C221.954 48.9373 221.761 49.3814 221.761 49.729C221.761 50.926 222.784 52.0073 224.831 52.9727C226.877 53.9381 228.827 54.4208 230.681 54.4208C232.573 54.4208 234.388 53.8029 236.126 52.5672C237.902 51.3315 238.79 49.7676 238.79 47.8754C238.79 46.1377 237.825 44.9213 235.894 44.2262C234.658 43.7242 232.554 43.2415 229.58 42.7781C226.607 42.2761 224.29 41.4652 222.63 40.3453C220.969 39.2255 220.139 37.4878 220.139 35.1322C220.139 33.7034 220.506 32.4677 221.239 31.4251C221.973 30.3825 222.919 29.5909 224.078 29.0503C226.356 28.0076 228.596 27.4863 230.797 27.4863C233.037 27.4863 235.006 27.8725 236.705 28.6448C238.443 29.4171 239.582 30.3825 240.122 31.541C240.354 32.0816 240.47 32.545 240.47 32.9311C240.47 33.8579 239.987 34.3213 239.022 34.3213C237.979 34.3213 237.439 33.6841 237.4 32.4098C237.323 30.981 236.763 29.9963 235.72 29.4557C234.407 28.9151 232.747 28.6448 230.739 28.6448C228.769 28.6448 226.955 29.1275 225.294 30.0929C223.634 31.0197 222.803 32.2167 222.803 33.6841C222.803 35.4605 224.406 36.4645 227.611 36.6962C230.816 36.8892 233.79 37.4492 236.531 38.3759C237.921 38.8393 239.061 39.7275 239.949 41.0404C240.876 42.3147 241.339 43.8787 241.339 45.7322C241.339 47.5472 241.011 49.0918 240.354 50.3661C239.698 51.6404 238.829 52.6444 237.748 53.3781C235.585 54.8455 233.191 55.5792 230.565 55.5792ZM271.371 60.2131C269.286 60.2131 267.664 59.518 266.505 58.1279C265.385 56.7763 264.652 55.0965 264.304 53.0885C263.995 51.0805 263.725 49.0532 263.493 47.0066C262.991 41.9479 261.485 39.1869 258.975 38.7235L254.457 44.6896V55H248.665V11.5573H254.457V42.7781L261.756 33.1049C263.223 31.1355 264.941 29.5329 266.911 28.2972C268.88 27.0615 270.907 26.4437 272.993 26.4437C273.726 26.4437 274.093 26.6175 274.093 26.965C274.093 27.4284 273.862 27.6601 273.398 27.6601C272.317 27.6601 271.371 27.7373 270.56 27.8918C269.788 28.0076 268.629 28.5676 267.085 29.5716C265.54 30.5756 264.034 32.043 262.567 33.9738L259.728 37.6809C260.578 37.6036 261.138 37.565 261.408 37.565C263.377 37.565 264.961 38.1056 266.158 39.1869C267.393 40.2295 268.185 41.5424 268.533 43.1257C268.919 44.7089 269.208 46.4466 269.401 48.3388C269.633 50.1923 269.768 51.9107 269.807 53.494C269.884 55.0772 270.174 56.3902 270.676 57.4328C271.178 58.514 271.892 59.0546 272.819 59.0546C273.746 59.0546 274.557 58.7843 275.252 58.2437C275.947 57.7417 276.487 57.2204 276.874 56.6798C277.26 56.1778 277.53 55.9268 277.685 55.9268C277.839 55.9268 277.916 56.004 277.916 56.1585C277.916 56.3515 277.858 56.5639 277.742 56.7956C276.584 59.074 274.46 60.2131 271.371 60.2131Z" fill="#FFD037"/>
<path d="M25.023 33.047V32.0606H24.0366V33.047H25.023ZM30.7574 33.047H31.7438V32.0606H30.7574V33.047ZM29.541 62.1825L30.4416 62.5849L29.541 62.1825ZM26.4131 66.4689L27.0179 67.2481L27.0279 67.2403L27.0377 67.2323L26.4131 66.4689ZM10.9475 66.7006L10.2644 67.4121L10.2715 67.4188L10.9475 66.7006ZM9.44154 56.6798L8.74407 55.9823L8.73012 55.9963L8.71675 56.0107L9.44154 56.6798ZM14.365 55.753L13.8317 56.5827L13.8445 56.591L13.8576 56.5988L14.365 55.753ZM14.1913 56.9694L13.421 57.5856L13.4389 57.608L13.4581 57.6292L14.1913 56.9694ZM9.96285 57.6066L9.17826 57.0088L9.16252 57.0294L9.14788 57.0509L9.96285 57.6066ZM11.9323 66.0634L12.5561 65.2992L12.5465 65.2916L11.9323 66.0634ZM18.9989 68.3224L18.917 67.3394H18.917L18.9989 68.3224ZM20.9683 67.6853L21.3765 68.5832L20.9683 67.6853ZM22.9956 66.0055L22.2171 65.3999L22.1986 65.4237L22.1816 65.4485L22.9956 66.0055ZM24.3858 62.7618L23.4383 62.4875L23.435 62.4991L23.4319 62.5107L24.3858 62.7618ZM25.023 46.0219H26.0093V43.2843L24.2633 45.3927L25.023 46.0219ZM7.41421 44.6317L6.65989 45.2673L6.6677 45.2764L7.41421 44.6317ZM6.60328 20.3617L7.43334 20.8947L7.43973 20.8845L6.60328 20.3617ZM11.4689 15.8437L10.9965 14.9777L10.9898 14.9814L11.4689 15.8437ZM27.8612 17.0601L28.4818 16.2934L27.8612 17.0601ZM29.7727 29.0503L30.4312 29.7847L30.4325 29.7834L29.7727 29.0503ZM22.764 29.5136L22.182 30.31L22.1991 30.3226L22.2168 30.3344L22.764 29.5136ZM21.953 24.1267L22.7737 24.6739L22.7805 24.6638L22.787 24.6535L21.953 24.1267ZM23.2273 24.5901L22.5299 23.8927L22.5178 23.9047L22.5063 23.9171L23.2273 24.5901ZM23.459 28.5289L22.8037 29.2662L22.8155 29.2766L22.8276 29.2867L23.459 28.5289ZM29.0197 28.1814L28.3546 27.453L28.3465 27.4604L28.3386 27.4679L29.0197 28.1814ZM27.1661 18.1027L26.51 18.8392L26.5176 18.8459L27.1661 18.1027ZM14.3071 17.1759L14.914 17.9535L14.9198 17.949L14.9256 17.9443L14.3071 17.1759ZM10.8317 21.9836L9.90737 21.6392L9.9053 21.6449L10.8317 21.9836ZM11.5847 43.9366L10.7342 44.4362L11.5847 43.9366ZM25.023 44.3421L25.8368 44.8995L26.0093 44.6475V44.3421H25.023ZM25.023 34.0333H30.7574V32.0606H25.023V34.0333ZM29.771 33.047V55.9268H31.7438V33.047H29.771ZM29.771 55.9268C29.771 58.169 29.3853 60.113 28.6404 61.7801L30.4416 62.5849C31.3186 60.6221 31.7438 58.3957 31.7438 55.9268H29.771ZM28.6404 61.7801C27.8793 63.4836 26.9219 64.7782 25.7885 65.7055L27.0377 67.2323C28.4531 66.0743 29.5808 64.5113 30.4416 62.5849L28.6404 61.7801ZM25.8084 65.6896C23.3703 67.5819 20.8368 68.4945 18.188 68.4945V70.4673C21.3315 70.4673 24.2814 69.3719 27.0179 67.2481L25.8084 65.6896ZM18.188 68.4945C15.566 68.4945 13.3989 67.6532 11.6236 65.9823L10.2715 67.4188C12.435 69.455 15.0948 70.4673 18.188 70.4673V68.4945ZM11.6306 65.989C9.85689 64.2862 9.03775 62.4655 9.03775 60.5027H7.065C7.065 63.0966 8.17664 65.4078 10.2645 67.4121L11.6306 65.989ZM9.03775 60.5027C9.03775 59.1712 9.42997 58.1465 10.1663 57.3488L8.71675 56.0107C7.59956 57.221 7.065 58.745 7.065 60.5027H9.03775ZM10.139 57.3773C11.0167 56.4996 11.7065 56.2181 12.2219 56.2181V54.2453C10.9609 54.2453 9.79721 54.9292 8.74407 55.9823L10.139 57.3773ZM12.2219 56.2181C12.9905 56.2181 13.5 56.3695 13.8317 56.5827L14.8984 54.9233C14.1488 54.4414 13.2295 54.2453 12.2219 54.2453V56.2181ZM13.8576 56.5988C14.0783 56.7313 14.1834 56.8361 14.2276 56.8951C14.2626 56.9418 14.2475 56.9411 14.2475 56.9115H16.2203C16.2203 55.9688 15.5642 55.3222 14.8725 54.9072L13.8576 56.5988ZM14.2475 56.9115C14.2475 56.9828 14.2433 57.0243 14.2406 57.0425C14.2373 57.0637 14.2388 57.0356 14.2635 56.9812C14.289 56.9252 14.3527 56.8124 14.4877 56.7134C14.6337 56.6063 14.7995 56.5623 14.9443 56.5623V58.535C15.1856 58.535 15.4359 58.4644 15.6543 58.3042C15.8617 58.1521 15.9857 57.9597 16.0594 57.7975C16.1959 57.4973 16.2203 57.1677 16.2203 56.9115H14.2475ZM14.9443 56.5623C15.027 56.5623 15.0936 56.5751 15.1392 56.5874C15.1848 56.5997 15.2171 56.6136 15.2344 56.6219C15.2662 56.637 15.2697 56.6437 15.2416 56.622C15.2159 56.6022 15.1756 56.5681 15.1198 56.514C15.0646 56.4607 14.9997 56.3932 14.9244 56.3096L13.4581 57.6292C13.65 57.8425 13.8453 58.0369 14.0388 58.1856C14.1867 58.2994 14.5157 58.535 14.9443 58.535V56.5623ZM14.9615 56.3532C14.3481 55.5865 13.2855 55.4038 12.2798 55.4038V57.3765C12.7051 57.3765 13.0013 57.4201 13.1957 57.479C13.3882 57.5373 13.4276 57.5938 13.421 57.5856L14.9615 56.3532ZM12.2798 55.4038C11.0114 55.4038 9.9612 55.9812 9.17826 57.0088L10.7474 58.2043C11.2002 57.6101 11.6946 57.3765 12.2798 57.3765V55.4038ZM9.14788 57.0509C8.44315 58.0845 8.10762 59.2879 8.10762 60.6186H10.0804C10.0804 59.6323 10.3241 58.8277 10.7778 58.1622L9.14788 57.0509ZM8.10762 60.6186C8.10762 63.0871 9.22755 65.1713 11.318 66.8352L12.5465 65.2916C10.8526 63.9434 10.0804 62.3978 10.0804 60.6186H8.10762ZM11.3085 66.8275C13.286 68.4418 15.2402 69.3667 17.1454 69.3667V67.394C15.8841 67.394 14.3629 66.7743 12.556 65.2993L11.3085 66.8275ZM17.1454 69.3667C17.9297 69.3667 18.5783 69.3473 19.0808 69.3054L18.917 67.3394C18.4927 67.3748 17.9056 67.394 17.1454 67.394V69.3667ZM19.0808 69.3054C19.7213 69.252 20.5061 68.9788 21.3765 68.5832L20.5602 66.7873C19.7314 67.164 19.2033 67.3156 18.917 67.3394L19.0808 69.3054ZM21.3765 68.5832C22.3814 68.1264 23.2009 67.4523 23.8097 66.5625L22.1816 65.4485C21.7864 66.0261 21.2543 66.4718 20.5602 66.7873L21.3765 68.5832ZM23.7742 66.611C24.4354 65.761 24.9407 64.5292 25.3397 63.0128L23.4319 62.5107C23.0587 63.9291 22.6371 64.8598 22.2171 65.3999L23.7742 66.611ZM25.3333 63.036C25.7913 61.4537 26.0093 59.5795 26.0093 57.4328H24.0366C24.0366 59.4566 23.8298 61.135 23.4383 62.4875L25.3333 63.036ZM26.0093 57.4328V46.0219H24.0366V57.4328H26.0093ZM24.2633 45.3927C22.3618 47.6888 20.2666 48.7426 17.9563 48.7426V50.7153C20.9749 50.7153 23.5909 49.2977 25.7827 46.651L24.2633 45.3927ZM17.9563 48.7426C14.1796 48.7426 10.9286 47.1919 8.16072 43.987L6.6677 45.2764C9.76941 48.8678 13.5465 50.7153 17.9563 50.7153V48.7426ZM8.16848 43.9961C5.43374 40.7508 4.05632 36.849 4.05632 32.236H2.08358C2.08358 37.2771 3.60233 41.6389 6.65995 45.2673L8.16848 43.9961ZM4.05632 32.236C4.05632 28.1825 5.17698 24.4086 7.43328 20.8947L5.77329 19.8288C3.31847 23.6518 2.08358 27.7942 2.08358 32.236H4.05632ZM7.43973 20.8845C8.50177 19.1852 9.99492 17.7909 11.9479 16.7059L10.9898 14.9814C8.77231 16.2134 7.02174 17.8311 5.76684 19.8389L7.43973 20.8845ZM11.9412 16.7096C13.9018 15.6402 16.1683 15.0924 18.7672 15.0924V13.1196C15.8828 13.1196 13.2837 13.7302 10.9965 14.9777L11.9412 16.7096ZM18.7672 15.0924C22.209 15.0924 25.0107 16.0216 27.2406 17.8267L28.4818 16.2934C25.8461 14.1597 22.5852 13.1196 18.7672 13.1196V15.0924ZM27.2406 17.8267C29.4597 19.6232 30.524 21.8012 30.524 24.4164H32.4968C32.4968 21.1619 31.1283 18.4358 28.4818 16.2934L27.2406 17.8267ZM30.524 24.4164C30.524 26.2759 30.0034 27.5156 29.1129 28.3171L30.4325 29.7834C31.8589 28.4997 32.4968 26.6501 32.4968 24.4164H30.524ZM29.1143 28.3158C28.1408 29.1886 27.17 29.5699 26.1814 29.5699V31.5426C27.7415 31.5426 29.1649 30.92 30.4311 29.7847L29.1143 28.3158ZM26.1814 29.5699C25.1434 29.5699 24.1941 29.2816 23.3111 28.6929L22.2168 30.3344C23.419 31.1358 24.7481 31.5426 26.1814 31.5426V29.5699ZM23.3459 28.7173C22.5524 28.1374 22.2443 27.5073 22.2443 26.7912H20.2716C20.2716 28.2377 20.9675 29.4225 22.182 30.31L23.3459 28.7173ZM22.2443 26.7912C22.2443 25.848 22.4461 25.1654 22.7737 24.6739L21.1323 23.5796C20.5332 24.4782 20.2716 25.572 20.2716 26.7912H22.2443ZM22.787 24.6535C22.9844 24.3408 23.1466 24.1648 23.2603 24.0747C23.3665 23.9907 23.3888 24.0126 23.3432 24.0126V22.0398C22.3308 22.0398 21.6108 22.8215 21.1191 23.6L22.787 24.6535ZM23.3432 24.0126C23.4333 24.0126 23.4909 24.0179 23.5226 24.0228C23.5574 24.0282 23.5403 24.0298 23.4946 24.0087C23.4469 23.9867 23.3421 23.9275 23.2495 23.7992C23.1495 23.6607 23.1098 23.5055 23.1098 23.3737H25.0826C25.0826 23.1262 25.0115 22.8695 24.8488 22.6442C24.6934 22.429 24.4945 22.2974 24.3213 22.2175C23.9998 22.0691 23.639 22.0398 23.3432 22.0398V24.0126ZM23.1098 23.3737C23.1098 23.3013 23.1209 23.2474 23.1287 23.2178C23.1328 23.2022 23.1367 23.1907 23.1393 23.1835C23.142 23.1763 23.1437 23.1724 23.1439 23.1719C23.1441 23.1716 23.1399 23.1808 23.1282 23.2002C23.1167 23.2194 23.0999 23.2453 23.0763 23.2783C22.9767 23.4178 22.8022 23.6204 22.5299 23.8927L23.9248 25.2876C24.2318 24.9807 24.4917 24.6909 24.6816 24.4249C24.8356 24.2093 25.0826 23.8265 25.0826 23.3737H23.1098ZM22.5063 23.9171C21.81 24.6631 21.43 25.555 21.43 26.5595H23.4028C23.4028 26.0967 23.5634 25.6757 23.9484 25.2632L22.5063 23.9171ZM21.43 26.5595C21.43 27.623 21.9729 28.5277 22.8037 29.2662L24.1143 27.7917C23.555 27.2945 23.4028 26.8862 23.4028 26.5595H21.43ZM22.8276 29.2867C23.7329 30.0412 24.8585 30.3842 26.1235 30.3842V28.4114C25.2261 28.4114 24.5753 28.1752 24.0905 27.7712L22.8276 29.2867ZM26.1235 30.3842C27.4814 30.3842 28.685 29.8644 29.7008 28.8949L28.3386 27.4679C27.6553 28.1202 26.9281 28.4114 26.1235 28.4114V30.3842ZM29.6848 28.9098C30.8322 27.8622 31.3383 26.3862 31.3383 24.6481H29.3656C29.3656 25.9992 28.9835 26.8788 28.3546 27.453L29.6848 28.9098ZM31.3383 24.6481C31.3383 21.8162 30.1237 19.3747 27.8147 17.3595L26.5176 18.8459C28.4563 20.5378 29.3656 22.4599 29.3656 24.6481H31.3383ZM27.8223 17.3662C25.5502 15.342 23.0461 14.2781 20.3312 14.2781V16.2508C22.4818 16.2508 24.5344 17.0791 26.51 18.8392L27.8223 17.3662ZM20.3312 14.2781C17.7194 14.2781 15.4799 14.9658 13.6887 16.4075L14.9256 17.9443C16.3008 16.8374 18.0773 16.2508 20.3312 16.2508V14.2781ZM13.7002 16.3984C11.9663 17.7517 10.7017 19.5072 9.90739 21.6392L11.756 22.3279C12.4291 20.5212 13.4814 19.0716 14.914 17.9535L13.7002 16.3984ZM9.9053 21.6449C8.55111 25.349 7.87593 29.2483 7.87593 33.3366H9.84867C9.84867 29.47 10.4864 25.8007 11.7581 22.3223L9.9053 21.6449ZM7.87593 33.3366C7.87593 37.4698 8.82078 41.1793 10.7342 44.4362L12.4352 43.437C10.7188 40.5154 9.84867 37.1582 9.84867 33.3366H7.87593ZM10.7342 44.4362C12.6501 47.6972 15.1229 49.5569 18.188 49.5569V47.5841C16.0786 47.5841 14.1492 46.3545 12.4352 43.437L10.7342 44.4362ZM18.188 49.5569C21.2349 49.5569 23.7837 47.8969 25.8368 44.8995L24.2092 43.7847C22.4007 46.4251 20.3928 47.5841 18.188 47.5841V49.5569ZM26.0093 44.3421V33.047H24.0366V44.3421H26.0093ZM58.3145 31.3672L57.7674 30.5465L57.7446 30.5617L57.7227 30.5781L58.3145 31.3672ZM55.8817 31.3093L55.1843 32.0067L55.2075 32.03L55.2322 32.0516L55.8817 31.3093ZM55.2446 30.3246L54.2817 30.5385L54.2927 30.5882L54.3088 30.6365L55.2446 30.3246ZM54.5495 29.3978L53.9333 30.168L53.958 30.1877L53.9838 30.2059L54.5495 29.3978ZM48.1779 32.6415L49.026 33.1451L48.1779 32.6415ZM45.6293 41.0404L44.6456 40.9676L44.6429 41.0039V41.0404H45.6293ZM45.6293 55V55.9864H46.6156V55H45.6293ZM39.8369 55H38.8505V55.9864H39.8369V55ZM39.8369 28.1814V27.195H38.8505V28.1814H39.8369ZM45.6293 28.1814H46.6156V27.195H45.6293V28.1814ZM45.6293 35.0164H44.6429L46.5407 35.3935L45.6293 35.0164ZM49.2205 29.4557L49.918 30.1532L49.2205 29.4557ZM57.3877 28.0076L56.8907 28.8596L56.9114 28.8717L56.9327 28.8828L57.3877 28.0076ZM57.8495 30.3825C57.8495 30.4573 57.8352 30.4831 57.8338 30.4857C57.8327 30.4877 57.822 30.51 57.7674 30.5465L58.8617 32.1879C59.4892 31.7696 59.8222 31.1303 59.8222 30.3825H57.8495ZM57.7227 30.5781C57.6295 30.648 57.4509 30.7284 57.0981 30.7284V32.7011C57.7494 32.7011 58.3817 32.5498 58.9063 32.1563L57.7227 30.5781ZM57.0981 30.7284C56.7795 30.7284 56.6226 30.6468 56.5313 30.5669L55.2322 32.0516C55.7588 32.5123 56.4128 32.7011 57.0981 32.7011V30.7284ZM56.5792 30.6118C56.3579 30.3905 56.2393 30.1895 56.1803 30.0127L54.3088 30.6365C54.4816 31.1547 54.7877 31.6102 55.1843 32.0067L56.5792 30.6118ZM56.2075 30.1106C56.0613 29.453 55.6364 28.9546 55.1151 28.5897L53.9838 30.2059C54.2349 30.3816 54.2734 30.5011 54.2817 30.5385L56.2075 30.1106ZM55.1657 28.6276C54.5458 28.1317 53.7575 27.948 52.9276 27.948V29.9208C53.488 29.9208 53.7809 30.0461 53.9333 30.168L55.1657 28.6276ZM52.9276 27.948C50.6894 27.948 48.8488 29.5796 47.3298 32.1379L49.026 33.1451C50.4418 30.7606 51.7677 29.9208 52.9276 29.9208V27.948ZM47.3298 32.1379C45.7776 34.7522 44.8875 37.7017 44.6456 40.9676L46.6129 41.1133C46.8344 38.1234 47.6434 35.4737 49.026 33.1451L47.3298 32.1379ZM44.6429 41.0404V55H46.6156V41.0404H44.6429ZM45.6293 54.0136H39.8369V55.9864H45.6293V54.0136ZM40.8233 55V28.1814H38.8505V55H40.8233ZM39.8369 29.1678H45.6293V27.195H39.8369V29.1678ZM44.6429 28.1814V35.0164H46.6156V28.1814H44.6429ZM46.5407 35.3935C47.4261 33.2537 48.5563 31.5148 49.918 30.1532L48.5231 28.7582C46.9499 30.3314 45.686 32.2996 44.7178 34.6392L46.5407 35.3935ZM49.918 30.1532C51.3165 28.7547 52.5864 28.1831 53.7386 28.1831V26.2103C51.8787 26.2103 50.1366 27.1447 48.5231 28.7582L49.918 30.1532ZM53.7386 28.1831C55.1369 28.1831 56.1637 28.4355 56.8907 28.8596L57.8848 27.1556C56.7582 26.4985 55.3522 26.2103 53.7386 26.2103V28.1831ZM56.9327 28.8828C57.2838 29.0653 57.4991 29.274 57.6317 29.4914C57.764 29.7083 57.8495 29.9925 57.8495 30.3825H59.8222C59.8222 29.6913 59.6664 29.039 59.316 28.4643C58.9658 27.89 58.4571 27.4519 57.8428 27.1325L56.9327 28.8828ZM65.0445 31.7147L64.3571 31.0074L64.3521 31.0123L65.0445 31.7147ZM85.9549 31.483L86.6313 30.7651L85.9549 31.483ZM88.5615 47.8754L89.4437 48.3165L89.4473 48.3093L88.5615 47.8754ZM84.9702 52.2197L85.5246 53.0355L85.5331 53.0297L85.5415 53.0237L84.9702 52.2197ZM66.1451 52.1038L66.7086 51.2943L66.7065 51.2928L66.1451 52.1038ZM62.438 47.8175L61.5631 48.2731L61.5671 48.2807L62.438 47.8175ZM77.4981 37.9126L77.2982 38.8785L77.3971 38.8989H77.4981V37.9126ZM75.8183 37.565L76.0181 36.5991L75.9193 36.5786H75.8183V37.565ZM73.9068 38.5497L73.1454 37.9227L73.1413 37.9277L73.9068 38.5497ZM74.3123 43.3574L75.0421 42.6939L74.3123 43.3574ZM81.7265 42.6044L81.029 41.9069L81.7265 42.6044ZM81.379 30.9617L80.7281 31.7029L80.7377 31.7113L80.7475 31.7195L81.379 30.9617ZM71.3582 29.8033L71.8113 30.6794L71.8231 30.6733L71.8347 30.6669L71.3582 29.8033ZM68.8095 31.9464L67.9946 31.3908L68.8095 31.9464ZM67.4773 35.1901L68.4364 35.4203L68.4375 35.4161L67.4773 35.1901ZM82.6533 50.1344L81.7451 49.7496L81.7439 49.7522L82.6533 50.1344ZM84.1014 41.2721H85.0877L83.1693 40.9495L84.1014 41.2721ZM81.6686 44.2841L81.0581 43.5094L81.0523 43.5139L81.0466 43.5186L81.6686 44.2841ZM73.6172 44.2841L72.9325 44.9942L72.9454 45.0066L72.9588 45.0186L73.6172 44.2841ZM73.038 37.6809L73.7869 38.3228L73.7942 38.3142L73.8014 38.3055L73.038 37.6809ZM61.9762 41.6197C61.9762 37.9338 63.2297 34.8886 65.737 32.4172L64.3521 31.0123C61.4531 33.8698 60.0035 37.4279 60.0035 41.6197H61.9762ZM65.7319 32.4221C68.2684 29.9571 71.5066 28.7044 75.5287 28.7044V26.7316C71.0553 26.7316 67.3041 28.1434 64.3571 31.0074L65.7319 32.4221ZM75.5287 28.7044C79.6095 28.7044 82.828 29.8925 85.2786 32.201L86.6313 30.7651C83.7529 28.0535 80.0205 26.7316 75.5287 26.7316V28.7044ZM85.2786 32.201C87.7208 34.5016 88.9653 37.531 88.9653 41.388H90.938C90.938 37.0584 89.518 33.4845 86.6313 30.7651L85.2786 32.201ZM88.9653 41.388C88.9653 43.6936 88.5267 45.7039 87.6757 47.4415L89.4473 48.3093C90.4498 46.2626 90.938 43.9479 90.938 41.388H88.9653ZM87.6792 47.4343C86.8138 49.1652 85.7158 50.4799 84.3989 51.4156L85.5415 53.0237C87.1595 51.8742 88.4556 50.2927 89.4437 48.3165L87.6792 47.4343ZM84.4159 51.4038C81.5487 53.352 78.5919 54.3032 75.5287 54.3032V56.276C79.0301 56.276 82.3677 55.1806 85.5246 53.0355L84.4159 51.4038ZM75.5287 54.3032C72.5559 54.3032 69.6211 53.322 66.7086 51.2943L65.5815 52.9133C68.7703 55.1334 72.0913 56.276 75.5287 56.276V54.3032ZM66.7065 51.2928C65.345 50.3503 64.2094 49.0475 63.3088 47.3543L61.5671 48.2807C62.5973 50.2174 63.9331 51.7721 65.5836 52.9148L66.7065 51.2928ZM63.3128 47.3618C62.4271 45.6614 61.9762 43.754 61.9762 41.6197H60.0035C60.0035 44.042 60.518 46.2665 61.5631 48.2731L63.3128 47.3618ZM77.6979 36.9466L76.0181 36.5991L75.6185 38.5309L77.2982 38.8785L77.6979 36.9466ZM75.8183 36.5786C74.7412 36.5786 73.8401 37.0791 73.1454 37.9227L74.6682 39.1768C75.0548 38.7074 75.428 38.5514 75.8183 38.5514V36.5786ZM73.1413 37.9277C72.4798 38.7418 72.1674 39.7219 72.1674 40.8087H74.1402C74.1402 40.1193 74.3298 39.5933 74.6724 39.1717L73.1413 37.9277ZM72.1674 40.8087C72.1674 41.9789 72.7039 43.0544 73.5824 44.0209L75.0421 42.6939C74.3761 41.9612 74.1402 41.3376 74.1402 40.8087H72.1674ZM73.5824 44.0209C74.5805 45.1188 75.9514 45.6181 77.556 45.6181V43.6453C76.3802 43.6453 75.5887 43.2951 75.0421 42.6939L73.5824 44.0209ZM77.556 45.6181C79.3253 45.6181 80.9519 44.7739 82.424 43.3018L81.029 41.9069C79.798 43.1379 78.6443 43.6453 77.556 43.6453V45.6181ZM82.424 43.3018C84.0467 41.6791 84.7981 39.4498 84.7981 36.7541H82.8254C82.8254 39.0784 82.1867 40.7492 81.029 41.9069L82.424 43.3018ZM84.7981 36.7541C84.7981 34.0125 83.9003 31.7789 82.0104 30.204L80.7475 31.7195C82.1013 32.8477 82.8254 34.4756 82.8254 36.7541H84.7981ZM82.0298 30.2205C80.239 28.6482 77.9879 27.8901 75.3549 27.8901V29.8629C77.5875 29.8629 79.3524 30.495 80.7281 31.7029L82.0298 30.2205ZM75.3549 27.8901C73.6781 27.8901 72.1749 28.2261 70.8817 28.9396L71.8347 30.6669C72.7812 30.1447 73.9425 29.8629 75.3549 29.8629V27.8901ZM70.905 28.9271C69.6723 29.5647 68.6846 30.3787 67.9946 31.3908L69.6245 32.5021C70.093 31.815 70.8043 31.2003 71.8113 30.6794L70.905 28.9271ZM67.9946 31.3908C67.3295 32.3662 66.8456 33.5682 66.5172 34.9642L68.4375 35.4161C68.7268 34.1862 69.1311 33.2258 69.6245 32.5021L67.9946 31.3908ZM66.5182 34.96C66.0324 36.9839 65.7959 39.3038 65.7959 41.9093H67.7686C67.7686 39.4175 67.9954 37.258 68.4364 35.4203L66.5182 34.96ZM65.7959 41.9093C65.7959 46.074 66.5505 49.3759 68.2155 51.6572C69.9227 53.9963 72.4781 55.1175 75.7024 55.1175V53.1448C72.9799 53.1448 71.0752 52.229 69.809 50.4942C68.5006 48.7015 67.7686 45.8925 67.7686 41.9093H65.7959ZM75.7024 55.1175C77.5793 55.1175 79.2194 54.7621 80.5674 53.9871C81.9286 53.2043 82.9262 52.0307 83.5626 50.5166L81.7439 49.7522C81.2605 50.9026 80.5397 51.7274 79.584 52.2769C78.615 52.834 77.3397 53.1448 75.7024 53.1448V55.1175ZM83.5615 50.5193C84.5967 48.0762 85.0877 44.9778 85.0877 41.2721H83.115C83.115 44.8262 82.6407 47.636 81.7451 49.7496L83.5615 50.5193ZM83.1693 40.9495C82.908 41.7043 82.2567 42.565 81.0581 43.5094L82.279 45.0589C83.6291 43.9952 84.5997 42.8479 85.0335 41.5948L83.1693 40.9495ZM81.0466 43.5186C79.9759 44.3886 78.8219 44.8038 77.556 44.8038V46.7765C79.3021 46.7765 80.8899 46.1877 82.2906 45.0497L81.0466 43.5186ZM77.556 44.8038C76.2927 44.8038 75.2143 44.3913 74.2757 43.5497L72.9588 45.0186C74.2598 46.185 75.8073 46.7765 77.556 46.7765V44.8038ZM74.3019 43.5741C73.3761 42.6814 72.9817 41.7675 72.9817 40.8087H71.009C71.009 42.3986 71.6958 43.8016 72.9325 44.9942L74.3019 43.5741ZM72.9817 40.8087C72.9817 39.7222 73.2734 38.9218 73.7869 38.3228L72.2891 37.0389C71.4123 38.0618 71.009 39.3466 71.009 40.8087H72.9817ZM73.8014 38.3055C74.2778 37.7231 74.9604 37.3929 75.9921 37.3929V35.4202C74.4751 35.4202 73.1883 35.9395 72.2746 37.0563L73.8014 38.3055ZM75.9921 37.3929C76.589 37.3929 76.8791 37.4819 76.9879 37.5427C77.0274 37.5648 77.0122 37.566 76.9913 37.5309C76.9696 37.4946 76.9751 37.4753 76.9751 37.5071H78.9478C78.9478 37.172 78.8713 36.8318 78.6855 36.5203C78.5005 36.2101 78.239 35.982 77.9503 35.8206C77.4026 35.5146 76.7081 35.4202 75.9921 35.4202V37.3929ZM76.9751 37.5071C76.9751 37.4534 76.9965 37.2435 77.1961 37.0689C77.3705 36.9163 77.5304 36.9262 77.4981 36.9262V38.8989C77.7746 38.8989 78.1663 38.8413 78.4951 38.5535C78.8492 38.2437 78.9478 37.8311 78.9478 37.5071H76.9751ZM116.332 49.2656V48.2792H115.706L115.439 48.8456L116.332 49.2656ZM118.012 49.2656L118.898 49.6988L119.592 48.2792H118.012V49.2656ZM114.189 53.7257L113.608 52.9279L113.6 52.9344L114.189 53.7257ZM98.723 51.3508L99.5056 50.7505L98.723 51.3508ZM99.5339 31.483L100.211 32.2007L100.216 32.1956L99.5339 31.483ZM116.621 38.9552L117.347 39.623L117.354 39.6159L117.36 39.6087L116.621 38.9552ZM109.728 39.3606L109.146 40.157L109.164 40.1696L109.181 40.1814L109.728 39.3606ZM108.802 34.1475L107.969 33.6179L107.965 33.6247L108.802 34.1475ZM110.771 33.8L110.264 32.9542L110.243 32.9663L110.224 32.9793L110.771 33.8ZM110.481 38.3759L109.87 39.1501L109.88 39.1577L109.89 39.165L110.481 38.3759ZM114.478 30.73L113.819 31.4641L113.829 31.473L113.839 31.4816L114.478 30.73ZM103.241 32.0623L104.088 32.5676L104.092 32.5611L103.241 32.0623ZM103.125 50.7137L102.243 51.1548L102.246 51.1604L103.125 50.7137ZM113.262 52.7989L113.843 53.5957L113.262 52.7989ZM116.332 50.2519H118.012V48.2792H116.332V50.2519ZM117.125 48.8323C116.353 50.4132 115.189 51.7786 113.608 52.928L114.769 54.5234C116.587 53.2013 117.971 51.5934 118.898 49.6988L117.125 48.8323ZM113.6 52.9344C112.143 54.0184 110.277 54.5929 107.933 54.5929V56.5656C110.609 56.5656 112.913 55.9044 114.777 54.517L113.6 52.9344ZM107.933 54.5929C104.22 54.5929 101.457 53.2946 99.5056 50.7505L97.9404 51.9512C100.314 55.0449 103.691 56.5656 107.933 56.5656V54.5929ZM99.5056 50.7505C97.4897 48.1225 96.4656 44.9608 96.4656 41.2142H94.4929C94.4929 45.3452 95.6314 48.9412 97.9404 51.9512L99.5056 50.7505ZM96.4656 41.2142C96.4656 37.5287 97.7181 34.5508 100.211 32.2007L98.8572 30.7654C95.9435 33.5126 94.4929 37.0221 94.4929 41.2142H96.4656ZM100.216 32.1956C102.756 29.7647 105.568 28.5885 108.686 28.5885V26.6158C105.007 26.6158 101.718 28.0269 98.8519 30.7705L100.216 32.1956ZM108.686 28.5885C110.868 28.5885 112.802 29.2343 114.521 30.5325L115.71 28.9582C113.645 27.3988 111.292 26.6158 108.686 26.6158V28.5885ZM114.521 30.5325C116.188 31.7916 116.967 33.3251 116.967 35.1901H118.94C118.94 32.653 117.827 30.5567 115.71 28.9582L114.521 30.5325ZM116.967 35.1901C116.967 36.4873 116.591 37.5005 115.883 38.3016L117.36 39.6087C118.428 38.4019 118.94 36.905 118.94 35.1901H116.967ZM115.895 38.2873C115.2 39.0429 114.347 39.4169 113.262 39.4169V41.3896C114.88 41.3896 116.266 40.7983 117.347 39.623L115.895 38.2873ZM113.262 39.4169C112.134 39.4169 111.148 39.1217 110.276 38.5399L109.181 40.1814C110.394 40.9898 111.764 41.3896 113.262 41.3896V39.4169ZM110.31 38.5643C109.505 37.9758 109.209 37.3611 109.209 36.6962H107.236C107.236 38.1164 107.944 39.2781 109.146 40.157L110.31 38.5643ZM109.209 36.6962C109.209 35.716 109.386 35.073 109.638 34.6703L107.965 33.6247C107.445 34.4578 107.236 35.5138 107.236 36.6962H109.209ZM109.634 34.6771C109.876 34.2966 110.075 34.0684 110.221 33.9448C110.367 33.8208 110.39 33.8596 110.308 33.8596V31.8868C109.762 31.8868 109.302 32.138 108.947 32.4388C108.591 32.7399 108.268 33.1489 107.97 33.618L109.634 34.6771ZM110.308 33.8596C110.386 33.8596 110.426 33.8658 110.439 33.8684C110.453 33.8713 110.416 33.8661 110.355 33.8291C110.289 33.7881 110.207 33.7151 110.146 33.6037C110.087 33.4943 110.074 33.3951 110.074 33.3366H112.047C112.047 32.8596 111.823 32.416 111.389 32.149C111.034 31.9303 110.628 31.8868 110.308 31.8868V33.8596ZM110.074 33.3366C110.074 33.2599 110.096 33.1636 110.152 33.0745C110.203 32.992 110.257 32.9578 110.264 32.9542L111.279 34.6458C111.71 34.3867 112.047 33.9392 112.047 33.3366H110.074ZM110.224 32.9793C109.086 33.7377 108.395 34.7906 108.395 36.1169H110.367C110.367 35.5897 110.602 35.098 111.318 34.6207L110.224 32.9793ZM108.395 36.1169C108.395 37.3486 108.902 38.3857 109.87 39.1501L111.093 37.6018C110.594 37.2077 110.367 36.7388 110.367 36.1169H108.395ZM109.89 39.165C110.817 39.8605 111.852 40.2312 112.972 40.2312V38.2584C112.316 38.2584 111.691 38.0498 111.073 37.5868L109.89 39.165ZM112.972 40.2312C114.137 40.2312 115.212 39.8375 116.177 39.1026L114.981 37.5334C114.324 38.0342 113.661 38.2584 112.972 38.2584V40.2312ZM116.177 39.1026C117.338 38.2176 117.782 36.7635 117.782 35.0743H115.809C115.809 36.4743 115.441 37.1827 114.981 37.5334L116.177 39.1026ZM117.782 35.0743C117.782 33.1245 116.816 31.4223 115.117 29.9785L113.839 31.4816C115.23 32.6637 115.809 33.8576 115.809 35.0743H117.782ZM115.137 29.9959C113.448 28.4799 111.436 27.7163 109.149 27.7163V29.6891C110.956 29.6891 112.497 30.2771 113.819 31.4641L115.137 29.9959ZM109.149 27.7163C106.178 27.7163 103.883 29.0175 102.39 31.5634L104.092 32.5611C105.225 30.6276 106.868 29.6891 109.149 29.6891V27.7163ZM102.394 31.557C100.954 33.9707 100.285 37.2218 100.285 41.2142H102.258C102.258 37.4062 102.902 34.5561 104.088 32.5676L102.394 31.557ZM100.285 41.2142C100.285 45.1717 100.917 48.5031 102.243 51.1548L104.007 50.2725C102.862 47.9815 102.258 44.9799 102.258 41.2142H100.285ZM102.246 51.1604C102.926 52.4997 103.816 53.5591 104.938 54.2803C106.063 55.0039 107.364 55.3492 108.802 55.3492V53.3765C107.691 53.3765 106.771 53.1136 106.004 52.6208C105.234 52.1256 104.56 51.3605 104.005 50.267L102.246 51.1604ZM108.802 55.3492C110.585 55.3492 112.271 54.7429 113.843 53.5957L112.68 52.0021C111.395 52.9401 110.108 53.3765 108.802 53.3765V55.3492ZM113.843 53.5957C115.377 52.4767 116.522 51.1776 117.224 49.6856L115.439 48.8456C114.906 49.9794 114.005 51.0359 112.68 52.0021L113.843 53.5957ZM132.789 52.9727L132.216 53.7753V53.7753L132.789 52.9727ZM134.817 53.9574L134.505 54.8932L134.518 54.8973L134.817 53.9574ZM141.709 53.5519L142.076 54.4677L142.087 54.4633L142.098 54.4585L141.709 53.5519ZM144.548 51.0033V50.0169H143.929L143.659 50.5745L144.548 51.0033ZM146.228 51.0033L147.112 51.4399L147.814 50.0169H146.228V51.0033ZM127.287 51.6404L126.574 52.3222L126.579 52.3275L126.584 52.3327L127.287 51.6404ZM127.518 31.6568L128.211 32.3593L128.216 32.3543L127.518 31.6568ZM143.853 30.2666L143.163 30.9716L143.17 30.979L143.178 30.9862L143.853 30.2666ZM129.198 41.5038L130.092 41.0881L128.222 41.6433L129.198 41.5038ZM129.314 43.2415L128.328 43.2844L128.329 43.3057L128.331 43.327L129.314 43.2415ZM129.777 47.412L128.805 47.581L128.809 47.6014L128.813 47.6216L129.777 47.412ZM130.356 49.5552L129.428 49.8869L129.438 49.9157L129.45 49.9437L130.356 49.5552ZM131.341 51.4087L130.5 51.9231L130.506 51.9339L130.513 51.9446L131.341 51.4087ZM131.399 31.4251L130.576 30.882L130.573 30.8863L131.399 31.4251ZM129.43 37.9126L128.445 37.8529L130.336 38.3011L129.43 37.9126ZM131.515 35.306L130.96 34.4903L130.952 34.4956L130.945 34.5011L131.515 35.306ZM135.338 35.4218V34.4355H135.306L135.274 34.4376L135.338 35.4218ZM131.399 36.7541L130.736 36.0242L130.727 36.0319L130.719 36.0398L131.399 36.7541ZM131.573 43.2415L130.875 43.939L130.89 43.9535L130.905 43.9674L131.573 43.2415ZM139.856 42.083L140.656 42.6599L140.662 42.6512L139.856 42.083ZM132.216 53.7753C132.856 54.2323 133.626 54.6002 134.505 54.8931L135.129 53.0216C134.386 52.774 133.804 52.4854 133.363 52.17L132.216 53.7753ZM134.518 54.8973C135.49 55.2069 136.62 55.3492 137.887 55.3492V53.3765C136.758 53.3765 135.842 53.2485 135.116 53.0174L134.518 54.8973ZM137.887 55.3492C139.233 55.3492 140.632 55.0452 142.076 54.4677L141.343 52.6361C140.084 53.1399 138.934 53.3765 137.887 53.3765V55.3492ZM142.098 54.4585C143.626 53.8036 144.774 52.8042 145.436 51.4321L143.659 50.5745C143.241 51.4421 142.496 52.1418 141.321 52.6453L142.098 54.4585ZM144.548 51.9896H146.228V50.0169H144.548V51.9896ZM145.343 50.5666C144.07 53.1449 141.36 54.5929 136.728 54.5929V56.5656C141.75 56.5656 145.373 54.9629 147.112 51.4399L145.343 50.5666ZM136.728 54.5929C133.283 54.5929 130.39 53.3847 127.989 50.9482L126.584 52.3327C129.358 55.1479 132.758 56.5656 136.728 56.5656V54.5929ZM127.999 50.9586C125.641 48.493 124.45 45.4229 124.45 41.6776H122.477C122.477 45.8871 123.835 49.4589 126.574 52.3222L127.999 50.9586ZM124.45 41.6776C124.45 37.9085 125.707 34.8267 128.211 32.3593L126.826 30.9543C123.923 33.8158 122.477 37.4146 122.477 41.6776H124.45ZM128.216 32.3543C130.775 29.7952 133.47 28.5885 136.323 28.5885V26.6158C132.842 26.6158 129.668 28.1122 126.821 30.9593L128.216 32.3543ZM136.323 28.5885C139.341 28.5885 141.577 29.4199 143.163 30.9716L144.543 29.5617C142.498 27.5608 139.715 26.6158 136.323 26.6158V28.5885ZM143.178 30.9862C144.846 32.5503 145.647 34.3611 145.647 36.4645H147.619C147.619 33.7795 146.566 31.4584 144.527 29.5471L143.178 30.9862ZM145.647 36.4645C145.647 38.5502 144.802 40.424 143.003 42.1178L144.355 43.5543C146.494 41.541 147.619 39.1671 147.619 36.4645H145.647ZM143.003 42.1178C141.25 43.7679 138.921 44.63 135.917 44.63V46.6028C139.324 46.6028 142.169 45.6113 144.355 43.5543L143.003 42.1178ZM135.917 44.63C134.456 44.63 133.282 44.3185 132.348 43.7469C131.418 43.1776 130.661 42.3102 130.092 41.0881L128.304 41.9196C129.01 43.4391 130.009 44.628 131.319 45.4295C132.624 46.2288 134.173 46.6028 135.917 46.6028V44.63ZM128.222 41.6433C128.252 41.8566 128.289 42.3851 128.328 43.2844L130.299 43.1987C130.261 42.3216 130.221 41.6917 130.174 41.3643L128.222 41.6433ZM128.331 43.327C128.408 44.2139 128.466 44.9052 128.504 45.4024L130.471 45.2511C130.432 44.7443 130.374 44.0454 130.297 43.1561L128.331 43.327ZM128.504 45.4024C128.546 45.951 128.649 46.682 128.805 47.581L130.749 47.243C130.596 46.3657 130.506 45.7066 130.471 45.2511L128.504 45.4024ZM128.813 47.6216C129.011 48.5303 129.214 49.2903 129.428 49.8869L131.285 49.2234C131.112 48.7388 130.93 48.0701 130.741 47.2025L128.813 47.6216ZM129.45 49.9437C129.706 50.5407 130.059 51.2018 130.5 51.9231L132.183 50.8944C131.774 50.2255 131.471 49.6509 131.263 49.1666L129.45 49.9437ZM130.513 51.9446C130.994 52.6871 131.558 53.3055 132.216 53.7753L133.363 52.17C132.939 51.8675 132.538 51.4433 132.169 50.8729L130.513 51.9446ZM142.638 36.1748C142.638 33.5873 142.151 31.4661 141.018 29.9741C139.845 28.4308 138.103 27.7163 135.975 27.7163V29.6891C137.631 29.6891 138.727 30.22 139.447 31.1674C140.206 32.1661 140.665 33.781 140.665 36.1748H142.638ZM135.975 27.7163C133.729 27.7163 131.919 28.8459 130.576 30.882L132.223 31.9682C133.274 30.3745 134.514 29.6891 135.975 29.6891V27.7163ZM130.573 30.8863C129.304 32.8325 128.608 35.1683 128.445 37.8529L130.414 37.9722C130.56 35.5596 131.178 33.5704 132.225 31.9639L130.573 30.8863ZM130.336 38.3011C130.731 37.3807 131.312 36.6584 132.085 36.1109L130.945 34.5011C129.864 35.2666 129.055 36.2819 128.523 37.524L130.336 38.3011ZM132.07 36.1217C132.899 35.5578 133.694 35.3077 134.469 35.3077V33.3349C133.237 33.3349 132.062 33.7412 130.96 34.4903L132.07 36.1217ZM134.469 35.3077C134.701 35.3077 134.887 35.3185 135.032 35.3364C135.181 35.3548 135.263 35.3778 135.299 35.3911C135.34 35.406 135.28 35.393 135.202 35.307C135.106 35.2001 135.047 35.0501 135.047 34.9005H137.019C137.019 34.5579 136.895 34.239 136.668 33.9873C136.461 33.7564 136.205 33.6227 135.985 33.5411C135.556 33.3825 135.023 33.3349 134.469 33.3349V35.3077ZM135.047 34.9005C135.047 34.8789 135.05 34.8134 135.088 34.728C135.129 34.6369 135.193 34.5583 135.267 34.5024C135.398 34.4048 135.475 34.4355 135.338 34.4355V36.4082C135.664 36.4082 136.089 36.352 136.451 36.0806C136.866 35.7692 137.019 35.315 137.019 34.9005H135.047ZM135.274 34.4376C133.39 34.5604 131.82 35.0388 130.736 36.0242L132.063 37.4839C132.678 36.9247 133.733 36.515 135.402 36.4061L135.274 34.4376ZM130.719 36.0398C129.679 37.0305 129.196 38.3496 129.196 39.882H131.169C131.169 38.7884 131.498 38.0223 132.079 37.4684L130.719 36.0398ZM129.196 39.882C129.196 41.456 129.763 42.8269 130.875 43.939L132.27 42.544C131.529 41.8026 131.169 40.9338 131.169 39.882H129.196ZM130.905 43.9674C132.047 45.0176 133.403 45.5601 134.932 45.5601V43.5874C133.913 43.5874 133.03 43.2417 132.241 42.5156L130.905 43.9674ZM134.932 45.5601C137.328 45.5601 139.27 44.5832 140.656 42.6599L139.056 41.5062C138.048 42.9039 136.708 43.5874 134.932 43.5874V45.5601ZM140.662 42.6512C141.986 40.7727 142.638 38.6013 142.638 36.1748H140.665C140.665 38.2278 140.12 39.9952 139.05 41.5149L140.662 42.6512ZM172.401 31.3672L171.854 30.5465L171.831 30.5617L171.809 30.5781L172.401 31.3672ZM169.968 31.3093L169.271 32.0067L169.294 32.03L169.319 32.0516L169.968 31.3093ZM169.331 30.3246L168.368 30.5385L168.379 30.5882L168.396 30.6365L169.331 30.3246ZM168.636 29.3978L168.02 30.168L168.045 30.1877L168.071 30.2059L168.636 29.3978ZM162.265 32.6415L163.113 33.1451L162.265 32.6415ZM159.716 41.0404L158.732 40.9676L158.73 41.0039V41.0404H159.716ZM159.716 55V55.9864H160.702V55H159.716ZM153.924 55H152.937V55.9864H153.924V55ZM153.924 28.1814V27.195H152.937V28.1814H153.924ZM159.716 28.1814H160.702V27.195H159.716V28.1814ZM159.716 35.0164H158.73L160.627 35.3935L159.716 35.0164ZM163.307 29.4557L164.005 30.1532L163.307 29.4557ZM171.474 28.0076L170.977 28.8596L170.998 28.8717L171.019 28.8828L171.474 28.0076ZM171.936 30.3825C171.936 30.4573 171.922 30.4831 171.921 30.4857C171.919 30.4877 171.909 30.51 171.854 30.5465L172.948 32.1879C173.576 31.7696 173.909 31.1303 173.909 30.3825H171.936ZM171.809 30.5781C171.716 30.648 171.538 30.7284 171.185 30.7284V32.7011C171.836 32.7011 172.468 32.5498 172.993 32.1563L171.809 30.5781ZM171.185 30.7284C170.866 30.7284 170.709 30.6468 170.618 30.5669L169.319 32.0516C169.846 32.5123 170.5 32.7011 171.185 32.7011V30.7284ZM170.666 30.6118C170.445 30.3905 170.326 30.1895 170.267 30.0127L168.396 30.6365C168.568 31.1547 168.874 31.6102 169.271 32.0067L170.666 30.6118ZM170.294 30.1106C170.148 29.453 169.723 28.9546 169.202 28.5897L168.071 30.2059C168.322 30.3816 168.36 30.5011 168.368 30.5385L170.294 30.1106ZM169.252 28.6276C168.633 28.1317 167.844 27.948 167.014 27.948V29.9208C167.575 29.9208 167.868 30.0461 168.02 30.168L169.252 28.6276ZM167.014 27.948C164.776 27.948 162.936 29.5796 161.417 32.1379L163.113 33.1451C164.529 30.7606 165.854 29.9208 167.014 29.9208V27.948ZM161.417 32.1379C159.864 34.7522 158.974 37.7017 158.732 40.9676L160.7 41.1133C160.921 38.1234 161.73 35.4737 163.113 33.1451L161.417 32.1379ZM158.73 41.0404V55H160.702V41.0404H158.73ZM159.716 54.0136H153.924V55.9864H159.716V54.0136ZM154.91 55V28.1814H152.937V55H154.91ZM153.924 29.1678H159.716V27.195H153.924V29.1678ZM158.73 28.1814V35.0164H160.702V28.1814H158.73ZM160.627 35.3935C161.513 33.2537 162.643 31.5148 164.005 30.1532L162.61 28.7582C161.037 30.3314 159.773 32.2996 158.805 34.6392L160.627 35.3935ZM164.005 30.1532C165.403 28.7547 166.673 28.1831 167.825 28.1831V26.2103C165.965 26.2103 164.223 27.1447 162.61 28.7582L164.005 30.1532ZM167.825 28.1831C169.224 28.1831 170.25 28.4355 170.977 28.8596L171.971 27.1556C170.845 26.4985 169.439 26.2103 167.825 26.2103V28.1831ZM171.019 28.8828C171.371 29.0653 171.586 29.274 171.718 29.4914C171.851 29.7083 171.936 29.9925 171.936 30.3825H173.909C173.909 29.6913 173.753 29.039 173.403 28.4643C173.053 27.89 172.544 27.4519 171.93 27.1325L171.019 28.8828ZM183.797 28.2393H184.784V27.253H183.797V28.2393ZM183.797 55.0579V56.0443H184.784V55.0579H183.797ZM178.005 55.0579H177.019V56.0443H178.005V55.0579ZM178.005 28.2393V27.253H177.019V28.2393H178.005ZM178.7 22.7945L177.98 23.4691L178.002 23.4923L178.025 23.5141L178.7 22.7945ZM178.7 18.4502L178.003 17.7528H178.003L178.7 18.4502ZM183.044 18.4502L182.325 19.1249L182.346 19.1481L182.37 19.1698L183.044 18.4502ZM183.044 22.7945L182.347 22.097V22.097L183.044 22.7945ZM182.811 28.2393V55.0579H184.784V28.2393H182.811ZM183.797 54.0716H178.005V56.0443H183.797V54.0716ZM178.991 55.0579V28.2393H177.019V55.0579H178.991ZM178.005 29.2257H183.797V27.253H178.005V29.2257ZM179.42 22.1199C179.012 21.6855 178.818 21.1932 178.818 20.5934H176.845C176.845 21.6927 177.229 22.6678 177.98 23.4691L179.42 22.1199ZM178.818 20.5934C178.818 19.9946 179.011 19.5344 179.397 19.1477L178.003 17.7528C177.231 18.5245 176.845 19.4931 176.845 20.5934H178.818ZM179.397 19.1477C179.836 18.7089 180.321 18.5098 180.901 18.5098V16.5371C179.782 16.5371 178.799 16.9558 178.003 17.7528L179.397 19.1477ZM180.901 18.5098C181.479 18.5098 181.933 18.7066 182.325 19.1249L183.764 17.7756C182.997 16.9582 182.022 16.5371 180.901 16.5371V18.5098ZM182.37 19.1698C182.788 19.5619 182.985 20.0155 182.985 20.5934H184.957C184.957 19.4722 184.536 18.497 183.719 17.7306L182.37 19.1698ZM182.985 20.5934C182.985 21.1731 182.786 21.6583 182.347 22.097L183.742 23.492C184.539 22.6951 184.957 21.7128 184.957 20.5934H182.985ZM182.347 22.097C181.96 22.4838 181.5 22.677 180.901 22.677V24.6497C182.001 24.6497 182.97 24.2637 183.742 23.492L182.347 22.097ZM180.901 22.677C180.301 22.677 179.809 22.4822 179.375 22.0749L178.025 23.5141C178.827 24.2653 179.802 24.6497 180.901 24.6497V22.677ZM200.395 52.9727L199.821 53.7753V53.7753L200.395 52.9727ZM202.422 53.9574L202.11 54.8932L202.123 54.8973L202.422 53.9574ZM209.315 53.5519L209.681 54.4677L209.692 54.4633L209.703 54.4585L209.315 53.5519ZM212.153 51.0033V50.0169H211.534L211.265 50.5745L212.153 51.0033ZM213.833 51.0033L214.717 51.4399L215.42 50.0169H213.833V51.0033ZM194.892 51.6404L194.179 52.3222L194.184 52.3275L194.189 52.3327L194.892 51.6404ZM195.124 31.6568L195.816 32.3593L195.821 32.3543L195.124 31.6568ZM211.458 30.2666L210.768 30.9716L210.776 30.979L210.783 30.9862L211.458 30.2666ZM196.803 41.5038L197.698 41.0881L195.827 41.6433L196.803 41.5038ZM196.919 43.2415L195.934 43.2844L195.935 43.3057L195.937 43.327L196.919 43.2415ZM197.383 47.412L196.411 47.581L196.414 47.6014L196.419 47.6216L197.383 47.412ZM197.962 49.5552L197.033 49.8869L197.043 49.9157L197.055 49.9437L197.962 49.5552ZM198.947 51.4087L198.105 51.9231L198.112 51.9339L198.118 51.9446L198.947 51.4087ZM199.004 31.4251L198.181 30.882L198.178 30.8863L199.004 31.4251ZM197.035 37.9126L196.051 37.8529L197.942 38.3011L197.035 37.9126ZM199.12 35.306L198.566 34.4903L198.558 34.4956L198.55 34.5011L199.12 35.306ZM202.943 35.4218V34.4355H202.911L202.879 34.4376L202.943 35.4218ZM199.004 36.7541L198.341 36.0242L198.333 36.0319L198.324 36.0398L199.004 36.7541ZM199.178 43.2415L198.481 43.939L198.495 43.9535L198.51 43.9674L199.178 43.2415ZM207.461 42.083L208.261 42.6599L208.268 42.6512L207.461 42.083ZM199.821 53.7753C200.461 54.2323 201.231 54.6002 202.11 54.8931L202.734 53.0216C201.991 52.774 201.409 52.4854 200.968 52.17L199.821 53.7753ZM202.123 54.8973C203.096 55.2069 204.226 55.3492 205.492 55.3492V53.3765C204.364 53.3765 203.447 53.2485 202.721 53.0174L202.123 54.8973ZM205.492 55.3492C206.838 55.3492 208.238 55.0452 209.681 54.4677L208.949 52.6361C207.689 53.1399 206.54 53.3765 205.492 53.3765V55.3492ZM209.703 54.4585C211.232 53.8036 212.379 52.8042 213.041 51.4321L211.265 50.5745C210.846 51.4421 210.101 52.1418 208.926 52.6453L209.703 54.4585ZM212.153 51.9896H213.833V50.0169H212.153V51.9896ZM212.948 50.5666C211.676 53.1449 208.965 54.5929 204.333 54.5929V56.5656C209.356 56.5656 212.978 54.9629 214.717 51.4399L212.948 50.5666ZM204.333 54.5929C200.889 54.5929 197.995 53.3847 195.595 50.9482L194.189 52.3327C196.963 55.1479 200.364 56.5656 204.333 56.5656V54.5929ZM195.605 50.9586C193.246 48.493 192.055 45.4229 192.055 41.6776H190.083C190.083 45.8871 191.44 49.4589 194.179 52.3222L195.605 50.9586ZM192.055 41.6776C192.055 37.9085 193.313 34.8267 195.816 32.3593L194.431 30.9543C191.528 33.8158 190.083 37.4146 190.083 41.6776H192.055ZM195.821 32.3543C198.38 29.7952 201.076 28.5885 203.928 28.5885V26.6158C200.447 26.6158 197.273 28.1122 194.426 30.9593L195.821 32.3543ZM203.928 28.5885C206.946 28.5885 209.183 29.4199 210.768 30.9716L212.148 29.5617C210.104 27.5608 207.32 26.6158 203.928 26.6158V28.5885ZM210.783 30.9862C212.452 32.5503 213.252 34.3611 213.252 36.4645H215.225C215.225 33.7795 214.171 31.4584 212.133 29.5471L210.783 30.9862ZM213.252 36.4645C213.252 38.5502 212.408 40.424 210.608 42.1178L211.96 43.5543C214.099 41.541 215.225 39.1671 215.225 36.4645H213.252ZM210.608 42.1178C208.855 43.7679 206.526 44.63 203.523 44.63V46.6028C206.929 46.6028 209.775 45.6113 211.96 43.5543L210.608 42.1178ZM203.523 44.63C202.062 44.63 200.888 44.3185 199.954 43.7469C199.024 43.1776 198.266 42.3102 197.698 41.0881L195.909 41.9196C196.615 43.4391 197.614 44.628 198.924 45.4295C200.23 46.2288 201.778 46.6028 203.523 46.6028V44.63ZM195.827 41.6433C195.857 41.8566 195.895 42.3851 195.934 43.2844L197.905 43.1987C197.867 42.3216 197.827 41.6917 197.78 41.3643L195.827 41.6433ZM195.937 43.327C196.014 44.2139 196.071 44.9052 196.11 45.4024L198.076 45.2511C198.037 44.7443 197.979 44.0454 197.902 43.1561L195.937 43.327ZM196.11 45.4024C196.152 45.951 196.254 46.682 196.411 47.581L198.354 47.243C198.202 46.3657 198.111 45.7066 198.076 45.2511L196.11 45.4024ZM196.419 47.6216C196.616 48.5303 196.82 49.2903 197.033 49.8869L198.891 49.2234C198.718 48.7388 198.535 48.0701 198.346 47.2025L196.419 47.6216ZM197.055 49.9437C197.311 50.5407 197.664 51.2018 198.105 51.9231L199.788 50.8944C199.379 50.2255 199.076 49.6509 198.868 49.1666L197.055 49.9437ZM198.118 51.9446C198.599 52.6871 199.164 53.3055 199.821 53.7753L200.968 52.17C200.544 51.8675 200.144 51.4433 199.775 50.8729L198.118 51.9446ZM210.243 36.1748C210.243 33.5873 209.757 31.4661 208.623 29.9741C207.451 28.4308 205.709 27.7163 203.58 27.7163V29.6891C205.237 29.6891 206.333 30.22 207.052 31.1674C207.811 32.1661 208.271 33.781 208.271 36.1748H210.243ZM203.58 27.7163C201.334 27.7163 199.524 28.8459 198.181 30.882L199.828 31.9682C200.879 30.3745 202.12 29.6891 203.58 29.6891V27.7163ZM198.178 30.8863C196.909 32.8325 196.213 35.1683 196.051 37.8529L198.02 37.9722C198.166 35.5596 198.783 33.5704 199.831 31.9639L198.178 30.8863ZM197.942 38.3011C198.336 37.3807 198.918 36.6584 199.69 36.1109L198.55 34.5011C197.47 35.2666 196.661 36.2819 196.128 37.524L197.942 38.3011ZM199.675 36.1217C200.504 35.5578 201.299 35.3077 202.074 35.3077V33.3349C200.842 33.3349 199.667 33.7412 198.566 34.4903L199.675 36.1217ZM202.074 35.3077C202.307 35.3077 202.493 35.3185 202.638 35.3364C202.786 35.3548 202.869 35.3778 202.905 35.3911C202.945 35.406 202.885 35.393 202.807 35.307C202.711 35.2001 202.652 35.0501 202.652 34.9005H204.625C204.625 34.5579 204.5 34.239 204.274 33.9873C204.066 33.7564 203.81 33.6227 203.59 33.5411C203.162 33.3825 202.629 33.3349 202.074 33.3349V35.3077ZM202.652 34.9005C202.652 34.8789 202.656 34.8134 202.694 34.728C202.734 34.6369 202.798 34.5583 202.873 34.5024C203.003 34.4048 203.08 34.4355 202.943 34.4355V36.4082C203.27 36.4082 203.695 36.352 204.056 36.0806C204.472 35.7692 204.625 35.315 204.625 34.9005H202.652ZM202.879 34.4376C200.996 34.5604 199.425 35.0388 198.341 36.0242L199.668 37.4839C200.283 36.9247 201.338 36.515 203.007 36.4061L202.879 34.4376ZM198.324 36.0398C197.284 37.0305 196.802 38.3496 196.802 39.882H198.774C198.774 38.7884 199.103 38.0223 199.685 37.4684L198.324 36.0398ZM196.802 39.882C196.802 41.456 197.369 42.8269 198.481 43.939L199.876 42.544C199.134 41.8026 198.774 40.9338 198.774 39.882H196.802ZM198.51 43.9674C199.652 45.0176 201.008 45.5601 202.538 45.5601V43.5874C201.519 43.5874 200.635 43.2417 199.846 42.5156L198.51 43.9674ZM202.538 45.5601C204.933 45.5601 206.875 44.5832 208.261 42.6599L206.661 41.5062C205.654 42.9039 204.313 43.5874 202.538 43.5874V45.5601ZM208.268 42.6512C209.591 40.7727 210.243 38.6013 210.243 36.1748H208.271C208.271 38.2278 207.726 39.9952 206.655 41.5149L208.268 42.6512ZM223.209 53.6678L222.722 54.526L222.733 54.532L223.209 53.6678ZM220.197 46.4852L221.053 46.9746L220.197 46.4852ZM222.514 46.1377L221.771 46.7872L222.514 46.1377ZM222.34 48.3967L223.143 48.97L223.152 48.9571L223.161 48.9439L222.34 48.3967ZM224.831 52.9727L224.41 53.8648L224.831 52.9727ZM236.126 52.5672L235.562 51.7575L235.554 51.7634L236.126 52.5672ZM235.894 44.2262L235.523 45.1401L235.541 45.1475L235.56 45.1543L235.894 44.2262ZM229.58 42.7781L229.416 43.7508L229.429 43.7527L229.58 42.7781ZM222.63 40.3453L223.181 39.5276L222.63 40.3453ZM221.239 31.4251L222.046 31.9928L221.239 31.4251ZM224.078 29.0503L223.667 28.1533L223.661 28.1564L224.078 29.0503ZM236.705 28.6448L236.297 29.5428L236.304 29.5461L236.705 28.6448ZM240.122 31.541L241.029 31.1524L241.023 31.138L241.016 31.1238L240.122 31.541ZM237.4 32.4098L238.386 32.3799L238.386 32.3683L238.385 32.3566L237.4 32.4098ZM235.72 29.4557L236.174 28.5801L236.136 28.5601L236.096 28.5436L235.72 29.4557ZM225.294 30.0929L225.775 30.9542L225.782 30.95L225.79 30.9456L225.294 30.0929ZM227.611 36.6962L227.54 37.68L227.552 37.6807L227.611 36.6962ZM236.531 38.3759L236.215 39.3104L236.219 39.3117L236.531 38.3759ZM239.949 41.0404L239.132 41.5931L239.141 41.607L239.151 41.6206L239.949 41.0404ZM240.354 50.3661L241.231 50.8178L240.354 50.3661ZM237.748 53.3781L238.301 54.1943L237.748 53.3781ZM230.565 54.5929C228.148 54.5929 225.859 53.9995 223.684 52.8035L222.733 54.532C225.193 55.8846 227.808 56.5656 230.565 56.5656V54.5929ZM223.695 52.8096C221.632 51.6404 220.72 50.1252 220.72 48.2229H218.747C218.747 50.9546 220.152 53.0693 222.723 54.5259L223.695 52.8096ZM220.72 48.2229C220.72 47.7781 220.829 47.3674 221.053 46.9746L219.34 45.9959C218.947 46.6843 218.747 47.432 218.747 48.2229H220.72ZM221.053 46.9746C221.158 46.7919 221.242 46.7145 221.284 46.6851C221.314 46.6639 221.33 46.6607 221.355 46.6607V44.6879C220.418 44.6879 219.756 45.2681 219.34 45.9959L221.053 46.9746ZM221.355 46.6607C221.642 46.6607 221.729 46.7393 221.771 46.7872L223.256 45.4882C222.757 44.9182 222.073 44.6879 221.355 44.6879V46.6607ZM221.771 46.7872C221.937 46.9763 221.933 47.0636 221.933 47.0645H223.906C223.906 46.4475 223.631 45.9169 223.256 45.4882L221.771 46.7872ZM221.933 47.0645C221.933 47.0287 221.94 47.0752 221.87 47.2359C221.804 47.3867 221.693 47.5895 221.519 47.8496L223.161 48.9439C223.373 48.6247 223.551 48.3159 223.679 48.0225C223.802 47.7392 223.906 47.4091 223.906 47.0645H221.933ZM221.537 47.8234C221.124 48.4016 220.774 49.0595 220.774 49.729H222.747C222.747 49.7326 222.748 49.672 222.81 49.5285C222.871 49.3884 222.976 49.2033 223.143 48.97L221.537 47.8234ZM220.774 49.729C220.774 51.5607 222.329 52.8833 224.41 53.8648L225.251 52.0806C223.239 51.1313 222.747 50.2914 222.747 49.729H220.774ZM224.41 53.8648C226.56 54.8788 228.653 55.4071 230.681 55.4071V53.4344C229.001 53.4344 227.195 52.9973 225.251 52.0806L224.41 53.8648ZM230.681 55.4071C232.804 55.4071 234.815 54.7098 236.697 53.3711L235.554 51.7634C233.961 52.896 232.343 53.4344 230.681 53.4344V55.4071ZM236.689 53.3769C238.686 51.9875 239.777 50.1406 239.777 47.8754H237.804C237.804 49.3945 237.118 50.6755 235.562 51.7575L236.689 53.3769ZM239.777 47.8754C239.777 46.8119 239.476 45.85 238.839 45.0466C238.211 44.2555 237.312 43.6883 236.228 43.2982L235.56 45.1543C236.407 45.4592 236.956 45.8478 237.294 46.273C237.621 46.6861 237.804 47.2012 237.804 47.8754H239.777ZM236.265 43.3124C234.915 42.7637 232.711 42.2677 229.732 41.8035L229.429 43.7527C232.397 44.2153 234.402 44.6847 235.523 45.1401L236.265 43.3124ZM229.745 41.8055C226.846 41.3162 224.681 40.5393 223.181 39.5276L222.078 41.1631C223.899 42.3911 226.368 43.2361 229.416 43.7507L229.745 41.8055ZM223.181 39.5276C221.843 38.6254 221.125 37.2265 221.125 35.1322H219.152C219.152 37.7491 220.095 39.8255 222.078 41.1631L223.181 39.5276ZM221.125 35.1322C221.125 33.8811 221.443 32.8495 222.046 31.9928L220.433 30.8575C219.568 32.086 219.152 33.5258 219.152 35.1322H221.125ZM222.046 31.9928C222.68 31.0914 223.492 30.4121 224.495 29.9441L223.661 28.1564C222.346 28.7697 221.266 29.6736 220.433 30.8575L222.046 31.9928ZM224.488 29.9472C226.655 28.9553 228.756 28.4727 230.797 28.4727V26.4999C228.436 26.4999 226.057 27.0599 223.667 28.1533L224.488 29.9472ZM230.797 28.4727C232.923 28.4727 234.749 28.8392 236.297 29.5427L237.113 27.7468C235.263 26.9058 233.15 26.4999 230.797 26.4999V28.4727ZM236.304 29.5461C237.928 30.2676 238.828 31.0992 239.229 31.9581L241.016 31.1238C240.336 29.6658 238.958 28.5666 237.106 27.7434L236.304 29.5461ZM239.216 31.9295C239.42 32.4053 239.484 32.7297 239.484 32.9311H241.456C241.456 32.3602 241.289 31.7579 241.029 31.1524L239.216 31.9295ZM239.484 32.9311C239.484 33.08 239.464 33.1691 239.448 33.2158C239.44 33.2382 239.433 33.2503 239.43 33.2555C239.427 33.2603 239.425 33.2618 239.425 33.2622C239.424 33.2627 239.421 33.2658 239.412 33.2711C239.403 33.2765 239.385 33.2854 239.355 33.295C239.293 33.3147 239.187 33.3349 239.022 33.3349V35.3077C239.647 35.3077 240.298 35.1583 240.791 34.6853C241.291 34.2051 241.456 33.557 241.456 32.9311H239.484ZM239.022 33.3349C238.712 33.3349 238.624 33.2497 238.587 33.2053C238.52 33.1263 238.402 32.9054 238.386 32.3799L236.414 32.4397C236.437 33.1885 236.609 33.9234 237.082 34.4816C237.585 35.0743 238.289 35.3077 239.022 35.3077V33.3349ZM238.385 32.3566C238.294 30.6681 237.599 29.3187 236.174 28.5801L235.266 30.3314C235.927 30.674 236.352 31.294 236.415 32.4631L238.385 32.3566ZM236.096 28.5436C234.625 27.9381 232.826 27.6584 230.739 27.6584V29.6312C232.667 29.6312 234.189 29.8921 235.345 30.3678L236.096 28.5436ZM230.739 27.6584C228.6 27.6584 226.613 28.1849 224.798 29.2402L225.79 30.9456C227.296 30.07 228.939 29.6312 230.739 29.6312V27.6584ZM224.813 29.2316C222.948 30.2729 221.817 31.7516 221.817 33.6841H223.79C223.79 32.6819 224.32 31.7664 225.775 30.9542L224.813 29.2316ZM221.817 33.6841C221.817 34.9376 222.415 35.9369 223.482 36.6053C224.484 37.2331 225.875 37.5596 227.54 37.68L227.682 35.7124C226.142 35.601 225.129 35.3097 224.529 34.9335C223.993 34.5978 223.79 34.207 223.79 33.6841H221.817ZM227.552 37.6807C230.679 37.8691 233.565 38.4145 236.215 39.3104L236.847 37.4415C234.014 36.4838 230.953 35.9093 227.67 35.7116L227.552 37.6807ZM236.219 39.3117C237.386 39.7007 238.355 40.4443 239.132 41.5931L240.766 40.4878C239.767 39.0107 238.456 37.978 236.843 37.4402L236.219 39.3117ZM239.151 41.6206C239.935 42.698 240.353 44.0492 240.353 45.7322H242.325C242.325 43.7081 241.816 41.9314 240.746 40.4603L239.151 41.6206ZM240.353 45.7322C240.353 47.4308 240.045 48.812 239.477 49.9144L241.231 50.8178C241.976 49.3716 242.325 47.6635 242.325 45.7322H240.353ZM239.477 49.9144C238.889 51.0567 238.126 51.9296 237.194 52.5619L238.301 54.1943C239.532 53.3593 240.507 52.2242 241.231 50.8178L239.477 49.9144ZM237.194 52.5619C235.196 53.9179 232.995 54.5929 230.565 54.5929V56.5656C233.387 56.5656 235.975 55.7732 238.301 54.1943L237.194 52.5619ZM266.505 58.1279L265.746 58.7572L265.748 58.7593L266.505 58.1279ZM264.304 53.0885L263.329 53.2385L263.331 53.2476L263.332 53.2567L264.304 53.0885ZM263.493 47.0065L262.512 47.104L262.513 47.1175L263.493 47.0065ZM258.975 38.7235L259.154 37.7535L258.556 37.6431L258.189 38.128L258.975 38.7235ZM254.457 44.6896L253.671 44.0941L253.471 44.3583V44.6896H254.457ZM254.457 55V55.9864H255.444V55H254.457ZM248.665 55H247.678V55.9864H248.665V55ZM248.665 11.5573V10.571H247.678V11.5573H248.665ZM254.457 11.5573H255.444V10.571H254.457V11.5573ZM254.457 42.7781H253.471V45.7232L255.245 43.3722L254.457 42.7781ZM261.756 33.1049L262.543 33.699L262.547 33.6942L261.756 33.1049ZM270.56 27.8918L270.706 28.8672L270.725 28.8644L270.745 28.8607L270.56 27.8918ZM267.085 29.5716L267.622 30.3986L267.085 29.5716ZM262.566 33.9738L263.35 34.5734L263.352 34.5706L262.566 33.9738ZM259.728 37.6809L258.945 37.0812L257.578 38.8668L259.818 38.6632L259.728 37.6809ZM266.158 39.1869L265.497 39.9189L265.509 39.93L265.522 39.9408L266.158 39.1869ZM268.533 43.1257L267.569 43.3372L267.572 43.3483L267.574 43.3594L268.533 43.1257ZM269.401 48.3388L268.42 48.4389L268.421 48.45L268.423 48.4611L269.401 48.3388ZM269.807 53.494L268.821 53.518L268.821 53.53L268.822 53.542L269.807 53.494ZM270.676 57.4328L271.571 57.0174L271.565 57.0049L270.676 57.4328ZM275.252 58.2437L274.674 57.4441L274.66 57.4544L274.646 57.4651L275.252 58.2437ZM276.874 56.6798L276.092 56.0784L276.081 56.0922L276.071 56.1065L276.874 56.6798ZM277.742 56.7956L278.622 57.2427L278.625 57.2367L277.742 56.7956ZM271.371 59.2267C269.529 59.2267 268.204 58.626 267.263 57.4964L265.748 58.7593C267.123 60.41 269.043 61.1995 271.371 61.1995V59.2267ZM267.265 57.4986C266.271 56.2996 265.599 54.7863 265.276 52.9203L263.332 53.2567C263.704 55.4068 264.5 57.2531 265.746 58.7572L267.265 57.4986ZM265.279 52.9385C264.972 50.9437 264.704 48.9294 264.473 46.8956L262.513 47.1175C262.746 49.177 263.018 51.2173 263.329 53.2385L265.279 52.9385ZM264.475 46.9091C264.218 44.3196 263.697 42.2156 262.853 40.6695C261.994 39.0946 260.769 38.0516 259.154 37.7535L258.796 39.6935C259.692 39.8588 260.474 40.4279 261.121 41.6141C261.784 42.829 262.267 44.6348 262.512 47.104L264.475 46.9091ZM258.189 38.128L253.671 44.0941L255.244 45.2851L259.762 39.319L258.189 38.128ZM253.471 44.6896V55H255.444V44.6896H253.471ZM254.457 54.0136H248.665V55.9864H254.457V54.0136ZM249.651 55V11.5573H247.678V55H249.651ZM248.665 12.5437H254.457V10.571H248.665V12.5437ZM253.471 11.5573V42.7781H255.444V11.5573H253.471ZM255.245 43.3722L262.543 33.699L260.968 32.5108L253.67 42.184L255.245 43.3722ZM262.547 33.6942C263.945 31.8171 265.575 30.3 267.435 29.1328L266.387 27.4617C264.308 28.7659 262.501 30.4539 260.965 32.5156L262.547 33.6942ZM267.435 29.1328C269.266 27.9839 271.114 27.4301 272.993 27.4301V25.4573C270.701 25.4573 268.494 26.1391 266.387 27.4617L267.435 29.1328ZM272.993 27.4301C273.14 27.4301 273.247 27.4389 273.32 27.4506C273.397 27.4627 273.414 27.4741 273.396 27.4654C273.375 27.4555 273.293 27.4118 273.218 27.3046C273.136 27.1884 273.107 27.062 273.107 26.965H275.08C275.08 26.6942 275.005 26.4157 274.831 26.1693C274.664 25.9317 274.445 25.7794 274.24 25.6826C273.858 25.5013 273.406 25.4573 272.993 25.4573V27.4301ZM273.107 26.965C273.107 27.0447 273.088 26.9232 273.222 26.7888C273.356 26.6545 273.478 26.6737 273.398 26.6737V28.6465C273.782 28.6465 274.251 28.5499 274.617 28.1838C274.983 27.8177 275.08 27.3487 275.08 26.965H273.107ZM273.398 26.6737C272.273 26.6737 271.262 26.7539 270.375 26.9228L270.745 28.8607C271.479 28.7208 272.361 28.6465 273.398 28.6465V26.6737ZM270.414 26.9163C269.409 27.067 268.091 27.7408 266.547 28.7445L267.622 30.3986C269.167 29.3943 270.166 28.9482 270.706 28.8672L270.414 26.9163ZM266.547 28.7445C264.882 29.8266 263.297 31.3827 261.781 33.3769L263.352 34.5706C264.771 32.7032 266.197 31.3246 267.622 30.3986L266.547 28.7445ZM261.783 33.3741L258.945 37.0812L260.511 38.2805L263.35 34.5734L261.783 33.3741ZM259.818 38.6632C260.676 38.5851 261.19 38.5514 261.408 38.5514V36.5786C261.085 36.5786 260.479 36.6221 259.639 36.6985L259.818 38.6632ZM261.408 38.5514C263.19 38.5514 264.519 39.0357 265.497 39.9189L266.819 38.4549C265.403 37.1756 263.565 36.5786 261.408 36.5786V38.5514ZM265.522 39.9408C266.591 40.8431 267.268 41.9652 267.569 43.3372L269.496 42.9142C269.102 41.1197 268.196 39.6159 266.794 38.433L265.522 39.9408ZM267.574 43.3594C267.948 44.8922 268.231 46.5845 268.42 48.4389L270.383 48.2387C270.186 46.3087 269.889 44.5257 269.491 42.8919L267.574 43.3594ZM268.423 48.4611C268.651 50.2877 268.783 51.9729 268.821 53.518L270.793 53.4699C270.753 51.8486 270.615 50.097 270.38 48.2164L268.423 48.4611ZM268.822 53.542C268.903 55.2114 269.211 56.6639 269.787 57.8607L271.565 57.0049C271.137 56.1164 270.865 54.9431 270.792 53.4459L268.822 53.542ZM269.781 57.8482C270.079 58.4886 270.472 59.0412 270.993 59.4357C271.528 59.8404 272.149 60.041 272.819 60.041V58.0683C272.562 58.0683 272.363 57.9986 272.183 57.8626C271.99 57.7165 271.775 57.4582 271.57 57.0174L269.781 57.8482ZM272.819 60.041C273.953 60.041 274.98 59.705 275.857 59.0223L274.646 57.4651C274.134 57.8637 273.539 58.0683 272.819 58.0683V60.041ZM275.829 59.0434C276.587 58.4959 277.213 57.902 277.676 57.2531L276.071 56.1065C275.762 56.5388 275.306 56.9875 274.674 57.4441L275.829 59.0434ZM277.655 57.2812C277.835 57.0476 277.961 56.9088 278.037 56.8378C278.076 56.802 278.078 56.8055 278.049 56.823C278.032 56.8328 277.996 56.853 277.94 56.8718C277.886 56.8906 277.798 56.9131 277.685 56.9131V54.9404C277.394 54.9404 277.168 55.052 277.045 55.1246C276.909 55.2049 276.791 55.3026 276.695 55.3922C276.501 55.5722 276.298 55.81 276.092 56.0784L277.655 57.2812ZM277.685 56.9131C277.61 56.9131 277.372 56.8938 277.161 56.6822C276.949 56.4706 276.93 56.2333 276.93 56.1585H278.903C278.903 55.9292 278.845 55.5761 278.556 55.2872C278.267 54.9984 277.914 54.9404 277.685 54.9404V56.9131ZM276.93 56.1585C276.93 56.1553 276.93 56.2151 276.86 56.3545L278.625 57.2367C278.787 56.9127 278.903 56.5478 278.903 56.1585H276.93ZM276.863 56.3486C275.912 58.2202 274.182 59.2267 271.371 59.2267V61.1995C274.738 61.1995 277.256 59.9277 278.622 57.2427L276.863 56.3486Z" fill="#FFD037"/>
</svg>
