<svg width="22" height="19" viewBox="0 0 22 19" fill="none" xmlns="http://www.w3.org/2000/svg">
<path d="M18.8323 6.31748C16.9546 5.32812 15.1118 4.36315 13.2724 3.3947C13.262 3.40515 13.2515 3.41909 13.2376 3.42954C13.262 3.47831 13.2829 3.52708 13.3073 3.57237C13.7044 4.27955 14.1155 4.97976 14.4952 5.69739C14.6345 5.95866 14.753 6.2478 14.7983 6.54043C14.8923 7.16748 14.4638 7.72138 13.8124 7.84331C13.5476 7.89208 13.2689 7.90253 12.9972 7.90253C11.2972 7.90602 9.5937 7.9095 7.89368 7.89905C7.63241 7.89905 7.35372 7.86073 7.10987 7.77015C6.40965 7.50888 6.13793 6.78777 6.48281 6.0562C6.75802 5.47095 7.09941 4.91357 7.41643 4.34574C7.61499 3.98692 7.81704 3.62811 7.99819 3.23445C6.1449 4.20987 4.28812 5.18529 2.39302 6.1851C2.49056 6.24432 2.53933 6.28264 2.59159 6.31051C5.04058 7.63081 7.49307 8.95111 9.94555 10.2679C10.172 10.3899 10.179 10.4073 10.0535 10.6233C9.48571 11.6022 8.91787 12.5811 8.35353 13.56C8.23857 13.755 8.21766 13.762 8.01213 13.654C5.42378 12.2745 2.83544 10.9019 0.250579 9.53288C-0.0559809 9.36914 -0.0559809 9.36914 0.114717 9.06955C0.640747 8.14639 1.19116 7.23716 1.67887 6.29657C1.91228 5.84718 2.27806 5.60681 2.68913 5.38734C4.60861 4.36315 6.5281 3.34593 8.44758 2.32174C8.53816 2.27297 8.62525 2.18588 8.6775 2.09879C8.92136 1.68423 9.15128 1.26271 9.38817 0.841193C9.57977 0.506764 9.81665 0.214138 10.1894 0.0747926C10.7294 -0.127259 11.3007 0.0852435 11.649 0.649593C11.9591 1.14427 12.2413 1.65985 12.5165 2.17543C12.6489 2.42277 12.8265 2.57953 13.0773 2.71191C15.0979 3.76745 17.1079 4.83693 19.118 5.90989C19.226 5.96911 19.3305 6.07362 19.3932 6.18161C19.961 7.16052 20.5184 8.1429 21.0793 9.12529C21.2047 9.34128 21.1977 9.36566 20.9748 9.48411C18.362 10.8706 15.7493 12.2571 13.14 13.6436C12.9415 13.7481 12.9241 13.7411 12.8056 13.5391C12.2378 12.5602 11.67 11.5847 11.1021 10.6058C10.9872 10.4073 10.9976 10.3759 11.1962 10.2714C13.6312 9.01381 16.0698 7.75622 18.5049 6.49514C18.5989 6.44637 18.693 6.39412 18.8323 6.31748ZM10.5656 7.24761C11.4714 7.25109 12.3771 7.25109 13.2829 7.24761C13.4362 7.24761 13.5964 7.22322 13.7462 7.18142C14.0806 7.08736 14.2304 6.81564 14.1364 6.48121C14.098 6.34186 14.0388 6.206 13.9692 6.08059C13.0669 4.46766 12.1611 2.85474 11.2519 1.2453C11.1718 1.10595 11.0812 0.966604 10.9732 0.848161C10.7329 0.590371 10.4472 0.590371 10.1999 0.844677C10.1058 0.938735 10.0257 1.04673 9.95948 1.16169C9.03632 2.799 8.11315 4.43283 7.20044 6.07362C7.11335 6.23387 7.05413 6.41502 7.01232 6.59268C6.96355 6.82609 7.06458 7.03162 7.28056 7.1222C7.44778 7.19187 7.63589 7.24064 7.81704 7.24064C8.73324 7.25109 9.64944 7.24761 10.5656 7.24761Z" fill="#FFD037"/>
<path d="M10.8444 15.3262C10.8444 14.1835 10.8444 13.0374 10.8479 11.8948C10.8479 11.8216 10.8862 11.7136 10.9419 11.6823C11.0464 11.6231 11.1022 11.7276 11.1474 11.8112C11.6038 12.5985 12.0602 13.3858 12.52 14.1696C12.6802 14.4448 12.7778 14.4692 13.053 14.3264C14.9551 13.3161 16.8606 12.3058 18.7627 11.2956C18.7871 11.2817 18.8149 11.2677 18.8393 11.2573C19.0065 11.1771 19.0936 11.2294 19.0936 11.4175C19.0971 11.8634 19.0936 12.3128 19.0936 12.7587C19.0936 13.3509 19.0901 13.9432 19.0936 14.5354C19.0936 14.6678 19.0483 14.7444 18.9299 14.8071C16.3346 16.1797 13.7393 17.5592 11.144 18.9352C10.9175 19.0571 10.8374 19.0119 10.8374 18.7575C10.8444 17.6114 10.8444 16.4688 10.8444 15.3262Z" fill="#FFD037"/>
<path d="M10.301 15.3366C10.301 16.4688 10.301 17.601 10.301 18.7332C10.301 19.0188 10.2313 19.0571 9.98396 18.9282C7.3991 17.5557 4.81424 16.1831 2.22938 14.8141C2.10746 14.7514 2.04475 14.6817 2.04823 14.5354C2.0552 13.5147 2.05172 12.4905 2.05172 11.4698C2.05172 11.2015 2.12836 11.1597 2.36524 11.2886C4.28473 12.3059 6.20422 13.3266 8.12022 14.3438C8.37801 14.4796 8.47903 14.4518 8.62883 14.194C9.0817 13.4136 9.53457 12.6298 9.99442 11.8495C10.0327 11.7833 10.1268 11.7032 10.193 11.7032C10.3149 11.7067 10.2975 11.8321 10.2975 11.9227C10.301 13.0618 10.301 14.201 10.301 15.3366Z" fill="#FFD037"/>
<path d="M10.1511 2.91743C10.1441 2.65616 10.3287 2.45411 10.5796 2.45759C10.8408 2.46108 11.0324 2.68403 11.008 2.96272C10.9523 3.62113 10.9001 4.27954 10.8443 4.94143C10.8304 5.12955 10.7398 5.23406 10.59 5.23754C10.4367 5.24102 10.3392 5.14696 10.3218 4.95885C10.2625 4.27954 10.2103 3.60371 10.1511 2.91743Z" fill="#FFD037"/>
<path d="M10.5621 6.42198C10.3218 6.41502 10.1406 6.21645 10.1511 5.97608C10.1615 5.73919 10.3601 5.56501 10.6039 5.57546C10.8373 5.58591 11.0185 5.78099 11.0115 6.01091C11.008 6.24083 10.8025 6.42895 10.5621 6.42198Z" fill="#FFD037"/>
</svg>
