<svg width="19" height="19" viewBox="0 0 19 19" fill="none" xmlns="http://www.w3.org/2000/svg">
<path d="M14.0955 0C14.0955 0.118657 14.0955 0.207649 14.0955 0.296642C14.0955 1.53265 14.0955 2.76866 14.0955 4.00466C14.0955 4.68694 14.229 4.82043 14.9261 4.82043C16.1473 4.82043 17.3635 4.82043 18.5847 4.82043C18.6836 4.82043 18.7775 4.82043 18.9011 4.82043C18.9011 4.93414 18.9011 5.02314 18.9011 5.11213C18.9011 9.13163 18.8863 13.1561 18.911 17.1756C18.9159 18.194 18.1694 19.0098 17.0866 18.9999C14.3427 18.9752 11.5988 18.99 8.85482 18.99C8.77077 18.99 8.68178 18.99 8.52851 18.99C10.0414 17.843 10.8868 16.3845 11.0994 14.5404C11.1933 14.5404 11.2823 14.5404 11.3713 14.5404C12.815 14.5404 14.2537 14.5404 15.6974 14.5404C15.9495 14.5404 16.1423 14.4465 16.261 14.2141C16.3648 14.0064 16.3203 13.8136 16.1868 13.6356C16.0484 13.4527 15.8457 13.428 15.6331 13.428C14.224 13.4329 12.815 13.428 11.4059 13.428C11.3071 13.428 11.2131 13.428 11.1736 13.428C10.956 12.6666 10.7484 11.9448 10.5358 11.2032C10.6001 11.2032 10.6989 11.2032 10.7929 11.2032C12.3898 11.2032 13.9917 11.2032 15.5886 11.2032C15.7171 11.2032 15.8556 11.1982 15.9792 11.1537C16.2017 11.0746 16.3549 10.7978 16.3203 10.5802C16.2808 10.3281 16.083 10.1303 15.8259 10.1007C15.7468 10.0908 15.6628 10.0957 15.5787 10.0957C13.7 10.0957 11.8212 10.0957 9.94251 10.0908C9.8288 10.0908 9.68542 10.0314 9.60631 9.95233C8.25659 8.47901 6.59045 7.79674 4.59801 7.88573C4.5634 7.88573 4.53374 7.88573 4.45958 7.88573C4.45958 7.79674 4.45958 7.71269 4.45958 7.62864C4.45958 5.68564 4.45958 3.73769 4.45958 1.79468C4.44969 0.68722 5.14185 0 6.24437 0C8.76583 0 11.2873 0 13.8087 0C13.8928 0 13.9719 0 14.0955 0ZM11.6828 6.75355C10.8819 6.75355 10.0859 6.75355 9.28495 6.75355C8.71639 6.75355 8.14782 6.7486 7.57926 6.75849C7.27273 6.76343 7.04531 7.00569 7.03542 7.29245C7.02553 7.5792 7.26779 7.83629 7.57926 7.86101C7.63859 7.86595 7.69297 7.86101 7.7523 7.86101C10.3726 7.86101 12.993 7.86101 15.6133 7.86101C15.6776 7.86101 15.7468 7.86595 15.8111 7.85606C16.0286 7.82146 16.1868 7.70774 16.2758 7.49515C16.3599 7.29739 16.3104 7.12435 16.1918 6.9612C16.0533 6.77827 15.8556 6.74366 15.643 6.74366C14.318 6.75355 12.9979 6.75355 11.6828 6.75355Z" fill="#FFD037"/>
<path d="M9.99683 13.9817C9.99683 16.7553 7.75224 18.995 4.98358 18.99C2.22976 18.9802 0 16.7405 0 13.9817C0 11.2081 2.24953 8.96354 5.01325 8.97838C7.77696 8.98826 9.99683 11.218 9.99683 13.9817ZM5.5472 13.428C5.5472 12.8693 5.5472 12.3453 5.5472 11.8212C5.5472 11.4454 5.32472 11.2032 4.99347 11.2032C4.67211 11.2081 4.45457 11.4454 4.44963 11.8064C4.44468 12.5134 4.44468 13.2204 4.44963 13.9274C4.44963 14.3179 4.66717 14.5305 5.06269 14.5355C5.50765 14.5404 5.95261 14.5404 6.39758 14.5355C6.78321 14.5355 7.02052 14.3278 7.03041 13.9966C7.0403 13.6505 6.79804 13.4329 6.40252 13.428C6.12565 13.4231 5.84879 13.428 5.5472 13.428Z" fill="#FFD037"/>
<path d="M15.208 0.405396C16.3006 1.50297 17.3982 2.60055 18.4908 3.69318C17.4229 3.69318 16.3254 3.69318 15.208 3.69318C15.208 2.60055 15.208 1.49803 15.208 0.405396Z" fill="#FFD037"/>
</svg>
