<svg width="19" height="17" viewBox="0 0 19 17" fill="none" xmlns="http://www.w3.org/2000/svg">
<path d="M0 12.609C0 8.39311 0 4.20398 0 0C6.32675 0 12.6535 0 18.9981 0C18.9981 0.0504715 18.9981 0.103912 18.9981 0.154383C18.9981 4.09413 19.004 8.0309 18.9951 11.9706C18.9892 13.654 18.244 14.9396 16.7862 15.7798C15.8362 16.326 14.8 16.4507 13.7282 16.1954C12.0805 15.8035 10.8128 14.4438 10.5307 12.7812C10.5218 12.7277 10.507 12.6772 10.4921 12.6119C6.99772 12.609 3.50628 12.609 0 12.609ZM17.8818 12.0538C17.8847 10.3199 16.4656 8.89783 14.7288 8.89783C13.0009 8.89783 11.5817 10.3081 11.5758 12.0389C11.5669 13.7728 12.9801 15.1949 14.7228 15.2038C16.4537 15.2097 17.8788 13.7876 17.8818 12.0538ZM7.06007 2.59483C7.06007 4.3257 7.06007 6.04767 7.06007 7.76667C7.8023 7.76667 8.52968 7.76667 9.263 7.76667C9.263 6.0358 9.263 4.31977 9.263 2.59483C8.52671 2.59483 7.8023 2.59483 7.06007 2.59483ZM3.69333 9.99632C3.69333 7.52322 3.69333 5.05902 3.69333 2.5978C3.32221 2.5978 2.96297 2.5978 2.60373 2.5978C2.60373 5.0709 2.60373 7.52916 2.60373 9.99632C2.97485 9.99632 3.33409 9.99632 3.69333 9.99632ZM4.83636 2.59483C4.83636 4.32867 4.83636 6.05064 4.83636 7.76964C5.20747 7.76964 5.56671 7.76964 5.92298 7.76964C5.92298 6.03876 5.92298 4.31977 5.92298 2.59483C5.5578 2.59483 5.2045 2.59483 4.83636 2.59483ZM11.4867 7.77261C11.4867 6.03876 11.4867 4.3168 11.4867 2.5978C11.1156 2.5978 10.7564 2.5978 10.3971 2.5978C10.3971 4.32867 10.3971 6.04767 10.3971 7.77261C10.7623 7.77261 11.1186 7.77261 11.4867 7.77261ZM13.0721 2.59483C13.0721 4.3257 13.0721 6.04767 13.0721 7.76667C13.4432 7.76667 13.7995 7.76667 14.1617 7.76667C14.1617 6.0358 14.1617 4.31977 14.1617 2.59483C13.7936 2.59483 13.4343 2.59483 13.0721 2.59483ZM16.3854 7.77261C16.3854 6.03876 16.3854 4.3168 16.3854 2.5978C16.0143 2.5978 15.6551 2.5978 15.2958 2.5978C15.2958 4.32867 15.2958 6.04767 15.2958 7.77261C15.661 7.77261 16.0173 7.77261 16.3854 7.77261ZM4.82745 9.99335C5.57265 9.99335 6.303 9.99335 7.03335 9.99335C7.03335 9.62224 7.03335 9.263 7.03335 8.90376C6.29112 8.90376 5.56374 8.90376 4.82745 8.90376C4.82745 9.26894 4.82745 9.62521 4.82745 9.99335ZM10.0052 8.90673C9.3877 8.90673 8.77907 8.90673 8.17044 8.90673C8.17044 9.27785 8.17044 9.63412 8.17044 9.99632C8.78501 9.99632 9.39067 9.99632 10.0052 9.99632C10.0052 9.62818 10.0052 9.27191 10.0052 8.90673Z" fill="#FFD037"/>
<path d="M15.2751 14.4497C15.2454 14.4527 15.2187 14.4616 15.189 14.4616C14.8595 14.4616 14.527 14.4616 14.1855 14.4616C14.1855 13.5946 14.1855 12.7366 14.1855 11.8727C14.5478 11.8727 14.907 11.8727 15.2751 11.8727C15.2751 12.7307 15.2751 13.5857 15.2751 14.4497Z" fill="#FFD037"/>
<path d="M14.7258 9.63709C15.1355 9.63412 15.471 9.97258 15.471 10.3823C15.468 10.7861 15.1385 11.1186 14.7347 11.1186C14.325 11.1215 13.9866 10.7831 13.9895 10.3734C13.9895 9.97258 14.322 9.64006 14.7258 9.63709Z" fill="#FFD037"/>
</svg>
