<svg width="19" height="19" viewBox="0 0 19 19" fill="none" xmlns="http://www.w3.org/2000/svg">
<path d="M2.37726 18.9935C1.80612 18.9935 1.25724 19.0083 0.708357 18.9898C0.326363 18.975 0.0259607 18.6375 0.00370867 18.2518C0 18.1961 0.00370867 18.1405 0.00370867 18.0849C0.00370867 14.3428 0.00741735 10.6045 0 6.86244C0 6.55462 0.107552 6.33952 0.36345 6.16521C3.26734 4.17365 6.16752 2.17468 9.06771 0.175701C9.4052 -0.0579452 9.59805 -0.0579452 9.93183 0.171993C12.8431 2.17468 15.7507 4.18107 18.662 6.18375C18.892 6.34323 18.9995 6.53978 18.9995 6.82164C18.9958 10.5859 18.9958 14.3503 18.9958 18.1146C18.9958 18.6783 18.6769 18.9935 18.1095 18.9972C17.6236 18.9972 17.1341 18.9972 16.6223 18.9972C16.6223 18.9156 16.6223 18.8415 16.6223 18.771C16.6223 15.7225 16.6223 12.6739 16.6223 9.62911C16.6223 9.01718 16.3219 8.71307 15.7174 8.71307C11.5748 8.71307 7.43218 8.71307 3.2933 8.71307C2.68508 8.71307 2.38468 9.01347 2.38468 9.62169C2.38468 12.6628 2.38468 15.7039 2.38468 18.745C2.37726 18.8192 2.37726 18.8934 2.37726 18.9935Z" fill="#FFD037"/>
<path d="M8.90814 10.293C8.90814 10.5007 8.90443 10.6861 8.90814 10.8715C8.91556 11.2201 9.16775 11.476 9.50153 11.476C9.83531 11.476 10.0875 11.2201 10.0949 10.8715C10.0986 10.6861 10.0949 10.5007 10.0949 10.2893C10.3397 10.2893 10.5696 10.2893 10.8033 10.2893C11.0184 10.2893 11.2372 10.2855 11.4523 10.293C11.723 10.3041 11.8751 10.4599 11.8751 10.7269C11.8788 11.7579 11.8788 12.7889 11.8751 13.8199C11.8751 14.0906 11.7156 14.2464 11.4486 14.2464C10.1505 14.2501 8.85622 14.2501 7.55819 14.2464C7.28745 14.2464 7.13169 14.0869 7.13169 13.8162C7.12798 12.7852 7.12798 11.7542 7.13169 10.7232C7.13169 10.4747 7.2652 10.3041 7.49885 10.2967C7.95501 10.2818 8.4186 10.293 8.90814 10.293Z" fill="#FFD037"/>
<path d="M6.13417 15.0364C6.13417 15.2589 6.12675 15.4554 6.13788 15.652C6.15271 15.9487 6.36411 16.1786 6.63484 16.2157C6.92412 16.2565 7.18743 16.1045 7.28386 15.8374C7.30982 15.7595 7.31724 15.6668 7.32095 15.5815C7.32465 15.4109 7.32095 15.2366 7.32095 15.0364C7.48042 15.0364 7.62506 15.0364 7.7734 15.0364C8.06268 15.0364 8.35567 15.0326 8.64494 15.0364C8.95276 15.0401 9.10111 15.1847 9.10482 15.4925C9.10853 16.5124 9.10853 17.5323 9.10482 18.5522C9.10482 18.8489 8.95276 18.9972 8.65978 18.9972C7.37287 18.9972 6.08967 18.9972 4.80276 18.9972C4.5209 18.9972 4.36142 18.8452 4.36142 18.5633C4.35772 17.5323 4.35772 16.5013 4.36142 15.4666C4.36142 15.2107 4.51348 15.0475 4.75825 15.0401C5.15879 15.0289 5.56303 15.0364 5.96357 15.0364C6.00437 15.0364 6.05258 15.0364 6.13417 15.0364Z" fill="#FFD037"/>
<path d="M11.6787 15.0401C11.6787 15.2515 11.675 15.4369 11.6787 15.6186C11.6861 15.9635 11.9272 16.212 12.2535 16.2194C12.5836 16.2268 12.8395 15.9895 12.8618 15.6483C12.8729 15.4517 12.8655 15.2552 12.8655 15.0475C12.9396 15.0438 12.9916 15.0364 13.0472 15.0364C13.4106 15.0364 13.7778 15.0364 14.1413 15.0364C14.5047 15.0364 14.6493 15.181 14.6493 15.5407C14.6493 16.5235 14.6493 17.5063 14.6493 18.4891C14.6493 18.5262 14.6493 18.5633 14.6456 18.6004C14.6234 18.8489 14.4713 18.9972 14.2191 18.9972C12.9211 19.0009 11.6231 19.0009 10.325 18.9972C10.058 18.9972 9.89853 18.8489 9.89853 18.5893C9.89482 17.5434 9.89482 16.5013 9.89853 15.4554C9.89853 15.2181 10.0358 15.0512 10.262 15.0475C10.7256 15.0289 11.1892 15.0401 11.6787 15.0401Z" fill="#FFD037"/>
</svg>
