<svg width="19" height="17" viewBox="0 0 19 17" fill="none" xmlns="http://www.w3.org/2000/svg">
<path d="M9.50172 5.23004C12.2903 5.23004 15.0789 5.23004 17.8725 5.23004C18.7096 5.23004 19.0761 5.66592 18.9869 6.50795C18.8482 7.83538 18.7393 9.16777 18.6204 10.5002C18.452 12.3229 18.2885 14.1456 18.1053 15.9684C18.0409 16.642 17.6843 16.9392 17.0057 16.9392C12.003 16.9392 7.00535 16.9392 2.0027 16.9392C1.31422 16.9392 0.962547 16.6272 0.898157 15.9436C0.739657 14.3091 0.596017 12.6746 0.44247 11.04C0.29883 9.48972 0.15519 7.93444 0.00659609 6.38412C-0.0577944 5.69563 0.353314 5.23004 1.06161 5.23004C3.87498 5.23004 6.68835 5.23004 9.50172 5.23004ZM8.3625 11.6196C8.12475 11.6196 7.95634 11.6196 7.78299 11.6196C6.50013 11.6295 5.5739 12.417 5.36587 13.685C5.24204 14.4329 5.67296 14.9431 6.43574 14.9431C7.45113 14.9431 8.46652 14.9431 9.4819 14.9431C10.5369 14.9431 11.5969 14.9481 12.6519 14.9431C13.2463 14.9381 13.6623 14.5221 13.6623 13.9525C13.6623 12.8826 12.8599 11.8821 11.8049 11.6839C11.4483 11.6146 11.0719 11.6196 10.6607 11.5898C11.3146 11.1639 11.7009 10.5943 11.7801 9.84634C11.8594 9.08356 11.6068 8.42975 11.0421 7.90968C10.0961 7.03793 8.61016 7.13204 7.76317 8.1078C6.97563 9.00927 6.92114 10.624 8.3625 11.6196Z" fill="#FFD037"/>
<path d="M9.50178 4.15524C7.22335 4.15524 4.94491 4.15524 2.67143 4.1602C2.35939 4.1602 2.10182 4.08095 1.93837 3.79862C1.70558 3.40237 1.91361 2.88725 2.35939 2.76837C2.47826 2.73865 2.60209 2.72379 2.72592 2.72379C7.24811 2.72379 11.7703 2.72379 16.2925 2.71884C16.6145 2.71884 16.8968 2.78819 17.0751 3.09033C17.3327 3.53115 17.0404 4.10076 16.5352 4.15029C16.4361 4.1602 16.3371 4.15524 16.238 4.15524C13.9893 4.15524 11.7455 4.15524 9.50178 4.15524Z" fill="#FFD037"/>
<path d="M9.52158 0.0689483C11.1611 0.0689483 12.8055 0.0689483 14.445 0.0689483C14.9849 0.0689483 15.2969 0.385948 15.2474 0.871353C15.2226 1.15368 15.0146 1.40629 14.7323 1.46573C14.6035 1.49545 14.4697 1.5004 14.341 1.5004C11.1165 1.5004 7.892 1.5004 4.66752 1.5004C4.57837 1.5004 4.48426 1.5004 4.3951 1.48554C3.96913 1.43105 3.72643 1.13882 3.74624 0.727713C3.76606 0.351276 4.03848 0.0788545 4.44463 0.0689483C4.98948 0.054089 5.53432 0.0639952 6.07916 0.0639952C7.22828 0.0689483 8.37741 0.0689483 9.52158 0.0689483Z" fill="#FFD037"/>
</svg>
