<svg width="19" height="19" viewBox="0 0 19 19" fill="none" xmlns="http://www.w3.org/2000/svg">
<rect y="0.050293" width="18" height="18" rx="3" transform="rotate(-0.160351 0 0.050293)" fill="#333333"/>
<path d="M6.60437 14.7168C6.10129 14.7182 5.59823 14.7243 5.09283 14.7187C4.69359 14.7153 4.30571 14.6471 3.94747 14.452C3.45518 14.1833 3.18167 13.7549 3.09017 13.2174C2.91419 12.1795 3.09378 11.2097 3.73292 10.3541C4.20194 9.7274 4.85405 9.38172 5.61523 9.25267C5.90124 9.20341 6.19658 9.18643 6.48734 9.18331C7.33192 9.17171 8.17884 9.16934 9.02346 9.16929C9.87038 9.16922 10.6096 9.45562 11.2435 10.0169C11.3939 10.148 11.3941 10.2403 11.2515 10.3838C10.4645 11.1799 9.67978 11.9782 8.89045 12.7674C8.66262 12.9941 8.55489 13.2552 8.56271 13.5737C8.57044 13.8621 8.56663 14.1506 8.56513 14.439C8.56575 14.6606 8.51282 14.7138 8.2959 14.7144C7.73052 14.716 7.16514 14.7176 6.59976 14.7191C6.60437 14.7168 6.60437 14.7168 6.60437 14.7168Z" fill="#99CE02"/>
<path d="M7.62373 7.94534C6.27835 7.9468 5.16524 6.8353 5.16609 5.49222C5.16691 4.13529 6.27378 3.01758 7.60533 3.02077C8.99227 3.02612 10.0892 4.11459 10.093 5.49227C10.0945 6.83996 8.98295 7.94384 7.62373 7.94534Z" fill="#99CE02"/>
<path d="M13.8135 12.232C13.6409 12.4056 13.4729 12.5722 13.3049 12.7411C12.58 13.4678 11.8528 14.1921 11.1302 14.921C11.0658 14.9858 11.0013 15.016 10.9089 15.014C10.4774 15.0106 10.0482 15.0118 9.61665 15.0176C9.52203 15.0179 9.49196 14.9902 9.49168 14.8933C9.49507 14.4549 9.48923 14.0164 9.49262 13.5779C9.49246 13.5202 9.52226 13.4486 9.56369 13.4093C10.4358 12.523 11.3103 11.6413 12.1847 10.7596C12.2308 10.7134 12.2629 10.6717 12.3324 10.7385C12.816 11.224 13.302 11.705 13.7857 12.1882C13.7926 12.1974 13.7972 12.2067 13.8135 12.232Z" fill="#99CE02"/>
<path d="M12.7164 10.211C12.9075 10.0236 13.1076 9.80841 13.324 9.61396C13.5565 9.40331 13.9027 9.41388 14.1317 9.63016C14.377 9.86255 14.6177 10.1019 14.8514 10.3458C15.069 10.5737 15.0769 10.9175 14.8814 11.1558C14.8561 11.1858 14.8285 11.2113 14.8032 11.239C14.6283 11.4218 14.4534 11.6069 14.2901 11.7782C13.7578 11.2489 13.2441 10.738 12.7164 10.211Z" fill="#99CE02"/>
</svg>
