<svg width="21" height="20" viewBox="0 0 21 20" fill="none" xmlns="http://www.w3.org/2000/svg">
<path d="M19.6158 15.5642C19.6197 15.6466 19.6275 15.7015 19.6275 15.7564C19.6275 16.7411 19.6236 17.7259 19.6275 18.7145C19.6275 19.2284 19.4431 19.6404 18.9645 19.8679C18.788 19.9503 18.5722 19.9934 18.3721 19.9934C12.6639 20.0013 6.95574 20.0013 1.24756 19.9974C0.490387 19.9974 0 19.4991 0 18.7459C0 14.45 0 10.1542 0 5.85832C0 5.13646 0.486469 4.64214 1.20441 4.62645C1.23971 4.62645 1.27895 4.62645 1.31426 4.62645C6.97929 4.62645 12.6443 4.62645 18.3094 4.62253C18.7291 4.62253 19.0901 4.72845 19.3647 5.06192C19.5569 5.29339 19.6197 5.56801 19.6197 5.85832C19.6197 6.84303 19.6158 7.82774 19.6236 8.81638C19.6236 8.98507 19.5412 8.98507 19.4196 8.98507C17.1991 8.98507 14.9825 8.98507 12.762 8.98507C12.0676 8.98507 11.4988 9.244 11.079 9.80894C10.8044 10.1777 10.6984 10.5975 10.6984 11.0487C10.6984 11.849 10.6984 12.6493 10.6984 13.4457C10.6984 14.7168 11.5498 15.5603 12.8248 15.5603C15.0021 15.5603 17.1756 15.5603 19.3529 15.5603C19.4353 15.5642 19.5177 15.5642 19.6158 15.5642Z" fill="#333333"/>
<path d="M16.1866 9.79723C17.2969 9.79723 18.4071 9.79723 19.5135 9.79723C20.3569 9.79723 20.8238 10.268 20.8277 11.1115C20.8277 11.9 20.8277 12.6847 20.8277 13.4732C20.8277 14.2422 20.3452 14.7365 19.5802 14.7404C17.3126 14.7443 15.0411 14.7443 12.7735 14.7404C12.0006 14.7404 11.522 14.25 11.5181 13.4811C11.5142 12.669 11.5142 11.8569 11.5181 11.0448C11.522 10.2876 12.0085 9.80115 12.7656 9.79723C13.9073 9.79331 15.0489 9.79723 16.1866 9.79723ZM13.5777 12.3041C13.5542 12.5905 13.5895 12.8691 13.8759 13.0024C14.178 13.1437 14.5114 13.1437 14.8135 13.0064C15.1705 12.8455 15.1352 12.5042 15.1352 12.1825C15.1352 11.9197 15.0489 11.6921 14.7978 11.594C14.5075 11.4803 14.1976 11.4803 13.9112 11.598C13.6013 11.7274 13.5503 12.002 13.5777 12.3041Z" fill="#333333"/>
<path d="M17.2267 3.79484C14.0371 3.79484 10.8672 3.79484 7.69732 3.79484C7.6934 3.787 7.68947 3.78307 7.68555 3.77523C7.77186 3.74776 7.85816 3.71246 7.9484 3.68892C9.93351 3.14752 11.9147 2.60613 13.8998 2.06473C14.3784 1.93527 14.8571 1.80188 15.3318 1.67242C16.1007 1.46449 16.6853 1.79403 16.901 2.55905C16.9991 2.91213 17.0933 3.26522 17.1913 3.6183C17.207 3.6693 17.2149 3.72423 17.2267 3.79484Z" fill="#333333"/>
<path d="M13.1701 1.53506C12.8171 1.63314 12.4993 1.71945 12.1776 1.80968C9.81192 2.457 7.45019 3.11217 5.0806 3.73595C4.68437 3.84188 4.25674 3.80657 3.84088 3.83795C3.83696 3.81442 3.82912 3.79088 3.8252 3.76734C3.88797 3.73203 3.94681 3.69672 4.00958 3.66534C6.3674 2.49624 8.72521 1.32714 11.083 0.158037C11.7657 -0.179354 12.413 0.0324959 12.7582 0.707278C12.8955 0.97013 13.0211 1.2369 13.1701 1.53506Z" fill="#333333"/>
</svg>
